        <svg width="25" height="25" viewBox="0 0 25 25" fill="none" xmlns="http://www.w3.org/2000/svg">
            <rect x="1.49008" y="1.5018" width="22.2023" height="22.2023" rx="5.18053" stroke="white" stroke-width="1.48015"/>
            <mask id="path-2-inside-1_454_8796" fill="white">
            <path d="M16.1441 14.182C16.5801 14.182 16.9336 13.8285 16.9336 13.3926C16.9336 12.9566 16.5801 12.6031 16.1441 12.6031H13.3812V9.8402C13.3812 9.40425 13.0277 9.05078 12.5918 9.05078C12.1558 9.05078 11.8024 9.40425 11.8024 9.8402V12.6031H9.03941C8.60347 12.6031 8.25 12.9566 8.25 13.3926C8.25 13.8285 8.60347 14.182 9.03941 14.182H11.8024V16.9449C11.8024 17.3809 12.1558 17.7343 12.5918 17.7343C13.0277 17.7343 13.3812 17.3809 13.3812 16.9449V14.182H16.1441Z"/>
            </mask>
            <path d="M16.1441 14.182C16.5801 14.182 16.9336 13.8285 16.9336 13.3926C16.9336 12.9566 16.5801 12.6031 16.1441 12.6031H13.3812V9.8402C13.3812 9.40425 13.0277 9.05078 12.5918 9.05078C12.1558 9.05078 11.8024 9.40425 11.8024 9.8402V12.6031H9.03941C8.60347 12.6031 8.25 12.9566 8.25 13.3926C8.25 13.8285 8.60347 14.182 9.03941 14.182H11.8024V16.9449C11.8024 17.3809 12.1558 17.7343 12.5918 17.7343C13.0277 17.7343 13.3812 17.3809 13.3812 16.9449V14.182H16.1441Z" fill="white"/>
            <path d="M13.3812 12.6031H11.4077V14.5767H13.3812V12.6031ZM11.8024 12.6031V14.5767H13.7759V12.6031H11.8024ZM11.8024 14.182H13.7759V12.2084H11.8024V14.182ZM13.3812 14.182V12.2084H11.4077V14.182H13.3812ZM16.1441 16.1555C17.67 16.1555 18.9071 14.9185 18.9071 13.3926H14.96C14.96 12.7386 15.4901 12.2084 16.1441 12.2084V16.1555ZM18.9071 13.3926C18.9071 11.8667 17.67 10.6296 16.1441 10.6296V14.5767C15.4901 14.5767 14.96 14.0466 14.96 13.3926H18.9071ZM16.1441 10.6296H13.3812V14.5767H16.1441V10.6296ZM15.3547 12.6031V9.8402H11.4077V12.6031H15.3547ZM15.3547 9.8402C15.3547 8.3143 14.1177 7.07724 12.5918 7.07724V11.0243C11.9378 11.0243 11.4077 10.4942 11.4077 9.8402H15.3547ZM12.5918 7.07724C11.0659 7.07724 9.82883 8.3143 9.82883 9.8402H13.7759C13.7759 10.4942 13.2458 11.0243 12.5918 11.0243V7.07724ZM9.82883 9.8402V12.6031H13.7759V9.8402H9.82883ZM11.8024 10.6296H9.03941V14.5767H11.8024V10.6296ZM9.03941 10.6296C7.51352 10.6296 6.27646 11.8667 6.27646 13.3926H10.2235C10.2235 14.0466 9.69343 14.5767 9.03941 14.5767V10.6296ZM6.27646 13.3926C6.27646 14.9185 7.51352 16.1555 9.03941 16.1555V12.2084C9.69343 12.2084 10.2235 12.7386 10.2235 13.3926H6.27646ZM9.03941 16.1555H11.8024V12.2084H9.03941V16.1555ZM9.82883 14.182V16.9449H13.7759V14.182H9.82883ZM9.82883 16.9449C9.82883 18.4708 11.0659 19.7079 12.5918 19.7079V15.7608C13.2458 15.7608 13.7759 16.2909 13.7759 16.9449H9.82883ZM12.5918 19.7079C14.1177 19.7079 15.3547 18.4708 15.3547 16.9449H11.4077C11.4077 16.2909 11.9378 15.7608 12.5918 15.7608V19.7079ZM15.3547 16.9449V14.182H11.4077V16.9449H15.3547ZM13.3812 16.1555H16.1441V12.2084H13.3812V16.1555Z" fill="white" mask="url(#path-2-inside-1_454_8796)"/>
            </svg> 