<svg width="8" height="15" viewBox="0 0 8 15" fill="none" xmlns="http://www.w3.org/2000/svg">
<mask id="path-1-inside-1_692_4723" fill="white">
<path fill-rule="evenodd" clip-rule="evenodd" d="M0.15204 0.611513C0.201348 0.56208 0.259924 0.522861 0.324413 0.496101C0.388902 0.469341 0.458037 0.455566 0.527857 0.455566C0.597677 0.455566 0.666812 0.469341 0.731301 0.496101C0.79579 0.522861 0.854366 0.56208 0.903674 0.611513L7.27345 6.98129C7.32288 7.0306 7.3621 7.08917 7.38886 7.15366C7.41562 7.21815 7.4294 7.28728 7.4294 7.3571C7.4294 7.42692 7.41562 7.49606 7.38886 7.56055C7.3621 7.62504 7.32288 7.68361 7.27345 7.73292L0.903674 14.1027C0.804001 14.2024 0.668816 14.2584 0.527857 14.2584C0.386898 14.2584 0.251713 14.2024 0.15204 14.1027C0.0523674 14.003 -0.00362833 13.8678 -0.00362833 13.7269C-0.00362833 13.5859 0.0523674 13.4507 0.15204 13.3511L6.14706 7.3571L0.15204 1.36315C0.102607 1.31384 0.0633875 1.25526 0.0366276 1.19077C0.00986773 1.12628 -0.00390625 1.05715 -0.00390625 0.98733C-0.00390625 0.917509 0.00986773 0.848375 0.0366276 0.783886C0.0633875 0.719397 0.102607 0.660821 0.15204 0.611513V0.611513Z"/>
</mask>
<path fill-rule="evenodd" clip-rule="evenodd" d="M0.15204 0.611513C0.201348 0.56208 0.259924 0.522861 0.324413 0.496101C0.388902 0.469341 0.458037 0.455566 0.527857 0.455566C0.597677 0.455566 0.666812 0.469341 0.731301 0.496101C0.79579 0.522861 0.854366 0.56208 0.903674 0.611513L7.27345 6.98129C7.32288 7.0306 7.3621 7.08917 7.38886 7.15366C7.41562 7.21815 7.4294 7.28728 7.4294 7.3571C7.4294 7.42692 7.41562 7.49606 7.38886 7.56055C7.3621 7.62504 7.32288 7.68361 7.27345 7.73292L0.903674 14.1027C0.804001 14.2024 0.668816 14.2584 0.527857 14.2584C0.386898 14.2584 0.251713 14.2024 0.15204 14.1027C0.0523674 14.003 -0.00362833 13.8678 -0.00362833 13.7269C-0.00362833 13.5859 0.0523674 13.4507 0.15204 13.3511L6.14706 7.3571L0.15204 1.36315C0.102607 1.31384 0.0633875 1.25526 0.0366276 1.19077C0.00986773 1.12628 -0.00390625 1.05715 -0.00390625 0.98733C-0.00390625 0.917509 0.00986773 0.848375 0.0366276 0.783886C0.0633875 0.719397 0.102607 0.660821 0.15204 0.611513V0.611513Z" fill="#9CA3AF"/>
<path d="M0.903674 0.611513L-0.0985047 1.61116L-0.0972396 1.61243L0.903674 0.611513ZM7.27345 6.98129L6.27253 7.9822L6.2738 7.98347L7.27345 6.98129ZM7.27345 7.73292L6.2738 6.73074L6.27254 6.73201L7.27345 7.73292ZM0.15204 13.3511L-0.848785 12.3501L-0.848873 12.3501L0.15204 13.3511ZM6.14706 7.3571L7.14789 8.35811L8.14906 7.3571L7.14789 6.3561L6.14706 7.3571ZM0.15204 1.36315L1.15287 0.362144L1.15169 0.360969L0.15204 1.36315ZM1.15422 1.61116C1.07204 1.69355 0.974411 1.75891 0.86693 1.80351L-0.218104 -0.811313C-0.454563 -0.713193 -0.669341 -0.569388 -0.850138 -0.388134L1.15422 1.61116ZM0.86693 1.80351C0.759449 1.84811 0.644225 1.87107 0.527857 1.87107V-0.959939C0.271848 -0.959939 0.0183547 -0.909433 -0.218104 -0.811313L0.86693 1.80351ZM0.527857 1.87107C0.411489 1.87107 0.296265 1.84811 0.188784 1.80351L1.27382 -0.811313C1.03736 -0.909433 0.783866 -0.959939 0.527857 -0.959939V1.87107ZM0.188784 1.80351C0.0813026 1.75891 -0.0163239 1.69355 -0.0985039 1.61116L1.90585 -0.388134C1.72506 -0.569388 1.51028 -0.713193 1.27382 -0.811313L0.188784 1.80351ZM-0.0972396 1.61243L6.27254 7.9822L8.27436 5.98037L1.90459 -0.3894L-0.0972396 1.61243ZM6.2738 7.98347C6.19141 7.90128 6.12604 7.80365 6.08145 7.69618L8.69627 6.61114C8.59816 6.37469 8.45436 6.15991 8.2731 5.97911L6.2738 7.98347ZM6.08145 7.69618C6.03685 7.5887 6.01389 7.47347 6.01389 7.3571H8.8449C8.8449 7.10109 8.79439 6.8476 8.69627 6.61114L6.08145 7.69618ZM6.01389 7.3571C6.01389 7.24073 6.03685 7.12551 6.08145 7.01803L8.69627 8.10306C8.79439 7.86661 8.8449 7.61311 8.8449 7.3571H6.01389ZM6.08145 7.01803C6.12604 6.91056 6.19141 6.81293 6.2738 6.73074L8.2731 8.7351C8.45436 8.5543 8.59816 8.33952 8.69627 8.10306L6.08145 7.01803ZM6.27254 6.73201L-0.0972396 13.1018L1.90459 15.1036L8.27436 8.73383L6.27254 6.73201ZM-0.0972396 13.1018C0.0685484 12.936 0.293403 12.8429 0.527857 12.8429V15.6739C1.04423 15.6739 1.53945 15.4687 1.90459 15.1036L-0.0972396 13.1018ZM0.527857 12.8429C0.762311 12.8429 0.987166 12.936 1.15295 13.1018L-0.848873 15.1036C-0.48374 15.4687 0.0114859 15.6739 0.527857 15.6739V12.8429ZM1.15295 13.1018C1.31874 13.2676 1.41188 13.4924 1.41188 13.7269H-1.41913C-1.41913 14.2433 -1.214 14.7385 -0.848873 15.1036L1.15295 13.1018ZM1.41188 13.7269C1.41188 13.9613 1.31874 14.1862 1.15295 14.352L-0.848873 12.3501C-1.214 12.7153 -1.41913 13.2105 -1.41913 13.7269H1.41188ZM1.15286 14.3521L7.14789 8.35811L5.14624 6.3561L-0.848785 12.3501L1.15286 14.3521ZM7.14789 6.3561L1.15286 0.362144L-0.848785 2.36415L5.14624 8.35811L7.14789 6.3561ZM1.15169 0.360969C1.23407 0.443148 1.29944 0.540774 1.34404 0.648257L-1.27079 1.73329C-1.17267 1.96975 -1.02886 2.18453 -0.847607 2.36532L1.15169 0.360969ZM1.34404 0.648257C1.38864 0.755744 1.4116 0.870969 1.4116 0.98733H-1.41941C-1.41941 1.24333 -1.36891 1.49683 -1.27079 1.73329L1.34404 0.648257ZM1.4116 0.98733C1.4116 1.10369 1.38864 1.21892 1.34404 1.3264L-1.27079 0.241369C-1.36891 0.477834 -1.41941 0.731327 -1.41941 0.98733H1.4116ZM1.34404 1.3264C1.29944 1.43389 1.23407 1.53151 1.15169 1.61369L-0.847607 -0.390665C-1.02886 -0.20987 -1.17267 0.00490867 -1.27079 0.241369L1.34404 1.3264Z" fill="#9CA3AF" mask="url(#path-1-inside-1_692_4723)"/>
</svg>
