            <svg width="21" height="30" viewBox="0 0 29 30" fill="none" xmlns="http://www.w3.org/2000/svg">
              <path d="M0.142578 26.2859V11.2859C0.142578 10.7144 0.356864 10.2144 0.785435 9.78585C1.21401 9.35728 1.71401 9.143 2.28544 9.143H7.28544V5.57157C7.28544 5.00014 7.49972 4.50014 7.92829 4.07157C8.35686 3.643 8.85686 3.42871 9.42829 3.42871H19.4283C19.9997 3.42871 20.4997 3.643 20.9283 4.07157C21.3569 4.50014 21.5711 5.00014 21.5711 5.57157V9.143H26.5711C27.1426 9.143 27.6426 9.35728 28.0712 9.78585C28.4997 10.2144 28.714 10.7144 28.714 11.2859V26.2859H0.142578ZM2.28544 24.143H26.5711V18.7859H22.6426V20.2144H20.4997V18.7859H8.35686V20.2144H6.21401V18.7859H2.28544V24.143ZM2.28544 11.2859V16.643H6.21401V15.2144H8.35686V16.643H20.4997V15.2144H22.6426V16.643H26.5711V11.2859H2.28544ZM9.42829 9.143H19.4283V5.57157H9.42829V9.143Z" fill="white"/>
              </svg>