    <svg width="21" height="35" viewBox="0 0 35 35" fill="none" xmlns="http://www.w3.org/2000/svg">
      <path d="M28.1427 34.571L13.8574 34.571L13.8574 0.285889L28.1427 0.285889C29.714 0.285889 30.9998 1.57148 30.9998 3.14307L30.9998 31.7142C30.9998 33.2855 29.7142 34.5711 28.1427 34.5711L28.1427 34.571ZM15.2861 33.1424L28.1433 33.1424C28.9292 33.1424 29.5719 32.4996 29.5719 31.7138L29.5717 3.14267C29.5717 2.35684 28.9289 1.71408 28.1431 1.71408L15.2858 1.71408L15.2861 33.1424Z" fill="white"/>
      <path d="M15.284 34.5712L8.14136 34.5712C6.57004 34.5712 5.28418 33.2856 5.28418 31.714L5.28418 3.14283C5.28418 1.5715 6.56977 0.285645 8.14136 0.285645L15.284 0.285644L15.284 34.5712ZM8.1407 1.7147C7.35487 1.7147 6.71211 2.35749 6.71211 3.14329L6.71211 31.7144C6.71211 32.5003 7.3549 33.143 8.1407 33.143L13.8548 33.143L13.8551 1.71457L8.1407 1.7147Z" fill="white"/>
      <path d="M10.2845 8.85761C9.07016 8.85761 8.1416 7.92905 8.1416 6.7147C8.1416 5.50034 9.07016 4.57178 10.2845 4.57178C11.4989 4.57178 12.4274 5.50034 12.4274 6.7147C12.4274 7.92905 11.4989 8.85761 10.2845 8.85761ZM10.2845 6.00043C9.856 6.00043 9.57019 6.28621 9.57019 6.71476C9.57019 7.14329 9.85596 7.42909 10.2845 7.42909C10.713 7.42909 10.9988 7.14332 10.9988 6.71476C10.9988 6.28624 10.7131 6.00043 10.2845 6.00043Z" fill="white"/>
      <path d="M8.85576 7.42866L3.85593 7.42866C3.42741 7.42866 3.1416 7.14289 3.1416 6.71433C3.1416 6.2858 3.42737 6 3.85593 6L8.85576 6C9.28429 6 9.57009 6.28577 9.57009 6.71433C9.57009 7.14285 9.28458 7.42866 8.85576 7.42866Z" fill="white"/>
      <path d="M10.2845 15.9999C9.07016 15.9999 8.1416 15.0714 8.1416 13.857C8.1416 12.6427 9.07016 11.7141 10.2845 11.7141C11.4989 11.7141 12.4274 12.6427 12.4274 13.857C12.4274 15.0714 11.4989 15.9999 10.2845 15.9999ZM10.2845 13.1428C9.856 13.1428 9.57019 13.4285 9.57019 13.8571C9.57019 14.2856 9.85596 14.5714 10.2845 14.5714C10.713 14.5714 10.9988 14.2857 10.9988 13.8571C10.9988 13.4286 10.7131 13.1428 10.2845 13.1428Z" fill="white"/>
      <path d="M8.85576 14.5715L3.85593 14.5715C3.42741 14.5715 3.1416 14.2857 3.1416 13.8571C3.1416 13.4286 3.42737 13.1428 3.85593 13.1428L8.85576 13.1428C9.28429 13.1428 9.57009 13.4286 9.57009 13.8571C9.57009 14.2859 9.28458 14.5715 8.85576 14.5715Z" fill="white"/>
      <path d="M10.2845 23.1425C9.07016 23.1425 8.1416 22.214 8.1416 20.9996C8.1416 19.7852 9.07016 18.8567 10.2845 18.8567C11.4989 18.8567 12.4274 19.7852 12.4274 20.9996C12.4274 22.214 11.4989 23.1425 10.2845 23.1425ZM10.2845 20.2856C9.856 20.2856 9.57019 20.5714 9.57019 20.9999C9.57019 21.4285 9.85596 21.7143 10.2845 21.7143C10.713 21.7143 10.9988 21.4285 10.9988 20.9999C10.9988 20.5712 10.7131 20.2856 10.2845 20.2856Z" fill="white"/>
      <path d="M8.85576 21.7145L3.85593 21.7145C3.42741 21.7145 3.1416 21.4288 3.1416 21.0002C3.1416 20.5717 3.42737 20.2859 3.85593 20.2859L8.85576 20.2859C9.28429 20.2859 9.57009 20.5717 9.57009 21.0002C9.57009 21.4287 9.28458 21.7145 8.85576 21.7145Z" fill="white"/>
      <path d="M10.2845 30.2858C9.07016 30.2858 8.1416 29.3573 8.1416 28.1429C8.1416 26.9286 9.07016 26 10.2845 26C11.4989 26 12.4274 26.9286 12.4274 28.1429C12.4274 29.3573 11.4989 30.2858 10.2845 30.2858ZM10.2845 27.4287C9.856 27.4287 9.57019 27.7144 9.57019 28.143C9.57019 28.5715 9.85596 28.8573 10.2845 28.8573C10.713 28.8573 10.9988 28.5715 10.9988 28.143C10.9988 27.7145 10.7131 27.4287 10.2845 27.4287Z" fill="white"/>
      <path d="M8.85576 28.8571L3.85593 28.8571C3.42741 28.8571 3.1416 28.5714 3.1416 28.1428C3.1416 27.7143 3.42737 27.4285 3.85593 27.4285L8.85576 27.4285C9.28429 27.4285 9.57009 27.7142 9.57009 28.1428C9.57009 28.5713 9.28458 28.8571 8.85576 28.8571Z" fill="white"/>
      <path d="M26.7114 13.8571L18.1401 13.8571C17.7116 13.8571 17.4258 13.5714 17.4258 13.1428C17.4258 12.7143 17.7116 12.4285 18.1401 12.4285L26.7114 12.4285C27.1399 12.4285 27.4257 12.7142 27.4257 13.1428C27.4257 13.5716 27.1402 13.8571 26.7114 13.8571Z" fill="white"/>
      <path d="M25.2849 18.1428L19.5708 18.1428C19.1422 18.1428 18.8564 17.857 18.8564 17.4284C18.8564 16.9999 19.1422 16.7141 19.5708 16.7141L25.2849 16.7141C25.7134 16.7141 25.9992 16.9999 25.9992 17.4284C25.9992 17.857 25.7134 18.1428 25.2849 18.1428Z" fill="white"/>
      <path d="M26.7114 22.4282L18.1401 22.4282C17.7116 22.4282 17.4258 22.1424 17.4258 21.7138C17.4258 21.2853 17.7116 20.9995 18.1401 20.9995L26.7114 20.9995C27.1399 20.9995 27.4257 21.2853 27.4257 21.7138C27.4257 22.1426 27.1402 22.4282 26.7114 22.4282Z" fill="white"/>
      </svg>