<svg width="78" height="78" viewBox="0 0 78 78" fill="none" xmlns="http://www.w3.org/2000/svg">
<circle cx="39.0892" cy="38.7557" r="38.7357" fill="#2B3E76"/>
<path fill-rule="evenodd" clip-rule="evenodd" d="M49.6247 27.5924C49.7022 27.7279 49.8377 27.8246 50.012 27.8246C54.6603 27.8246 58.4564 31.6165 58.4564 36.2596V47.7514C58.4564 52.3945 54.6603 56.1864 50.012 56.1864H28.1651C23.4974 56.1864 19.7207 52.3945 19.7207 47.7514V36.2596C19.7207 31.6165 23.4974 27.8246 28.1651 27.8246C28.32 27.8246 28.475 27.7472 28.5331 27.5924L28.6493 27.3603C28.7161 27.2197 28.7846 27.0754 28.8542 26.9288C29.3496 25.8852 29.8978 24.7306 30.2375 24.0521C31.1284 22.3109 32.6391 21.3436 34.5178 21.3242H43.64C45.5187 21.3436 47.0488 22.3109 47.9397 24.0521C48.2447 24.6615 48.7095 25.6432 49.1575 26.5893C49.2499 26.7845 49.3416 26.9782 49.431 27.1668L49.6247 27.5924ZM48.2116 35.0217C48.2116 35.989 48.9863 36.7629 49.9547 36.7629C50.9231 36.7629 51.7172 35.989 51.7172 35.0217C51.7172 34.0544 50.9231 33.2612 49.9547 33.2612C48.9863 33.2612 48.2116 34.0544 48.2116 35.0217ZM35.7369 38.0203C36.6472 37.111 37.8287 36.6274 39.0876 36.6274C40.3465 36.6274 41.5279 37.111 42.4188 38.001C43.3098 38.8909 43.794 40.071 43.794 41.3285C43.7746 43.921 41.6829 46.0297 39.0876 46.0297C37.8287 46.0297 36.6472 45.5461 35.7563 44.6561C34.8654 43.7662 34.3812 42.5861 34.3812 41.3285V41.3092C34.3618 40.0904 34.846 38.9103 35.7369 38.0203ZM44.4545 46.7066C43.0794 48.0802 41.1814 48.9314 39.0896 48.9314C37.056 48.9314 35.158 48.1382 33.7054 46.7066C32.2722 45.2556 31.4781 43.3597 31.4781 41.3283C31.4587 39.3163 32.2528 37.4203 33.686 35.9693C35.1386 34.5184 37.056 33.7252 39.0896 33.7252C41.1233 33.7252 43.0407 34.5184 44.4739 35.95C45.9071 37.401 46.7012 39.3163 46.7012 41.3283C46.6818 43.437 45.8297 45.333 44.4545 46.7066Z" fill="white"/>
</svg>
