<svg width="565" height="204" viewBox="0 0 565 204" fill="none" xmlns="http://www.w3.org/2000/svg">
<g filter="url(#filter0_bd_1_15140)">
<g clip-path="url(#clip0_1_15140)">
<rect width="564.011" height="197.028" rx="6.01611" fill="#D9D9D9"/>
<rect width="564.011" height="197.028" rx="6.01611" fill="black" fill-opacity="0.2"/>
<circle cx="59.3415" cy="192.351" r="27.613" fill="#FDE100"/>
<ellipse cx="146.617" cy="156.48" rx="146.617" ry="156.48" transform="matrix(0.915133 -0.403152 0.464247 0.885706 343.464 16.4106)" fill="#FDE100"/>
<ellipse cx="163.026" cy="140.631" rx="163.026" ry="140.631" transform="matrix(-0.631151 -0.77566 0.810038 -0.586378 557.625 305.018)" fill="url(#paint0_linear_1_15140)"/>
<ellipse cx="5.28847" cy="119.501" rx="9.98769" ry="9.98769" fill="#FDE100"/>
<path d="M37.8406 134.878H33.951L33.2345 136.861H32.0062L35.2305 127.994H36.5739L39.7854 136.861H38.5571L37.8406 134.878ZM37.5079 133.931L35.8958 129.427L34.2837 133.931H37.5079ZM40.7555 133.33C40.7555 132.613 40.9006 131.986 41.1906 131.449C41.4806 130.903 41.8772 130.481 42.3805 130.182C42.8923 129.883 43.4637 129.734 44.0949 129.734C44.6409 129.734 45.1484 129.862 45.6175 130.118C46.0866 130.365 46.4449 130.694 46.6923 131.103V127.393H47.8694V136.861H46.6923V135.543C46.462 135.961 46.1208 136.306 45.6687 136.579C45.2166 136.844 44.6878 136.976 44.0822 136.976C43.4595 136.976 42.8923 136.822 42.3805 136.515C41.8772 136.208 41.4806 135.778 41.1906 135.223C40.9006 134.669 40.7555 134.037 40.7555 133.33ZM46.6923 133.342C46.6923 132.813 46.5856 132.353 46.3724 131.96C46.1592 131.568 45.8691 131.27 45.5024 131.065C45.1441 130.852 44.7475 130.745 44.3125 130.745C43.8774 130.745 43.4808 130.847 43.1226 131.052C42.7643 131.257 42.4786 131.555 42.2653 131.948C42.0521 132.34 41.9454 132.801 41.9454 133.33C41.9454 133.867 42.0521 134.336 42.2653 134.737C42.4786 135.129 42.7643 135.432 43.1226 135.645C43.4808 135.85 43.8774 135.952 44.3125 135.952C44.7475 135.952 45.1441 135.85 45.5024 135.645C45.8691 135.432 46.1592 135.129 46.3724 134.737C46.5856 134.336 46.6923 133.871 46.6923 133.342ZM49.4019 133.33C49.4019 132.613 49.5469 131.986 49.8369 131.449C50.127 130.903 50.5236 130.481 51.0268 130.182C51.5386 129.883 52.1101 129.734 52.7413 129.734C53.2872 129.734 53.7948 129.862 54.2639 130.118C54.733 130.365 55.0913 130.694 55.3386 131.103V127.393H56.5157V136.861H55.3386V135.543C55.1083 135.961 54.7671 136.306 54.3151 136.579C53.863 136.844 53.3341 136.976 52.7285 136.976C52.1059 136.976 51.5386 136.822 51.0268 136.515C50.5236 136.208 50.127 135.778 49.8369 135.223C49.5469 134.669 49.4019 134.037 49.4019 133.33ZM55.3386 133.342C55.3386 132.813 55.232 132.353 55.0188 131.96C54.8055 131.568 54.5155 131.27 54.1487 131.065C53.7905 130.852 53.3939 130.745 52.9588 130.745C52.5238 130.745 52.1272 130.847 51.7689 131.052C51.4107 131.257 51.1249 131.555 50.9117 131.948C50.6985 132.34 50.5918 132.801 50.5918 133.33C50.5918 133.867 50.6985 134.336 50.9117 134.737C51.1249 135.129 51.4107 135.432 51.7689 135.645C52.1272 135.85 52.5238 135.952 52.9588 135.952C53.3939 135.952 53.7905 135.85 54.1487 135.645C54.5155 135.432 54.8055 135.129 55.0188 134.737C55.232 134.336 55.3386 133.871 55.3386 133.342ZM61.4594 133.33C61.4594 132.613 61.6044 131.986 61.8944 131.449C62.1844 130.903 62.581 130.481 63.0843 130.182C63.5961 129.883 64.1633 129.734 64.786 129.734C65.4001 129.734 65.9332 129.866 66.3853 130.131C66.8374 130.395 67.1743 130.728 67.3961 131.129V129.849H68.5732V136.861H67.3961V135.556C67.1658 135.965 66.8203 136.306 66.3597 136.579C65.9076 136.844 65.3788 136.976 64.7732 136.976C64.1505 136.976 63.5876 136.822 63.0843 136.515C62.581 136.208 62.1844 135.778 61.8944 135.223C61.6044 134.669 61.4594 134.037 61.4594 133.33ZM67.3961 133.342C67.3961 132.813 67.2895 132.353 67.0762 131.96C66.863 131.568 66.573 131.27 66.2062 131.065C65.8479 130.852 65.4513 130.745 65.0163 130.745C64.5813 130.745 64.1846 130.847 63.8264 131.052C63.4681 131.257 63.1824 131.555 62.9691 131.948C62.7559 132.34 62.6493 132.801 62.6493 133.33C62.6493 133.867 62.7559 134.336 62.9691 134.737C63.1824 135.129 63.4681 135.432 63.8264 135.645C64.1846 135.85 64.5813 135.952 65.0163 135.952C65.4513 135.952 65.8479 135.85 66.2062 135.645C66.573 135.432 66.863 135.129 67.0762 134.737C67.2895 134.336 67.3961 133.871 67.3961 133.342ZM77.368 129.721C78.221 129.721 78.9119 129.982 79.4408 130.502C79.9696 131.014 80.234 131.756 80.234 132.728V136.861H79.0825V132.895C79.0825 132.195 78.9076 131.662 78.5579 131.295C78.2082 130.92 77.7305 130.732 77.1249 130.732C76.5108 130.732 76.0203 130.924 75.6535 131.308C75.2953 131.692 75.1162 132.251 75.1162 132.984V136.861H73.9518V129.849H75.1162V130.847C75.3465 130.489 75.6578 130.212 76.0502 130.016C76.4511 129.82 76.8904 129.721 77.368 129.721ZM88.5332 133.086C88.5332 133.308 88.5204 133.543 88.4949 133.79H82.8908C82.9335 134.481 83.168 135.023 83.5945 135.415C84.0295 135.799 84.5541 135.991 85.1683 135.991C85.6715 135.991 86.0895 135.876 86.4221 135.645C86.7633 135.407 87.0022 135.091 87.1386 134.699H88.3925C88.2048 135.372 87.8295 135.923 87.2666 136.349C86.7036 136.767 86.0042 136.976 85.1683 136.976C84.5029 136.976 83.9058 136.827 83.377 136.528C82.8567 136.23 82.4473 135.807 82.1487 135.262C81.8502 134.707 81.7009 134.067 81.7009 133.342C81.7009 132.617 81.8459 131.982 82.1359 131.436C82.4259 130.89 82.8311 130.472 83.3514 130.182C83.8803 129.883 84.4859 129.734 85.1683 129.734C85.8336 129.734 86.4221 129.879 86.9339 130.169C87.4457 130.459 87.8381 130.86 88.111 131.372C88.3925 131.875 88.5332 132.447 88.5332 133.086ZM87.3305 132.843C87.3305 132.4 87.2325 132.02 87.0363 131.705C86.8401 131.38 86.5714 131.137 86.2302 130.975C85.8975 130.805 85.5265 130.719 85.1171 130.719C84.5285 130.719 84.0253 130.907 83.6073 131.282C83.1979 131.658 82.9633 132.178 82.9036 132.843H87.3305ZM99.4102 129.849L97.2223 136.861H96.0196L94.3307 131.295L92.6418 136.861H91.4391L89.2385 129.849H90.4284L92.0405 135.735L93.7805 129.849H94.9705L96.6721 135.748L98.2587 129.849H99.4102ZM103.542 133.33C103.542 132.613 103.687 131.986 103.977 131.449C104.267 130.903 104.663 130.481 105.167 130.182C105.678 129.883 106.25 129.734 106.881 129.734C107.427 129.734 107.935 129.862 108.404 130.118C108.873 130.365 109.231 130.694 109.478 131.103V127.393H110.656V136.861H109.478V135.543C109.248 135.961 108.907 136.306 108.455 136.579C108.003 136.844 107.474 136.976 106.868 136.976C106.246 136.976 105.678 136.822 105.167 136.515C104.663 136.208 104.267 135.778 103.977 135.223C103.687 134.669 103.542 134.037 103.542 133.33ZM109.478 133.342C109.478 132.813 109.372 132.353 109.159 131.96C108.945 131.568 108.655 131.27 108.289 131.065C107.93 130.852 107.534 130.745 107.099 130.745C106.664 130.745 106.267 130.847 105.909 131.052C105.551 131.257 105.265 131.555 105.052 131.948C104.838 132.34 104.732 132.801 104.732 133.33C104.732 133.867 104.838 134.336 105.052 134.737C105.265 135.129 105.551 135.432 105.909 135.645C106.267 135.85 106.664 135.952 107.099 135.952C107.534 135.952 107.93 135.85 108.289 135.645C108.655 135.432 108.945 135.129 109.159 134.737C109.372 134.336 109.478 133.871 109.478 133.342ZM119.02 133.086C119.02 133.308 119.008 133.543 118.982 133.79H113.378C113.421 134.481 113.655 135.023 114.082 135.415C114.517 135.799 115.041 135.991 115.655 135.991C116.159 135.991 116.577 135.876 116.909 135.645C117.251 135.407 117.489 135.091 117.626 134.699H118.88C118.692 135.372 118.317 135.923 117.754 136.349C117.191 136.767 116.491 136.976 115.655 136.976C114.99 136.976 114.393 136.827 113.864 136.528C113.344 136.23 112.934 135.807 112.636 135.262C112.337 134.707 112.188 134.067 112.188 133.342C112.188 132.617 112.333 131.982 112.623 131.436C112.913 130.89 113.318 130.472 113.839 130.182C114.367 129.883 114.973 129.734 115.655 129.734C116.321 129.734 116.909 129.879 117.421 130.169C117.933 130.459 118.325 130.86 118.598 131.372C118.88 131.875 119.02 132.447 119.02 133.086ZM117.818 132.843C117.818 132.4 117.72 132.02 117.524 131.705C117.327 131.38 117.059 131.137 116.717 130.975C116.385 130.805 116.014 130.719 115.604 130.719C115.016 130.719 114.513 130.907 114.095 131.282C113.685 131.658 113.451 132.178 113.391 132.843H117.818ZM123.167 135.786L125.343 129.849H126.584L123.833 136.861H122.477L119.726 129.849H120.98L123.167 135.786ZM128.331 128.711C128.109 128.711 127.921 128.634 127.768 128.48C127.614 128.327 127.537 128.139 127.537 127.917C127.537 127.696 127.614 127.508 127.768 127.354C127.921 127.201 128.109 127.124 128.331 127.124C128.544 127.124 128.723 127.201 128.868 127.354C129.022 127.508 129.098 127.696 129.098 127.917C129.098 128.139 129.022 128.327 128.868 128.48C128.723 128.634 128.544 128.711 128.331 128.711ZM128.894 129.849V136.861H127.729V129.849H128.894ZM130.443 133.342C130.443 132.617 130.588 131.986 130.878 131.449C131.168 130.903 131.569 130.481 132.081 130.182C132.601 129.883 133.194 129.734 133.859 129.734C134.721 129.734 135.429 129.943 135.983 130.361C136.546 130.779 136.917 131.359 137.096 132.101H135.842C135.723 131.675 135.488 131.338 135.139 131.09C134.797 130.843 134.371 130.719 133.859 130.719C133.194 130.719 132.656 130.95 132.247 131.41C131.838 131.862 131.633 132.506 131.633 133.342C131.633 134.187 131.838 134.839 132.247 135.3C132.656 135.761 133.194 135.991 133.859 135.991C134.371 135.991 134.797 135.871 135.139 135.633C135.48 135.394 135.714 135.053 135.842 134.609H137.096C136.909 135.325 136.533 135.901 135.97 136.336C135.407 136.763 134.704 136.976 133.859 136.976C133.194 136.976 132.601 136.827 132.081 136.528C131.569 136.23 131.168 135.807 130.878 135.262C130.588 134.716 130.443 134.076 130.443 133.342ZM145.047 133.086C145.047 133.308 145.034 133.543 145.009 133.79H139.405C139.447 134.481 139.682 135.023 140.108 135.415C140.543 135.799 141.068 135.991 141.682 135.991C142.185 135.991 142.603 135.876 142.936 135.645C143.277 135.407 143.516 135.091 143.652 134.699H144.906C144.719 135.372 144.343 135.923 143.78 136.349C143.217 136.767 142.518 136.976 141.682 136.976C141.017 136.976 140.42 136.827 139.891 136.528C139.371 136.23 138.961 135.807 138.663 135.262C138.364 134.707 138.215 134.067 138.215 133.342C138.215 132.617 138.36 131.982 138.65 131.436C138.94 130.89 139.345 130.472 139.865 130.182C140.394 129.883 141 129.734 141.682 129.734C142.347 129.734 142.936 129.879 143.448 130.169C143.96 130.459 144.352 130.86 144.625 131.372C144.906 131.875 145.047 132.447 145.047 133.086ZM143.844 132.843C143.844 132.4 143.746 132.02 143.55 131.705C143.354 131.38 143.085 131.137 142.744 130.975C142.411 130.805 142.04 130.719 141.631 130.719C141.042 130.719 140.539 130.907 140.121 131.282C139.712 131.658 139.477 132.178 139.417 132.843H143.844ZM149.56 133.33C149.56 132.613 149.705 131.986 149.995 131.449C150.285 130.903 150.682 130.481 151.185 130.182C151.697 129.883 152.264 129.734 152.887 129.734C153.501 129.734 154.034 129.866 154.486 130.131C154.938 130.395 155.275 130.728 155.497 131.129V129.849H156.674V136.861H155.497V135.556C155.266 135.965 154.921 136.306 154.46 136.579C154.008 136.844 153.479 136.976 152.874 136.976C152.251 136.976 151.688 136.822 151.185 136.515C150.682 136.208 150.285 135.778 149.995 135.223C149.705 134.669 149.56 134.037 149.56 133.33ZM155.497 133.342C155.497 132.813 155.39 132.353 155.177 131.96C154.964 131.568 154.674 131.27 154.307 131.065C153.949 130.852 153.552 130.745 153.117 130.745C152.682 130.745 152.285 130.847 151.927 131.052C151.569 131.257 151.283 131.555 151.07 131.948C150.857 132.34 150.75 132.801 150.75 133.33C150.75 133.867 150.857 134.336 151.07 134.737C151.283 135.129 151.569 135.432 151.927 135.645C152.285 135.85 152.682 135.952 153.117 135.952C153.552 135.952 153.949 135.85 154.307 135.645C154.674 135.432 154.964 135.129 155.177 134.737C155.39 134.336 155.497 133.871 155.497 133.342ZM162.058 129.721C162.911 129.721 163.601 129.982 164.13 130.502C164.659 131.014 164.924 131.756 164.924 132.728V136.861H163.772V132.895C163.772 132.195 163.597 131.662 163.247 131.295C162.898 130.92 162.42 130.732 161.814 130.732C161.2 130.732 160.71 130.924 160.343 131.308C159.985 131.692 159.806 132.251 159.806 132.984V136.861H158.641V129.849H159.806V130.847C160.036 130.489 160.347 130.212 160.74 130.016C161.141 129.82 161.58 129.721 162.058 129.721ZM166.39 133.33C166.39 132.613 166.535 131.986 166.825 131.449C167.115 130.903 167.512 130.481 168.015 130.182C168.527 129.883 169.099 129.734 169.73 129.734C170.276 129.734 170.783 129.862 171.252 130.118C171.722 130.365 172.08 130.694 172.327 131.103V127.393H173.504V136.861H172.327V135.543C172.097 135.961 171.756 136.306 171.304 136.579C170.852 136.844 170.323 136.976 169.717 136.976C169.094 136.976 168.527 136.822 168.015 136.515C167.512 136.208 167.115 135.778 166.825 135.223C166.535 134.669 166.39 134.037 166.39 133.33ZM172.327 133.342C172.327 132.813 172.221 132.353 172.007 131.96C171.794 131.568 171.504 131.27 171.137 131.065C170.779 130.852 170.382 130.745 169.947 130.745C169.512 130.745 169.116 130.847 168.757 131.052C168.399 131.257 168.113 131.555 167.9 131.948C167.687 132.34 167.58 132.801 167.58 133.33C167.58 133.867 167.687 134.336 167.9 134.737C168.113 135.129 168.399 135.432 168.757 135.645C169.116 135.85 169.512 135.952 169.947 135.952C170.382 135.952 170.779 135.85 171.137 135.645C171.504 135.432 171.794 135.129 172.007 134.737C172.221 134.336 172.327 133.871 172.327 133.342ZM178.448 133.33C178.448 132.613 178.593 131.986 178.883 131.449C179.173 130.903 179.57 130.481 180.073 130.182C180.585 129.883 181.152 129.734 181.775 129.734C182.389 129.734 182.922 129.866 183.374 130.131C183.826 130.395 184.163 130.728 184.385 131.129V129.849H185.562V136.861H184.385V135.556C184.154 135.965 183.809 136.306 183.348 136.579C182.896 136.844 182.367 136.976 181.762 136.976C181.139 136.976 180.576 136.822 180.073 136.515C179.57 136.208 179.173 135.778 178.883 135.223C178.593 134.669 178.448 134.037 178.448 133.33ZM184.385 133.342C184.385 132.813 184.278 132.353 184.065 131.96C183.852 131.568 183.561 131.27 183.195 131.065C182.836 130.852 182.44 130.745 182.005 130.745C181.57 130.745 181.173 130.847 180.815 131.052C180.457 131.257 180.171 131.555 179.958 131.948C179.744 132.34 179.638 132.801 179.638 133.33C179.638 133.867 179.744 134.336 179.958 134.737C180.171 135.129 180.457 135.432 180.815 135.645C181.173 135.85 181.57 135.952 182.005 135.952C182.44 135.952 182.836 135.85 183.195 135.645C183.561 135.432 183.852 135.129 184.065 134.737C184.278 134.336 184.385 133.871 184.385 133.342ZM190.011 136.976C189.474 136.976 188.992 136.886 188.566 136.707C188.139 136.52 187.802 136.264 187.555 135.94C187.308 135.607 187.171 135.227 187.145 134.801H188.348C188.382 135.151 188.544 135.436 188.834 135.658C189.133 135.88 189.521 135.991 189.999 135.991C190.442 135.991 190.792 135.893 191.048 135.697C191.304 135.5 191.432 135.253 191.432 134.954C191.432 134.647 191.295 134.421 191.022 134.276C190.749 134.123 190.327 133.974 189.756 133.829C189.235 133.692 188.809 133.556 188.476 133.419C188.152 133.274 187.87 133.065 187.632 132.792C187.401 132.511 187.286 132.144 187.286 131.692C187.286 131.334 187.393 131.005 187.606 130.707C187.819 130.408 188.122 130.174 188.514 130.003C188.907 129.824 189.355 129.734 189.858 129.734C190.634 129.734 191.261 129.93 191.739 130.323C192.216 130.715 192.472 131.253 192.506 131.935H191.342C191.317 131.568 191.167 131.274 190.894 131.052C190.63 130.83 190.272 130.719 189.82 130.719C189.402 130.719 189.069 130.809 188.822 130.988C188.574 131.167 188.451 131.402 188.451 131.692C188.451 131.922 188.523 132.114 188.668 132.268C188.822 132.413 189.009 132.532 189.231 132.626C189.461 132.711 189.777 132.809 190.178 132.92C190.681 133.057 191.09 133.193 191.406 133.33C191.722 133.457 191.99 133.654 192.212 133.918C192.442 134.182 192.562 134.528 192.57 134.954C192.57 135.338 192.464 135.684 192.251 135.991C192.037 136.298 191.734 136.541 191.342 136.72C190.958 136.891 190.515 136.976 190.011 136.976ZM196.696 136.976C196.159 136.976 195.677 136.886 195.25 136.707C194.824 136.52 194.487 136.264 194.24 135.94C193.992 135.607 193.856 135.227 193.83 134.801H195.033C195.067 135.151 195.229 135.436 195.519 135.658C195.818 135.88 196.206 135.991 196.683 135.991C197.127 135.991 197.477 135.893 197.733 135.697C197.988 135.5 198.116 135.253 198.116 134.954C198.116 134.647 197.98 134.421 197.707 134.276C197.434 134.123 197.012 133.974 196.44 133.829C195.92 133.692 195.493 133.556 195.161 133.419C194.837 133.274 194.555 133.065 194.316 132.792C194.086 132.511 193.971 132.144 193.971 131.692C193.971 131.334 194.078 131.005 194.291 130.707C194.504 130.408 194.807 130.174 195.199 130.003C195.592 129.824 196.039 129.734 196.543 129.734C197.319 129.734 197.946 129.93 198.423 130.323C198.901 130.715 199.157 131.253 199.191 131.935H198.027C198.001 131.568 197.852 131.274 197.579 131.052C197.315 130.83 196.956 130.719 196.504 130.719C196.086 130.719 195.754 130.809 195.506 130.988C195.259 131.167 195.135 131.402 195.135 131.692C195.135 131.922 195.208 132.114 195.353 132.268C195.506 132.413 195.694 132.532 195.916 132.626C196.146 132.711 196.462 132.809 196.862 132.92C197.366 133.057 197.775 133.193 198.091 133.33C198.406 133.457 198.675 133.654 198.897 133.918C199.127 134.182 199.247 134.528 199.255 134.954C199.255 135.338 199.148 135.684 198.935 135.991C198.722 136.298 198.419 136.541 198.027 136.72C197.643 136.891 197.199 136.976 196.696 136.976ZM201.5 128.711C201.278 128.711 201.091 128.634 200.937 128.48C200.784 128.327 200.707 128.139 200.707 127.917C200.707 127.696 200.784 127.508 200.937 127.354C201.091 127.201 201.278 127.124 201.5 127.124C201.713 127.124 201.892 127.201 202.037 127.354C202.191 127.508 202.268 127.696 202.268 127.917C202.268 128.139 202.191 128.327 202.037 128.48C201.892 128.634 201.713 128.711 201.5 128.711ZM202.063 129.849V136.861H200.899V129.849H202.063ZM206.939 129.734C207.545 129.734 208.073 129.866 208.526 130.131C208.986 130.395 209.327 130.728 209.549 131.129V129.849H210.726V137.014C210.726 137.654 210.59 138.221 210.317 138.716C210.044 139.219 209.651 139.612 209.14 139.893C208.636 140.175 208.048 140.315 207.374 140.315C206.453 140.315 205.685 140.098 205.071 139.663C204.457 139.228 204.094 138.635 203.983 137.884H205.135C205.263 138.311 205.527 138.652 205.928 138.908C206.329 139.172 206.811 139.305 207.374 139.305C208.014 139.305 208.534 139.104 208.935 138.703C209.344 138.302 209.549 137.739 209.549 137.014V135.543C209.319 135.952 208.978 136.294 208.526 136.567C208.073 136.84 207.545 136.976 206.939 136.976C206.316 136.976 205.749 136.822 205.237 136.515C204.734 136.208 204.337 135.778 204.047 135.223C203.757 134.669 203.612 134.037 203.612 133.33C203.612 132.613 203.757 131.986 204.047 131.449C204.337 130.903 204.734 130.481 205.237 130.182C205.749 129.883 206.316 129.734 206.939 129.734ZM209.549 133.342C209.549 132.813 209.442 132.353 209.229 131.96C209.016 131.568 208.726 131.27 208.359 131.065C208.001 130.852 207.604 130.745 207.169 130.745C206.734 130.745 206.338 130.847 205.979 131.052C205.621 131.257 205.335 131.555 205.122 131.948C204.909 132.34 204.802 132.801 204.802 133.33C204.802 133.867 204.909 134.336 205.122 134.737C205.335 135.129 205.621 135.432 205.979 135.645C206.338 135.85 206.734 135.952 207.169 135.952C207.604 135.952 208.001 135.85 208.359 135.645C208.726 135.432 209.016 135.129 209.229 134.737C209.442 134.336 209.549 133.871 209.549 133.342ZM216.11 129.721C216.963 129.721 217.654 129.982 218.183 130.502C218.712 131.014 218.976 131.756 218.976 132.728V136.861H217.824V132.895C217.824 132.195 217.65 131.662 217.3 131.295C216.95 130.92 216.472 130.732 215.867 130.732C215.253 130.732 214.762 130.924 214.395 131.308C214.037 131.692 213.858 132.251 213.858 132.984V136.861H212.694V129.849H213.858V130.847C214.088 130.489 214.4 130.212 214.792 130.016C215.193 129.82 215.632 129.721 216.11 129.721ZM224.89 128.711C224.668 128.711 224.481 128.634 224.327 128.48C224.174 128.327 224.097 128.139 224.097 127.917C224.097 127.696 224.174 127.508 224.327 127.354C224.481 127.201 224.668 127.124 224.89 127.124C225.104 127.124 225.283 127.201 225.428 127.354C225.581 127.508 225.658 127.696 225.658 127.917C225.658 128.139 225.581 128.327 225.428 128.48C225.283 128.634 225.104 128.711 224.89 128.711ZM225.453 129.849V136.861H224.289V129.849H225.453ZM228.858 130.809V134.942C228.858 135.283 228.93 135.526 229.075 135.671C229.22 135.807 229.472 135.876 229.83 135.876H230.687V136.861H229.638C228.99 136.861 228.504 136.712 228.18 136.413C227.856 136.114 227.693 135.624 227.693 134.942V130.809H226.785V129.849H227.693V128.084H228.858V129.849H230.687V130.809H228.858ZM236.929 130.809V134.942C236.929 135.283 237.002 135.526 237.147 135.671C237.292 135.807 237.544 135.876 237.902 135.876H238.759V136.861H237.71C237.062 136.861 236.575 136.712 236.251 136.413C235.927 136.114 235.765 135.624 235.765 134.942V130.809H234.857V129.849H235.765V128.084H236.929V129.849H238.759V130.809H236.929ZM243.228 136.976C242.571 136.976 241.974 136.827 241.436 136.528C240.908 136.23 240.49 135.807 240.183 135.262C239.884 134.707 239.735 134.067 239.735 133.342C239.735 132.626 239.888 131.995 240.195 131.449C240.511 130.894 240.937 130.472 241.475 130.182C242.012 129.883 242.614 129.734 243.279 129.734C243.944 129.734 244.546 129.883 245.083 130.182C245.62 130.472 246.043 130.89 246.35 131.436C246.665 131.982 246.823 132.617 246.823 133.342C246.823 134.067 246.661 134.707 246.337 135.262C246.021 135.807 245.59 136.23 245.045 136.528C244.499 136.827 243.893 136.976 243.228 136.976ZM243.228 135.952C243.646 135.952 244.038 135.854 244.405 135.658C244.772 135.462 245.066 135.168 245.288 134.775C245.518 134.383 245.633 133.905 245.633 133.342C245.633 132.779 245.522 132.302 245.3 131.909C245.079 131.517 244.789 131.227 244.43 131.039C244.072 130.843 243.684 130.745 243.266 130.745C242.84 130.745 242.447 130.843 242.089 131.039C241.739 131.227 241.458 131.517 241.245 131.909C241.031 132.302 240.925 132.779 240.925 133.342C240.925 133.914 241.027 134.396 241.232 134.788C241.445 135.18 241.726 135.475 242.076 135.671C242.426 135.859 242.81 135.952 243.228 135.952ZM254.823 136.976C254.166 136.976 253.569 136.827 253.032 136.528C252.503 136.23 252.085 135.807 251.778 135.262C251.479 134.707 251.33 134.067 251.33 133.342C251.33 132.626 251.483 131.995 251.791 131.449C252.106 130.894 252.533 130.472 253.07 130.182C253.607 129.883 254.209 129.734 254.874 129.734C255.539 129.734 256.141 129.883 256.678 130.182C257.215 130.472 257.638 130.89 257.945 131.436C258.26 131.982 258.418 132.617 258.418 133.342C258.418 134.067 258.256 134.707 257.932 135.262C257.616 135.807 257.186 136.23 256.64 136.528C256.094 136.827 255.488 136.976 254.823 136.976ZM254.823 135.952C255.241 135.952 255.633 135.854 256 135.658C256.367 135.462 256.661 135.168 256.883 134.775C257.113 134.383 257.228 133.905 257.228 133.342C257.228 132.779 257.117 132.302 256.896 131.909C256.674 131.517 256.384 131.227 256.026 131.039C255.667 130.843 255.279 130.745 254.861 130.745C254.435 130.745 254.042 130.843 253.684 131.039C253.334 131.227 253.053 131.517 252.84 131.909C252.626 132.302 252.52 132.779 252.52 133.342C252.52 133.914 252.622 134.396 252.827 134.788C253.04 135.18 253.322 135.475 253.671 135.671C254.021 135.859 254.405 135.952 254.823 135.952ZM263.365 129.721C264.218 129.721 264.909 129.982 265.438 130.502C265.967 131.014 266.231 131.756 266.231 132.728V136.861H265.08V132.895C265.08 132.195 264.905 131.662 264.555 131.295C264.205 130.92 263.728 130.732 263.122 130.732C262.508 130.732 262.017 130.924 261.651 131.308C261.292 131.692 261.113 132.251 261.113 132.984V136.861H259.949V129.849H261.113V130.847C261.344 130.489 261.655 130.212 262.047 130.016C262.448 129.82 262.887 129.721 263.365 129.721ZM274.53 133.086C274.53 133.308 274.518 133.543 274.492 133.79H268.888C268.931 134.481 269.165 135.023 269.592 135.415C270.027 135.799 270.551 135.991 271.165 135.991C271.669 135.991 272.087 135.876 272.419 135.645C272.76 135.407 272.999 135.091 273.136 134.699H274.39C274.202 135.372 273.827 135.923 273.264 136.349C272.701 136.767 272.001 136.976 271.165 136.976C270.5 136.976 269.903 136.827 269.374 136.528C268.854 136.23 268.444 135.807 268.146 135.262C267.847 134.707 267.698 134.067 267.698 133.342C267.698 132.617 267.843 131.982 268.133 131.436C268.423 130.89 268.828 130.472 269.349 130.182C269.877 129.883 270.483 129.734 271.165 129.734C271.831 129.734 272.419 129.879 272.931 130.169C273.443 130.459 273.835 130.86 274.108 131.372C274.39 131.875 274.53 132.447 274.53 133.086ZM273.328 132.843C273.328 132.4 273.23 132.02 273.033 131.705C272.837 131.38 272.569 131.137 272.227 130.975C271.895 130.805 271.524 130.719 271.114 130.719C270.526 130.719 270.022 130.907 269.604 131.282C269.195 131.658 268.96 132.178 268.901 132.843H273.328ZM282.536 136.976C281.879 136.976 281.282 136.827 280.745 136.528C280.216 136.23 279.798 135.807 279.491 135.262C279.193 134.707 279.043 134.067 279.043 133.342C279.043 132.626 279.197 131.995 279.504 131.449C279.82 130.894 280.246 130.472 280.783 130.182C281.321 129.883 281.922 129.734 282.587 129.734C283.253 129.734 283.854 129.883 284.391 130.182C284.929 130.472 285.351 130.89 285.658 131.436C285.974 131.982 286.132 132.617 286.132 133.342C286.132 134.067 285.969 134.707 285.645 135.262C285.33 135.807 284.899 136.23 284.353 136.528C283.807 136.827 283.202 136.976 282.536 136.976ZM282.536 135.952C282.954 135.952 283.347 135.854 283.713 135.658C284.08 135.462 284.374 135.168 284.596 134.775C284.826 134.383 284.942 133.905 284.942 133.342C284.942 132.779 284.831 132.302 284.609 131.909C284.387 131.517 284.097 131.227 283.739 131.039C283.381 130.843 282.993 130.745 282.575 130.745C282.148 130.745 281.756 130.843 281.398 131.039C281.048 131.227 280.766 131.517 280.553 131.909C280.34 132.302 280.233 132.779 280.233 133.342C280.233 133.914 280.336 134.396 280.54 134.788C280.754 135.18 281.035 135.475 281.385 135.671C281.734 135.859 282.118 135.952 282.536 135.952ZM290.516 130.809H289.044V136.861H287.88V130.809H286.971V129.849H287.88V129.35C287.88 128.566 288.08 127.994 288.481 127.636C288.891 127.269 289.543 127.086 290.439 127.086V128.058C289.927 128.058 289.565 128.16 289.351 128.365C289.147 128.561 289.044 128.89 289.044 129.35V129.849H290.516V130.809ZM296.449 127.393V136.861H295.284V127.393H296.449ZM299.034 128.711C298.812 128.711 298.625 128.634 298.471 128.48C298.318 128.327 298.241 128.139 298.241 127.917C298.241 127.696 298.318 127.508 298.471 127.354C298.625 127.201 298.812 127.124 299.034 127.124C299.247 127.124 299.427 127.201 299.572 127.354C299.725 127.508 299.802 127.696 299.802 127.917C299.802 128.139 299.725 128.327 299.572 128.48C299.427 128.634 299.247 128.711 299.034 128.711ZM299.597 129.849V136.861H298.433V129.849H299.597ZM304.998 129.721C305.851 129.721 306.542 129.982 307.07 130.502C307.599 131.014 307.864 131.756 307.864 132.728V136.861H306.712V132.895C306.712 132.195 306.537 131.662 306.188 131.295C305.838 130.92 305.36 130.732 304.755 130.732C304.14 130.732 303.65 130.924 303.283 131.308C302.925 131.692 302.746 132.251 302.746 132.984V136.861H301.582V129.849H302.746V130.847C302.976 130.489 303.288 130.212 303.68 130.016C304.081 129.82 304.52 129.721 304.998 129.721ZM313.681 136.861L310.93 133.765V136.861H309.766V127.393H310.93V132.958L313.63 129.849H315.255L311.954 133.342L315.267 136.861H313.681ZM322.748 133.086C322.748 133.308 322.735 133.543 322.709 133.79H317.105C317.148 134.481 317.382 135.023 317.809 135.415C318.244 135.799 318.769 135.991 319.383 135.991C319.886 135.991 320.304 135.876 320.637 135.645C320.978 135.407 321.217 135.091 321.353 134.699H322.607C322.419 135.372 322.044 135.923 321.481 136.349C320.918 136.767 320.219 136.976 319.383 136.976C318.717 136.976 318.12 136.827 317.591 136.528C317.071 136.23 316.662 135.807 316.363 135.262C316.065 134.707 315.915 134.067 315.915 133.342C315.915 132.617 316.06 131.982 316.35 131.436C316.64 130.89 317.046 130.472 317.566 130.182C318.095 129.883 318.7 129.734 319.383 129.734C320.048 129.734 320.637 129.879 321.148 130.169C321.66 130.459 322.053 130.86 322.325 131.372C322.607 131.875 322.748 132.447 322.748 133.086ZM321.545 132.843C321.545 132.4 321.447 132.02 321.251 131.705C321.055 131.38 320.786 131.137 320.445 130.975C320.112 130.805 319.741 130.719 319.332 130.719C318.743 130.719 318.24 130.907 317.822 131.282C317.412 131.658 317.178 132.178 317.118 132.843H321.545ZM323.85 133.33C323.85 132.613 323.995 131.986 324.285 131.449C324.575 130.903 324.971 130.481 325.474 130.182C325.986 129.883 326.558 129.734 327.189 129.734C327.735 129.734 328.242 129.862 328.712 130.118C329.181 130.365 329.539 130.694 329.786 131.103V127.393H330.963V136.861H329.786V135.543C329.556 135.961 329.215 136.306 328.763 136.579C328.311 136.844 327.782 136.976 327.176 136.976C326.553 136.976 325.986 136.822 325.474 136.515C324.971 136.208 324.575 135.778 324.285 135.223C323.995 134.669 323.85 134.037 323.85 133.33ZM329.786 133.342C329.786 132.813 329.68 132.353 329.466 131.96C329.253 131.568 328.963 131.27 328.596 131.065C328.238 130.852 327.841 130.745 327.406 130.745C326.971 130.745 326.575 130.847 326.217 131.052C325.858 131.257 325.573 131.555 325.359 131.948C325.146 132.34 325.039 132.801 325.039 133.33C325.039 133.867 325.146 134.336 325.359 134.737C325.573 135.129 325.858 135.432 326.217 135.645C326.575 135.85 326.971 135.952 327.406 135.952C327.841 135.952 328.238 135.85 328.596 135.645C328.963 135.432 329.253 135.129 329.466 134.737C329.68 134.336 329.786 133.871 329.786 133.342ZM339.822 129.721C340.351 129.721 340.829 129.837 341.255 130.067C341.682 130.289 342.014 130.626 342.253 131.078C342.501 131.53 342.624 132.08 342.624 132.728V136.861H341.473V132.895C341.473 132.195 341.298 131.662 340.948 131.295C340.598 130.92 340.121 130.732 339.515 130.732C338.901 130.732 338.41 130.924 338.044 131.308C337.685 131.692 337.506 132.251 337.506 132.984V136.861H336.342V127.393H337.506V130.847C337.737 130.489 338.052 130.212 338.453 130.016C338.863 129.82 339.319 129.721 339.822 129.721ZM347.584 136.976C346.927 136.976 346.33 136.827 345.793 136.528C345.264 136.23 344.846 135.807 344.539 135.262C344.24 134.707 344.091 134.067 344.091 133.342C344.091 132.626 344.245 131.995 344.552 131.449C344.867 130.894 345.294 130.472 345.831 130.182C346.369 129.883 346.97 129.734 347.635 129.734C348.301 129.734 348.902 129.883 349.439 130.182C349.977 130.472 350.399 130.89 350.706 131.436C351.021 131.982 351.179 132.617 351.179 133.342C351.179 134.067 351.017 134.707 350.693 135.262C350.377 135.807 349.947 136.23 349.401 136.528C348.855 136.827 348.249 136.976 347.584 136.976ZM347.584 135.952C348.002 135.952 348.394 135.854 348.761 135.658C349.128 135.462 349.422 135.168 349.644 134.775C349.874 134.383 349.989 133.905 349.989 133.342C349.989 132.779 349.879 132.302 349.657 131.909C349.435 131.517 349.145 131.227 348.787 131.039C348.428 130.843 348.04 130.745 347.622 130.745C347.196 130.745 346.804 130.843 346.445 131.039C346.096 131.227 345.814 131.517 345.601 131.909C345.388 132.302 345.281 132.779 345.281 133.342C345.281 133.914 345.383 134.396 345.588 134.788C345.801 135.18 346.083 135.475 346.432 135.671C346.782 135.859 347.166 135.952 347.584 135.952ZM354.13 130.809V134.942C354.13 135.283 354.203 135.526 354.348 135.671C354.493 135.807 354.745 135.876 355.103 135.876H355.96V136.861H354.911C354.263 136.861 353.776 136.712 353.452 136.413C353.128 136.114 352.966 135.624 352.966 134.942V130.809H352.058V129.849H352.966V128.084H354.13V129.849H355.96V130.809H354.13ZM363.768 133.086C363.768 133.308 363.755 133.543 363.73 133.79H358.126C358.168 134.481 358.403 135.023 358.829 135.415C359.264 135.799 359.789 135.991 360.403 135.991C360.906 135.991 361.324 135.876 361.657 135.645C361.998 135.407 362.237 135.091 362.373 134.699H363.627C363.44 135.372 363.064 135.923 362.501 136.349C361.938 136.767 361.239 136.976 360.403 136.976C359.738 136.976 359.141 136.827 358.612 136.528C358.091 136.23 357.682 135.807 357.384 135.262C357.085 134.707 356.936 134.067 356.936 133.342C356.936 132.617 357.081 131.982 357.371 131.436C357.661 130.89 358.066 130.472 358.586 130.182C359.115 129.883 359.721 129.734 360.403 129.734C361.068 129.734 361.657 129.879 362.169 130.169C362.68 130.459 363.073 130.86 363.346 131.372C363.627 131.875 363.768 132.447 363.768 133.086ZM362.565 132.843C362.565 132.4 362.467 132.02 362.271 131.705C362.075 131.38 361.806 131.137 361.465 130.975C361.132 130.805 360.761 130.719 360.352 130.719C359.763 130.719 359.26 130.907 358.842 131.282C358.433 131.658 358.198 132.178 358.138 132.843H362.565ZM366.469 127.393V136.861H365.305V127.393H366.469ZM370.936 136.976C370.398 136.976 369.916 136.886 369.49 136.707C369.063 136.52 368.727 136.264 368.479 135.94C368.232 135.607 368.095 135.227 368.07 134.801H369.272C369.307 135.151 369.469 135.436 369.759 135.658C370.057 135.88 370.445 135.991 370.923 135.991C371.366 135.991 371.716 135.893 371.972 135.697C372.228 135.5 372.356 135.253 372.356 134.954C372.356 134.647 372.219 134.421 371.947 134.276C371.674 134.123 371.251 133.974 370.68 133.829C370.16 133.692 369.733 133.556 369.4 133.419C369.076 133.274 368.795 133.065 368.556 132.792C368.326 132.511 368.21 132.144 368.21 131.692C368.21 131.334 368.317 131.005 368.53 130.707C368.744 130.408 369.046 130.174 369.439 130.003C369.831 129.824 370.279 129.734 370.782 129.734C371.558 129.734 372.185 129.93 372.663 130.323C373.141 130.715 373.397 131.253 373.431 131.935H372.266C372.241 131.568 372.092 131.274 371.819 131.052C371.554 130.83 371.196 130.719 370.744 130.719C370.326 130.719 369.993 130.809 369.746 130.988C369.498 131.167 369.375 131.402 369.375 131.692C369.375 131.922 369.447 132.114 369.592 132.268C369.746 132.413 369.933 132.532 370.155 132.626C370.386 132.711 370.701 132.809 371.102 132.92C371.605 133.057 372.015 133.193 372.33 133.33C372.646 133.457 372.915 133.654 373.136 133.918C373.367 134.182 373.486 134.528 373.495 134.954C373.495 135.338 373.388 135.684 373.175 135.991C372.962 136.298 372.659 136.541 372.266 136.72C371.883 136.891 371.439 136.976 370.936 136.976ZM375.509 136.938C375.288 136.938 375.1 136.861 374.946 136.707C374.793 136.554 374.716 136.366 374.716 136.144C374.716 135.923 374.793 135.735 374.946 135.581C375.1 135.428 375.288 135.351 375.509 135.351C375.723 135.351 375.902 135.428 376.047 135.581C376.2 135.735 376.277 135.923 376.277 136.144C376.277 136.366 376.2 136.554 376.047 136.707C375.902 136.861 375.723 136.938 375.509 136.938Z" fill="white"/>
<path d="M50.0667 68.5442H40.489L38.9536 73.0771H32.4101L41.6954 47.4147H48.9335L58.2187 73.0771H51.6021L50.0667 68.5442ZM48.4582 63.7188L45.2779 54.3239L42.134 63.7188H48.4582ZM59.8018 62.8414C59.8018 60.7455 60.1917 58.9056 60.9716 57.3215C61.7758 55.7374 62.8603 54.5188 64.2251 53.6658C65.5898 52.8129 67.113 52.3864 68.7946 52.3864C70.135 52.3864 71.3535 52.6666 72.4502 53.2272C73.5712 53.7877 74.4486 54.5432 75.0822 55.4936V46.0256H81.3333V73.0771H75.0822V70.1527C74.4973 71.1275 73.6565 71.9074 72.5599 72.4923C71.4875 73.0771 70.2325 73.3696 68.7946 73.3696C67.113 73.3696 65.5898 72.9431 64.2251 72.0901C62.8603 71.2128 61.7758 69.9821 60.9716 68.398C60.1917 66.7895 59.8018 64.9373 59.8018 62.8414ZM75.0822 62.878C75.0822 61.3183 74.6436 60.0875 73.7662 59.1858C72.9132 58.2841 71.8653 57.8332 70.6224 57.8332C69.3795 57.8332 68.3194 58.2841 67.442 59.1858C66.589 60.0632 66.1625 61.2817 66.1625 62.8414C66.1625 64.4012 66.589 65.6441 67.442 66.5702C68.3194 67.4719 69.3795 67.9227 70.6224 67.9227C71.8653 67.9227 72.9132 67.4719 73.7662 66.5702C74.6436 65.6684 75.0822 64.4377 75.0822 62.878ZM84.6128 62.8414C84.6128 60.7455 85.0027 58.9056 85.7826 57.3215C86.5868 55.7374 87.6713 54.5188 89.0361 53.6658C90.4009 52.8129 91.924 52.3864 93.6056 52.3864C94.946 52.3864 96.1646 52.6666 97.2612 53.2272C98.3823 53.7877 99.2596 54.5432 99.8933 55.4936V46.0256H106.144V73.0771H99.8933V70.1527C99.3084 71.1275 98.4676 71.9074 97.3709 72.4923C96.2986 73.0771 95.0435 73.3696 93.6056 73.3696C91.924 73.3696 90.4009 72.9431 89.0361 72.0901C87.6713 71.2128 86.5868 69.9821 85.7826 68.398C85.0027 66.7895 84.6128 64.9373 84.6128 62.8414ZM99.8933 62.878C99.8933 61.3183 99.4546 60.0875 98.5773 59.1858C97.7243 58.2841 96.6763 57.8332 95.4334 57.8332C94.1905 57.8332 93.1304 58.2841 92.253 59.1858C91.4001 60.0632 90.9736 61.2817 90.9736 62.8414C90.9736 64.4012 91.4001 65.6441 92.253 66.5702C93.1304 67.4719 94.1905 67.9227 95.4334 67.9227C96.6763 67.9227 97.7243 67.4719 98.5773 66.5702C99.4546 65.6684 99.8933 64.4377 99.8933 62.878ZM57.0489 114.077H50.7978L40.3428 98.2483V114.077H34.0917V88.4147H40.3428L50.7978 104.317V88.4147H57.0489V114.077ZM80.8087 103.549C80.8087 104.134 80.7721 104.743 80.699 105.377H66.5518C66.6493 106.644 67.0514 107.619 67.7582 108.301C68.4893 108.959 69.3788 109.288 70.4268 109.288C71.9865 109.288 73.071 108.63 73.6802 107.314H80.3335C79.9923 108.655 79.3708 109.861 78.4691 110.933C77.5918 112.006 76.4829 112.846 75.1425 113.456C73.8021 114.065 72.3033 114.37 70.6461 114.37C68.6477 114.37 66.8686 113.943 65.3089 113.09C63.7492 112.237 62.5306 111.019 61.6533 109.435C60.7759 107.85 60.3373 105.998 60.3373 103.878C60.3373 101.758 60.7638 99.9056 61.6167 98.3215C62.4941 96.7374 63.7126 95.5188 65.2723 94.6658C66.8321 93.8129 68.6233 93.3864 70.6461 93.3864C72.6201 93.3864 74.3748 93.8007 75.9102 94.6293C77.4455 95.4579 78.6397 96.6399 79.4927 98.1752C80.37 99.7106 80.8087 101.502 80.8087 103.549ZM74.4114 101.904C74.4114 100.832 74.0458 99.9787 73.3147 99.345C72.5836 98.7114 71.6697 98.3946 70.573 98.3946C69.525 98.3946 68.6355 98.6992 67.9044 99.3085C67.1976 99.9177 66.759 100.783 66.5884 101.904H74.4114ZM113.388 93.6788L107.868 114.077H100.959L97.7419 100.844L94.4153 114.077H87.5427L81.9862 93.6788H88.2373L91.1252 108.265L94.5615 93.6788H101.178L104.651 108.192L107.502 93.6788H113.388ZM133.133 88.4147C135.838 88.4147 138.202 88.9509 140.225 90.0232C142.247 91.0955 143.807 92.6065 144.904 94.5562C146.025 96.4815 146.585 98.7114 146.585 101.246C146.585 103.756 146.025 105.986 144.904 107.936C143.807 109.885 142.235 111.396 140.188 112.469C138.165 113.541 135.814 114.077 133.133 114.077H123.519V88.4147H133.133ZM132.731 108.667C135.095 108.667 136.935 108.021 138.251 106.729C139.567 105.438 140.225 103.61 140.225 101.246C140.225 98.882 139.567 97.042 138.251 95.726C136.935 94.4099 135.095 93.7519 132.731 93.7519H129.77V108.667H132.731ZM169.307 103.549C169.307 104.134 169.271 104.743 169.198 105.377H155.05C155.148 106.644 155.55 107.619 156.257 108.301C156.988 108.959 157.877 109.288 158.925 109.288C160.485 109.288 161.57 108.63 162.179 107.314H168.832C168.491 108.655 167.87 109.861 166.968 110.933C166.09 112.006 164.982 112.846 163.641 113.456C162.301 114.065 160.802 114.37 159.145 114.37C157.146 114.37 155.367 113.943 153.808 113.09C152.248 112.237 151.029 111.019 150.152 109.435C149.275 107.85 148.836 105.998 148.836 103.878C148.836 101.758 149.262 99.9056 150.115 98.3215C150.993 96.7374 152.211 95.5188 153.771 94.6658C155.331 93.8129 157.122 93.3864 159.145 93.3864C161.119 93.3864 162.873 93.8007 164.409 94.6293C165.944 95.4579 167.138 96.6399 167.991 98.1752C168.869 99.7106 169.307 101.502 169.307 103.549ZM162.91 101.904C162.91 100.832 162.544 99.9787 161.813 99.345C161.082 98.7114 160.168 98.3946 159.072 98.3946C158.024 98.3946 157.134 98.6992 156.403 99.3085C155.696 99.9177 155.258 100.783 155.087 101.904H162.91ZM181.781 108.228L186.204 93.6788H192.857L185.619 114.077H177.906L170.668 93.6788H177.357L181.781 108.228ZM198.632 91.5586C197.536 91.5586 196.634 91.2418 195.927 90.6081C195.245 89.9501 194.904 89.1459 194.904 88.1954C194.904 87.2206 195.245 86.4163 195.927 85.7827C196.634 85.1247 197.536 84.7957 198.632 84.7957C199.705 84.7957 200.582 85.1247 201.264 85.7827C201.971 86.4163 202.324 87.2206 202.324 88.1954C202.324 89.1459 201.971 89.9501 201.264 90.6081C200.582 91.2418 199.705 91.5586 198.632 91.5586ZM201.74 93.6788V114.077H195.488V93.6788H201.74ZM205.027 103.878C205.027 101.758 205.453 99.9056 206.306 98.3215C207.184 96.7374 208.39 95.5188 209.925 94.6658C211.485 93.8129 213.264 93.3864 215.262 93.3864C217.821 93.3864 219.954 94.0566 221.66 95.397C223.39 96.7374 224.523 98.6261 225.059 101.063H218.406C217.846 99.5034 216.761 98.7236 215.153 98.7236C214.007 98.7236 213.093 99.1744 212.411 100.076C211.729 100.953 211.387 102.221 211.387 103.878C211.387 105.535 211.729 106.815 212.411 107.716C213.093 108.594 214.007 109.032 215.153 109.032C216.761 109.032 217.846 108.253 218.406 106.693H225.059C224.523 109.081 223.39 110.958 221.66 112.322C219.929 113.687 217.797 114.37 215.262 114.37C213.264 114.37 211.485 113.943 209.925 113.09C208.39 112.237 207.184 111.019 206.306 109.435C205.453 107.85 205.027 105.998 205.027 103.878ZM247.632 103.549C247.632 104.134 247.595 104.743 247.522 105.377H233.375C233.472 106.644 233.874 107.619 234.581 108.301C235.312 108.959 236.202 109.288 237.25 109.288C238.81 109.288 239.894 108.63 240.503 107.314H247.157C246.815 108.655 246.194 109.861 245.292 110.933C244.415 112.006 243.306 112.846 241.966 113.456C240.625 114.065 239.126 114.37 237.469 114.37C235.471 114.37 233.692 113.943 232.132 113.09C230.572 112.237 229.354 111.019 228.476 109.435C227.599 107.85 227.16 105.998 227.16 103.878C227.16 101.758 227.587 99.9056 228.44 98.3215C229.317 96.7374 230.536 95.5188 232.095 94.6658C233.655 93.8129 235.446 93.3864 237.469 93.3864C239.443 93.3864 241.198 93.8007 242.733 94.6293C244.269 95.4579 245.463 96.6399 246.316 98.1752C247.193 99.7106 247.632 101.502 247.632 103.549ZM241.234 101.904C241.234 100.832 240.869 99.9787 240.138 99.345C239.407 98.7114 238.493 98.3946 237.396 98.3946C236.348 98.3946 235.459 98.6992 234.727 99.3085C234.021 99.9177 233.582 100.783 233.411 101.904H241.234Z" fill="white"/>
<path d="M533.334 18.2212L547.577 32.4643M533.334 32.4643L547.577 18.2212" stroke="white" stroke-width="1.17874" stroke-linecap="round" stroke-linejoin="round"/>
</g>
</g>
<defs>
<filter id="filter0_bd_1_15140" x="-72.8514" y="-72.8514" width="709.713" height="342.731" filterUnits="userSpaceOnUse" color-interpolation-filters="sRGB">
<feFlood flood-opacity="0" result="BackgroundImageFix"/>
<feGaussianBlur in="BackgroundImageFix" stdDeviation="36.4257"/>
<feComposite in2="SourceAlpha" operator="in" result="effect1_backgroundBlur_1_15140"/>
<feColorMatrix in="SourceAlpha" type="matrix" values="0 0 0 0 0 0 0 0 0 0 0 0 0 0 0 0 0 0 127 0" result="hardAlpha"/>
<feOffset dy="1.7625"/>
<feGaussianBlur stdDeviation="2.35004"/>
<feComposite in2="hardAlpha" operator="out"/>
<feColorMatrix type="matrix" values="0 0 0 0 0 0 0 0 0 0 0 0 0 0 0 0 0 0 0.25 0"/>
<feBlend mode="normal" in2="effect1_backgroundBlur_1_15140" result="effect2_dropShadow_1_15140"/>
<feBlend mode="normal" in="SourceGraphic" in2="effect2_dropShadow_1_15140" result="shape"/>
</filter>
<linearGradient id="paint0_linear_1_15140" x1="163.026" y1="0" x2="163.026" y2="281.262" gradientUnits="userSpaceOnUse">
<stop stop-color="#2B3A8A"/>
<stop offset="0.244792" stop-color="#2B3E76"/>
<stop offset="0.489583" stop-color="#2B416A"/>
<stop offset="0.75" stop-color="#212E46"/>
<stop offset="1" stop-color="#1A2231"/>
</linearGradient>
<clipPath id="clip0_1_15140">
<rect width="564.011" height="197.028" rx="6.01611" fill="white"/>
</clipPath>
</defs>
</svg>
