            <svg width="20" height="20" viewBox="0 0 25 25" fill="none" xmlns="http://www.w3.org/2000/svg">
                <path d="M12.3183 1.6753C15.6634 1.6753 18.9417 1.95699 22.1326 2.49852C22.7798 2.60779 23.246 3.1736 23.246 3.82927V5.09688C23.246 5.45564 23.1753 5.81089 23.0381 6.14234C22.9008 6.4738 22.6995 6.77496 22.4459 7.02865L15.8504 13.6241C15.5967 13.8778 15.3955 14.179 15.2582 14.5104C15.1209 14.8419 15.0502 15.1971 15.0502 15.5559V19.1098C15.0503 19.6173 14.9091 20.1148 14.6423 20.5465C14.3755 20.9782 13.9937 21.3271 13.5398 21.554L9.58639 23.5307V15.5559C9.58639 15.1971 9.51573 14.8419 9.37844 14.5104C9.24115 14.179 9.03992 13.8778 8.78624 13.6241L2.19077 7.02865C1.93709 6.77496 1.73586 6.4738 1.59857 6.14234C1.46128 5.81089 1.39062 5.45564 1.39063 5.09688V3.82927C1.39063 3.1736 1.85687 2.60779 2.50404 2.49852C5.74661 1.94952 9.0296 1.67415 12.3183 1.6753Z" stroke="#667085" stroke-width="2.18554" stroke-linecap="round" stroke-linejoin="round"/>
                </svg>