<svg width="24" height="25" viewBox="0 0 24 25" fill="none" xmlns="http://www.w3.org/2000/svg">
<mask id="path-1-outside-1_692_5454" maskUnits="userSpaceOnUse" x="-0.1875" y="0.115723" width="25" height="25" fill="black">
<rect fill="white" x="-0.1875" y="0.115723" width="25" height="25"/>
<path d="M20.8896 12.1489C21.269 12.1489 21.5777 11.8402 21.5777 11.4608V11.1383H23.5096C23.6415 11.1383 23.7486 11.0312 23.7486 10.8993C23.7486 10.7674 23.6415 10.6604 23.5096 10.6604H21.5777V10.3383C21.5777 9.9589 21.269 9.65021 20.8896 9.65021H20.3993V8.78099H20.8896C21.269 8.78099 21.5777 8.4723 21.5777 8.09288V7.77033H23.5096C23.6415 7.77033 23.7486 7.66329 23.7486 7.5314C23.7486 7.39951 23.6415 7.29247 23.5096 7.29247H21.5777V6.96992C21.5777 6.59051 21.269 6.28181 20.8896 6.28181H20.3993V5.60373C20.3993 4.97631 19.8894 4.46644 19.262 4.46644H18.5834V3.97473C18.5834 3.59531 18.2747 3.28662 17.8953 3.28662H17.5728V1.35465C17.5728 1.22276 17.4657 1.11572 17.3339 1.11572C17.202 1.11572 17.0949 1.22276 17.0949 1.35465V3.28662H16.7724C16.393 3.28662 16.0843 3.59531 16.0843 3.97473V4.46548H15.2146V3.97473C15.2146 3.59531 14.9059 3.28662 14.5269 3.28662H14.2044V1.35465C14.2044 1.22276 14.0973 1.11572 13.9655 1.11572C13.8336 1.11572 13.7265 1.22276 13.7265 1.35465V3.28662H13.4035C13.0241 3.28662 12.7159 3.59531 12.7159 3.97473V4.46548H11.8462V3.97473C11.8462 3.59531 11.5375 3.28662 11.1581 3.28662H10.8355V1.35465C10.8355 1.22276 10.7285 1.11572 10.5966 1.11572C10.4647 1.11572 10.3576 1.22276 10.3576 1.35465V3.28662H10.0356C9.65616 3.28662 9.34746 3.59531 9.34746 3.97473V4.46548H8.47825V3.97473C8.47825 3.59531 8.16955 3.28662 7.79014 3.28662H7.46758V1.35465C7.46758 1.22276 7.36054 1.11572 7.22866 1.11572C7.09677 1.11572 6.98973 1.22276 6.98973 1.35465V3.28662H6.66718C6.28776 3.28662 5.97907 3.59531 5.97907 3.97473V4.46548H5.30051C4.67309 4.46548 4.16322 4.97536 4.16322 5.60278V6.28086H3.67151C3.29209 6.28086 2.98339 6.58955 2.98339 6.96897V7.29152H1.05143C0.919539 7.29152 0.8125 7.39856 0.8125 7.53045C0.8125 7.66233 0.919539 7.76937 1.05143 7.76937H2.98339V8.09193C2.98339 8.47134 3.29209 8.78004 3.67151 8.78004H4.16178V9.64925H3.67151C3.29209 9.64925 2.98339 9.95795 2.98339 10.3374V10.6599H1.05143C0.919539 10.6599 0.8125 10.767 0.8125 10.8988C0.8125 11.0307 0.919539 11.1378 1.05143 11.1378H2.98339V11.4603C2.98339 11.8397 3.29209 12.1484 3.67151 12.1484H4.16178V13.0181H3.67151C3.29209 13.0181 2.98339 13.3268 2.98339 13.7058V14.0288H1.05143C0.919539 14.0288 0.8125 14.1358 0.8125 14.2677C0.8125 14.3996 0.919539 14.5066 1.05143 14.5066H2.98339V14.8287C2.98339 15.2081 3.29209 15.5164 3.67151 15.5164H4.16178V16.3861H3.67151C3.29209 16.3861 2.98339 16.6947 2.98339 17.0742V17.3967H1.05143C0.919539 17.3967 0.8125 17.5038 0.8125 17.6356C0.8125 17.7675 0.919539 17.8746 1.05143 17.8746H2.98339V18.1971C2.98339 18.5765 3.29209 18.8852 3.67151 18.8852H4.16178V19.5633C4.16178 20.1907 4.67166 20.7006 5.29908 20.7006H5.97763V21.1914C5.97763 21.5708 6.28633 21.8795 6.66574 21.8795H6.9883V23.8114C6.9883 23.9433 7.09533 24.0504 7.22722 24.0504C7.35911 24.0504 7.46615 23.9433 7.46615 23.8114V21.8795H7.7887C8.16812 21.8795 8.47681 21.5708 8.47681 21.1914V20.7006H9.34603V21.1914C9.34603 21.5708 9.65473 21.8795 10.0341 21.8795H10.3567V23.8114C10.3567 23.9433 10.4637 24.0504 10.5956 24.0504C10.7275 24.0504 10.8345 23.9433 10.8345 23.8114V21.8795H11.1571C11.5365 21.8795 11.8452 21.5708 11.8452 21.1914V20.7006H12.7149V21.1914C12.7149 21.5708 13.0236 21.8795 13.4025 21.8795H13.7256V23.8114C13.7256 23.9433 13.8326 24.0504 13.9645 24.0504C14.0964 24.0504 14.2034 23.9433 14.2034 23.8114V21.8795H14.5255C14.9049 21.8795 15.2131 21.5708 15.2131 21.1914V20.7006H16.0828V21.1914C16.0828 21.5708 16.3915 21.8795 16.7709 21.8795H17.0935V23.8114C17.0935 23.9433 17.2005 24.0504 17.3324 24.0504C17.4643 24.0504 17.5713 23.9433 17.5713 23.8114V21.8795H17.8939C18.2733 21.8795 18.582 21.5708 18.582 21.1914V20.7006H19.2606C19.888 20.7006 20.3979 20.1907 20.3979 19.5633V18.8852H20.8881C21.2676 18.8852 21.5762 18.5765 21.5762 18.1971V17.8746H23.5082C23.6401 17.8746 23.7471 17.7675 23.7471 17.6356C23.7471 17.5038 23.6401 17.3967 23.5082 17.3967H21.5762V17.0756C21.5762 16.6962 21.2676 16.3875 20.8881 16.3875H20.3979V15.5178H20.8881C21.2676 15.5178 21.5762 15.2091 21.5762 14.8302V14.5076H23.5082C23.6401 14.5076 23.7471 14.4006 23.7471 14.2687C23.7471 14.1368 23.6401 14.0297 23.5082 14.0297H21.5762V13.7067C21.5762 13.3273 21.2676 13.0191 20.8881 13.0191H20.3979V12.1494L20.8896 12.1489ZM20.8896 10.1276C21.0057 10.1276 21.0998 10.2222 21.0998 10.3378V11.4603C21.0998 11.5764 21.0057 11.6706 20.8896 11.6706H20.3993V10.1276H20.8896ZM20.8896 6.75919C21.0057 6.75919 21.0998 6.8538 21.0998 6.96944V8.0924C21.0998 8.20852 21.0057 8.30266 20.8896 8.30266H20.3993V6.75919H20.8896ZM16.5621 3.97473C16.5621 3.85861 16.6563 3.76447 16.7724 3.76447H17.8949C18.011 3.76447 18.1051 3.85861 18.1051 3.97473V4.46548H16.5621V3.97473ZM13.1932 3.97473C13.1932 3.85861 13.2874 3.76447 13.403 3.76447H14.5265C14.6421 3.76447 14.7362 3.85861 14.7362 3.97473V4.46548H13.1932V3.97473ZM9.82436 3.97473C9.82436 3.85861 9.91898 3.76447 10.0346 3.76447H11.1571C11.2732 3.76447 11.3674 3.85861 11.3674 3.97473V4.46548H9.82436V3.97473ZM6.45596 3.97473C6.45596 3.85861 6.55058 3.76447 6.66622 3.76447H7.78918C7.9053 3.76447 7.99944 3.85861 7.99944 3.97473V4.46548H6.45596V3.97473ZM3.67151 8.30218C3.55539 8.30218 3.46125 8.20757 3.46125 8.09193V6.96944C3.46125 6.85333 3.55539 6.75919 3.67151 6.75919H4.16178V8.30218H3.67151ZM3.67151 11.6711C3.55539 11.6711 3.46125 11.5764 3.46125 11.4608V10.3378C3.46125 10.2217 3.55539 10.1276 3.67151 10.1276H4.16178V11.6711H3.67151ZM3.67151 15.0395C3.55539 15.0395 3.46125 14.9453 3.46125 14.8297V13.7067C3.46125 13.5911 3.55539 13.4969 3.67151 13.4969H4.16178V15.0399L3.67151 15.0395ZM3.67151 18.4083C3.55539 18.4083 3.46125 18.3142 3.46125 18.1981V17.0751C3.46125 16.959 3.55539 16.8649 3.67151 16.8649H4.16178V18.4083H3.67151ZM7.99896 21.1928C7.99896 21.3089 7.90434 21.403 7.7887 21.403H6.66622C6.5501 21.403 6.45596 21.3089 6.45596 21.1928V20.702H7.99896V21.1928ZM11.3678 21.1928C11.3678 21.3089 11.2732 21.403 11.1576 21.403H10.0346C9.9185 21.403 9.82436 21.3089 9.82436 21.1928V20.702H11.3678V21.1928ZM14.7362 21.1928C14.7362 21.3089 14.6421 21.403 14.5265 21.403H13.4035C13.2879 21.403 13.1937 21.3089 13.1937 21.1928V20.702H14.7367L14.7362 21.1928ZM18.1051 21.1928C18.1051 21.3089 18.011 21.403 17.8949 21.403H16.7719C16.6558 21.403 16.5616 21.3089 16.5616 21.1928V20.702H18.1051V21.1928ZM19.921 19.5643C19.921 19.9279 19.6252 20.2237 19.2615 20.2237H5.29956C4.93591 20.2237 4.64012 19.9279 4.64012 19.5643V18.6482C4.64012 18.6482 4.64012 18.6477 4.64012 18.6473C4.64012 18.6468 4.64012 18.6463 4.64012 18.6463V16.6264C4.64012 16.6264 4.64012 16.6259 4.64012 16.6255C4.64012 16.625 4.64012 16.6245 4.64012 16.6245V15.2789C4.64012 15.2789 4.64012 15.2784 4.64012 15.2779C4.64012 15.2774 4.64012 15.2769 4.64012 15.2769V13.258C4.64012 13.258 4.64012 13.2575 4.64012 13.2571C4.64012 13.2566 4.64012 13.2561 4.64012 13.2561V11.9105C4.64012 11.91 4.64012 11.91 4.64012 11.9095C4.64012 11.909 4.64012 11.909 4.64012 11.9086V9.88914C4.64012 9.88866 4.64012 9.88866 4.64012 9.88818C4.64012 9.8877 4.64012 9.8877 4.64012 9.88723V8.54254C4.64012 8.54206 4.64012 8.54206 4.64012 8.54159C4.64012 8.54111 4.64012 8.54111 4.64012 8.54063V6.52169C4.64012 6.52122 4.64012 6.52122 4.64012 6.52074C4.64012 6.52026 4.64012 6.52026 4.64012 6.51978V5.60373C4.64012 5.24009 4.93591 4.94429 5.29956 4.94429H19.262C19.6256 4.94429 19.9214 5.24009 19.9214 5.60373V19.5643H19.921ZM20.8896 16.8653C21.0057 16.8653 21.0998 16.9595 21.0998 17.0756V18.1981C21.0998 18.3142 21.0057 18.4083 20.8896 18.4083H20.3993V16.8653H20.8896ZM20.8896 13.4965C21.0057 13.4965 21.0998 13.5906 21.0998 13.7062V14.8297C21.0998 14.9453 21.0057 15.0395 20.8896 15.0395H20.3993V13.4965H20.8896Z"/>
</mask>
<path d="M20.8896 12.1489C21.269 12.1489 21.5777 11.8402 21.5777 11.4608V11.1383H23.5096C23.6415 11.1383 23.7486 11.0312 23.7486 10.8993C23.7486 10.7674 23.6415 10.6604 23.5096 10.6604H21.5777V10.3383C21.5777 9.9589 21.269 9.65021 20.8896 9.65021H20.3993V8.78099H20.8896C21.269 8.78099 21.5777 8.4723 21.5777 8.09288V7.77033H23.5096C23.6415 7.77033 23.7486 7.66329 23.7486 7.5314C23.7486 7.39951 23.6415 7.29247 23.5096 7.29247H21.5777V6.96992C21.5777 6.59051 21.269 6.28181 20.8896 6.28181H20.3993V5.60373C20.3993 4.97631 19.8894 4.46644 19.262 4.46644H18.5834V3.97473C18.5834 3.59531 18.2747 3.28662 17.8953 3.28662H17.5728V1.35465C17.5728 1.22276 17.4657 1.11572 17.3339 1.11572C17.202 1.11572 17.0949 1.22276 17.0949 1.35465V3.28662H16.7724C16.393 3.28662 16.0843 3.59531 16.0843 3.97473V4.46548H15.2146V3.97473C15.2146 3.59531 14.9059 3.28662 14.5269 3.28662H14.2044V1.35465C14.2044 1.22276 14.0973 1.11572 13.9655 1.11572C13.8336 1.11572 13.7265 1.22276 13.7265 1.35465V3.28662H13.4035C13.0241 3.28662 12.7159 3.59531 12.7159 3.97473V4.46548H11.8462V3.97473C11.8462 3.59531 11.5375 3.28662 11.1581 3.28662H10.8355V1.35465C10.8355 1.22276 10.7285 1.11572 10.5966 1.11572C10.4647 1.11572 10.3576 1.22276 10.3576 1.35465V3.28662H10.0356C9.65616 3.28662 9.34746 3.59531 9.34746 3.97473V4.46548H8.47825V3.97473C8.47825 3.59531 8.16955 3.28662 7.79014 3.28662H7.46758V1.35465C7.46758 1.22276 7.36054 1.11572 7.22866 1.11572C7.09677 1.11572 6.98973 1.22276 6.98973 1.35465V3.28662H6.66718C6.28776 3.28662 5.97907 3.59531 5.97907 3.97473V4.46548H5.30051C4.67309 4.46548 4.16322 4.97536 4.16322 5.60278V6.28086H3.67151C3.29209 6.28086 2.98339 6.58955 2.98339 6.96897V7.29152H1.05143C0.919539 7.29152 0.8125 7.39856 0.8125 7.53045C0.8125 7.66233 0.919539 7.76937 1.05143 7.76937H2.98339V8.09193C2.98339 8.47134 3.29209 8.78004 3.67151 8.78004H4.16178V9.64925H3.67151C3.29209 9.64925 2.98339 9.95795 2.98339 10.3374V10.6599H1.05143C0.919539 10.6599 0.8125 10.767 0.8125 10.8988C0.8125 11.0307 0.919539 11.1378 1.05143 11.1378H2.98339V11.4603C2.98339 11.8397 3.29209 12.1484 3.67151 12.1484H4.16178V13.0181H3.67151C3.29209 13.0181 2.98339 13.3268 2.98339 13.7058V14.0288H1.05143C0.919539 14.0288 0.8125 14.1358 0.8125 14.2677C0.8125 14.3996 0.919539 14.5066 1.05143 14.5066H2.98339V14.8287C2.98339 15.2081 3.29209 15.5164 3.67151 15.5164H4.16178V16.3861H3.67151C3.29209 16.3861 2.98339 16.6947 2.98339 17.0742V17.3967H1.05143C0.919539 17.3967 0.8125 17.5038 0.8125 17.6356C0.8125 17.7675 0.919539 17.8746 1.05143 17.8746H2.98339V18.1971C2.98339 18.5765 3.29209 18.8852 3.67151 18.8852H4.16178V19.5633C4.16178 20.1907 4.67166 20.7006 5.29908 20.7006H5.97763V21.1914C5.97763 21.5708 6.28633 21.8795 6.66574 21.8795H6.9883V23.8114C6.9883 23.9433 7.09533 24.0504 7.22722 24.0504C7.35911 24.0504 7.46615 23.9433 7.46615 23.8114V21.8795H7.7887C8.16812 21.8795 8.47681 21.5708 8.47681 21.1914V20.7006H9.34603V21.1914C9.34603 21.5708 9.65473 21.8795 10.0341 21.8795H10.3567V23.8114C10.3567 23.9433 10.4637 24.0504 10.5956 24.0504C10.7275 24.0504 10.8345 23.9433 10.8345 23.8114V21.8795H11.1571C11.5365 21.8795 11.8452 21.5708 11.8452 21.1914V20.7006H12.7149V21.1914C12.7149 21.5708 13.0236 21.8795 13.4025 21.8795H13.7256V23.8114C13.7256 23.9433 13.8326 24.0504 13.9645 24.0504C14.0964 24.0504 14.2034 23.9433 14.2034 23.8114V21.8795H14.5255C14.9049 21.8795 15.2131 21.5708 15.2131 21.1914V20.7006H16.0828V21.1914C16.0828 21.5708 16.3915 21.8795 16.7709 21.8795H17.0935V23.8114C17.0935 23.9433 17.2005 24.0504 17.3324 24.0504C17.4643 24.0504 17.5713 23.9433 17.5713 23.8114V21.8795H17.8939C18.2733 21.8795 18.582 21.5708 18.582 21.1914V20.7006H19.2606C19.888 20.7006 20.3979 20.1907 20.3979 19.5633V18.8852H20.8881C21.2676 18.8852 21.5762 18.5765 21.5762 18.1971V17.8746H23.5082C23.6401 17.8746 23.7471 17.7675 23.7471 17.6356C23.7471 17.5038 23.6401 17.3967 23.5082 17.3967H21.5762V17.0756C21.5762 16.6962 21.2676 16.3875 20.8881 16.3875H20.3979V15.5178H20.8881C21.2676 15.5178 21.5762 15.2091 21.5762 14.8302V14.5076H23.5082C23.6401 14.5076 23.7471 14.4006 23.7471 14.2687C23.7471 14.1368 23.6401 14.0297 23.5082 14.0297H21.5762V13.7067C21.5762 13.3273 21.2676 13.0191 20.8881 13.0191H20.3979V12.1494L20.8896 12.1489ZM20.8896 10.1276C21.0057 10.1276 21.0998 10.2222 21.0998 10.3378V11.4603C21.0998 11.5764 21.0057 11.6706 20.8896 11.6706H20.3993V10.1276H20.8896ZM20.8896 6.75919C21.0057 6.75919 21.0998 6.8538 21.0998 6.96944V8.0924C21.0998 8.20852 21.0057 8.30266 20.8896 8.30266H20.3993V6.75919H20.8896ZM16.5621 3.97473C16.5621 3.85861 16.6563 3.76447 16.7724 3.76447H17.8949C18.011 3.76447 18.1051 3.85861 18.1051 3.97473V4.46548H16.5621V3.97473ZM13.1932 3.97473C13.1932 3.85861 13.2874 3.76447 13.403 3.76447H14.5265C14.6421 3.76447 14.7362 3.85861 14.7362 3.97473V4.46548H13.1932V3.97473ZM9.82436 3.97473C9.82436 3.85861 9.91898 3.76447 10.0346 3.76447H11.1571C11.2732 3.76447 11.3674 3.85861 11.3674 3.97473V4.46548H9.82436V3.97473ZM6.45596 3.97473C6.45596 3.85861 6.55058 3.76447 6.66622 3.76447H7.78918C7.9053 3.76447 7.99944 3.85861 7.99944 3.97473V4.46548H6.45596V3.97473ZM3.67151 8.30218C3.55539 8.30218 3.46125 8.20757 3.46125 8.09193V6.96944C3.46125 6.85333 3.55539 6.75919 3.67151 6.75919H4.16178V8.30218H3.67151ZM3.67151 11.6711C3.55539 11.6711 3.46125 11.5764 3.46125 11.4608V10.3378C3.46125 10.2217 3.55539 10.1276 3.67151 10.1276H4.16178V11.6711H3.67151ZM3.67151 15.0395C3.55539 15.0395 3.46125 14.9453 3.46125 14.8297V13.7067C3.46125 13.5911 3.55539 13.4969 3.67151 13.4969H4.16178V15.0399L3.67151 15.0395ZM3.67151 18.4083C3.55539 18.4083 3.46125 18.3142 3.46125 18.1981V17.0751C3.46125 16.959 3.55539 16.8649 3.67151 16.8649H4.16178V18.4083H3.67151ZM7.99896 21.1928C7.99896 21.3089 7.90434 21.403 7.7887 21.403H6.66622C6.5501 21.403 6.45596 21.3089 6.45596 21.1928V20.702H7.99896V21.1928ZM11.3678 21.1928C11.3678 21.3089 11.2732 21.403 11.1576 21.403H10.0346C9.9185 21.403 9.82436 21.3089 9.82436 21.1928V20.702H11.3678V21.1928ZM14.7362 21.1928C14.7362 21.3089 14.6421 21.403 14.5265 21.403H13.4035C13.2879 21.403 13.1937 21.3089 13.1937 21.1928V20.702H14.7367L14.7362 21.1928ZM18.1051 21.1928C18.1051 21.3089 18.011 21.403 17.8949 21.403H16.7719C16.6558 21.403 16.5616 21.3089 16.5616 21.1928V20.702H18.1051V21.1928ZM19.921 19.5643C19.921 19.9279 19.6252 20.2237 19.2615 20.2237H5.29956C4.93591 20.2237 4.64012 19.9279 4.64012 19.5643V18.6482C4.64012 18.6482 4.64012 18.6477 4.64012 18.6473C4.64012 18.6468 4.64012 18.6463 4.64012 18.6463V16.6264C4.64012 16.6264 4.64012 16.6259 4.64012 16.6255C4.64012 16.625 4.64012 16.6245 4.64012 16.6245V15.2789C4.64012 15.2789 4.64012 15.2784 4.64012 15.2779C4.64012 15.2774 4.64012 15.2769 4.64012 15.2769V13.258C4.64012 13.258 4.64012 13.2575 4.64012 13.2571C4.64012 13.2566 4.64012 13.2561 4.64012 13.2561V11.9105C4.64012 11.91 4.64012 11.91 4.64012 11.9095C4.64012 11.909 4.64012 11.909 4.64012 11.9086V9.88914C4.64012 9.88866 4.64012 9.88866 4.64012 9.88818C4.64012 9.8877 4.64012 9.8877 4.64012 9.88723V8.54254C4.64012 8.54206 4.64012 8.54206 4.64012 8.54159C4.64012 8.54111 4.64012 8.54111 4.64012 8.54063V6.52169C4.64012 6.52122 4.64012 6.52122 4.64012 6.52074C4.64012 6.52026 4.64012 6.52026 4.64012 6.51978V5.60373C4.64012 5.24009 4.93591 4.94429 5.29956 4.94429H19.262C19.6256 4.94429 19.9214 5.24009 19.9214 5.60373V19.5643H19.921ZM20.8896 16.8653C21.0057 16.8653 21.0998 16.9595 21.0998 17.0756V18.1981C21.0998 18.3142 21.0057 18.4083 20.8896 18.4083H20.3993V16.8653H20.8896ZM20.8896 13.4965C21.0057 13.4965 21.0998 13.5906 21.0998 13.7062V14.8297C21.0998 14.9453 21.0057 15.0395 20.8896 15.0395H20.3993V13.4965H20.8896Z" fill="#2B3E76"/>
<path d="M20.8896 12.1489C21.269 12.1489 21.5777 11.8402 21.5777 11.4608V11.1383H23.5096C23.6415 11.1383 23.7486 11.0312 23.7486 10.8993C23.7486 10.7674 23.6415 10.6604 23.5096 10.6604H21.5777V10.3383C21.5777 9.9589 21.269 9.65021 20.8896 9.65021H20.3993V8.78099H20.8896C21.269 8.78099 21.5777 8.4723 21.5777 8.09288V7.77033H23.5096C23.6415 7.77033 23.7486 7.66329 23.7486 7.5314C23.7486 7.39951 23.6415 7.29247 23.5096 7.29247H21.5777V6.96992C21.5777 6.59051 21.269 6.28181 20.8896 6.28181H20.3993V5.60373C20.3993 4.97631 19.8894 4.46644 19.262 4.46644H18.5834V3.97473C18.5834 3.59531 18.2747 3.28662 17.8953 3.28662H17.5728V1.35465C17.5728 1.22276 17.4657 1.11572 17.3339 1.11572C17.202 1.11572 17.0949 1.22276 17.0949 1.35465V3.28662H16.7724C16.393 3.28662 16.0843 3.59531 16.0843 3.97473V4.46548H15.2146V3.97473C15.2146 3.59531 14.9059 3.28662 14.5269 3.28662H14.2044V1.35465C14.2044 1.22276 14.0973 1.11572 13.9655 1.11572C13.8336 1.11572 13.7265 1.22276 13.7265 1.35465V3.28662H13.4035C13.0241 3.28662 12.7159 3.59531 12.7159 3.97473V4.46548H11.8462V3.97473C11.8462 3.59531 11.5375 3.28662 11.1581 3.28662H10.8355V1.35465C10.8355 1.22276 10.7285 1.11572 10.5966 1.11572C10.4647 1.11572 10.3576 1.22276 10.3576 1.35465V3.28662H10.0356C9.65616 3.28662 9.34746 3.59531 9.34746 3.97473V4.46548H8.47825V3.97473C8.47825 3.59531 8.16955 3.28662 7.79014 3.28662H7.46758V1.35465C7.46758 1.22276 7.36054 1.11572 7.22866 1.11572C7.09677 1.11572 6.98973 1.22276 6.98973 1.35465V3.28662H6.66718C6.28776 3.28662 5.97907 3.59531 5.97907 3.97473V4.46548H5.30051C4.67309 4.46548 4.16322 4.97536 4.16322 5.60278V6.28086H3.67151C3.29209 6.28086 2.98339 6.58955 2.98339 6.96897V7.29152H1.05143C0.919539 7.29152 0.8125 7.39856 0.8125 7.53045C0.8125 7.66233 0.919539 7.76937 1.05143 7.76937H2.98339V8.09193C2.98339 8.47134 3.29209 8.78004 3.67151 8.78004H4.16178V9.64925H3.67151C3.29209 9.64925 2.98339 9.95795 2.98339 10.3374V10.6599H1.05143C0.919539 10.6599 0.8125 10.767 0.8125 10.8988C0.8125 11.0307 0.919539 11.1378 1.05143 11.1378H2.98339V11.4603C2.98339 11.8397 3.29209 12.1484 3.67151 12.1484H4.16178V13.0181H3.67151C3.29209 13.0181 2.98339 13.3268 2.98339 13.7058V14.0288H1.05143C0.919539 14.0288 0.8125 14.1358 0.8125 14.2677C0.8125 14.3996 0.919539 14.5066 1.05143 14.5066H2.98339V14.8287C2.98339 15.2081 3.29209 15.5164 3.67151 15.5164H4.16178V16.3861H3.67151C3.29209 16.3861 2.98339 16.6947 2.98339 17.0742V17.3967H1.05143C0.919539 17.3967 0.8125 17.5038 0.8125 17.6356C0.8125 17.7675 0.919539 17.8746 1.05143 17.8746H2.98339V18.1971C2.98339 18.5765 3.29209 18.8852 3.67151 18.8852H4.16178V19.5633C4.16178 20.1907 4.67166 20.7006 5.29908 20.7006H5.97763V21.1914C5.97763 21.5708 6.28633 21.8795 6.66574 21.8795H6.9883V23.8114C6.9883 23.9433 7.09533 24.0504 7.22722 24.0504C7.35911 24.0504 7.46615 23.9433 7.46615 23.8114V21.8795H7.7887C8.16812 21.8795 8.47681 21.5708 8.47681 21.1914V20.7006H9.34603V21.1914C9.34603 21.5708 9.65473 21.8795 10.0341 21.8795H10.3567V23.8114C10.3567 23.9433 10.4637 24.0504 10.5956 24.0504C10.7275 24.0504 10.8345 23.9433 10.8345 23.8114V21.8795H11.1571C11.5365 21.8795 11.8452 21.5708 11.8452 21.1914V20.7006H12.7149V21.1914C12.7149 21.5708 13.0236 21.8795 13.4025 21.8795H13.7256V23.8114C13.7256 23.9433 13.8326 24.0504 13.9645 24.0504C14.0964 24.0504 14.2034 23.9433 14.2034 23.8114V21.8795H14.5255C14.9049 21.8795 15.2131 21.5708 15.2131 21.1914V20.7006H16.0828V21.1914C16.0828 21.5708 16.3915 21.8795 16.7709 21.8795H17.0935V23.8114C17.0935 23.9433 17.2005 24.0504 17.3324 24.0504C17.4643 24.0504 17.5713 23.9433 17.5713 23.8114V21.8795H17.8939C18.2733 21.8795 18.582 21.5708 18.582 21.1914V20.7006H19.2606C19.888 20.7006 20.3979 20.1907 20.3979 19.5633V18.8852H20.8881C21.2676 18.8852 21.5762 18.5765 21.5762 18.1971V17.8746H23.5082C23.6401 17.8746 23.7471 17.7675 23.7471 17.6356C23.7471 17.5038 23.6401 17.3967 23.5082 17.3967H21.5762V17.0756C21.5762 16.6962 21.2676 16.3875 20.8881 16.3875H20.3979V15.5178H20.8881C21.2676 15.5178 21.5762 15.2091 21.5762 14.8302V14.5076H23.5082C23.6401 14.5076 23.7471 14.4006 23.7471 14.2687C23.7471 14.1368 23.6401 14.0297 23.5082 14.0297H21.5762V13.7067C21.5762 13.3273 21.2676 13.0191 20.8881 13.0191H20.3979V12.1494L20.8896 12.1489ZM20.8896 10.1276C21.0057 10.1276 21.0998 10.2222 21.0998 10.3378V11.4603C21.0998 11.5764 21.0057 11.6706 20.8896 11.6706H20.3993V10.1276H20.8896ZM20.8896 6.75919C21.0057 6.75919 21.0998 6.8538 21.0998 6.96944V8.0924C21.0998 8.20852 21.0057 8.30266 20.8896 8.30266H20.3993V6.75919H20.8896ZM16.5621 3.97473C16.5621 3.85861 16.6563 3.76447 16.7724 3.76447H17.8949C18.011 3.76447 18.1051 3.85861 18.1051 3.97473V4.46548H16.5621V3.97473ZM13.1932 3.97473C13.1932 3.85861 13.2874 3.76447 13.403 3.76447H14.5265C14.6421 3.76447 14.7362 3.85861 14.7362 3.97473V4.46548H13.1932V3.97473ZM9.82436 3.97473C9.82436 3.85861 9.91898 3.76447 10.0346 3.76447H11.1571C11.2732 3.76447 11.3674 3.85861 11.3674 3.97473V4.46548H9.82436V3.97473ZM6.45596 3.97473C6.45596 3.85861 6.55058 3.76447 6.66622 3.76447H7.78918C7.9053 3.76447 7.99944 3.85861 7.99944 3.97473V4.46548H6.45596V3.97473ZM3.67151 8.30218C3.55539 8.30218 3.46125 8.20757 3.46125 8.09193V6.96944C3.46125 6.85333 3.55539 6.75919 3.67151 6.75919H4.16178V8.30218H3.67151ZM3.67151 11.6711C3.55539 11.6711 3.46125 11.5764 3.46125 11.4608V10.3378C3.46125 10.2217 3.55539 10.1276 3.67151 10.1276H4.16178V11.6711H3.67151ZM3.67151 15.0395C3.55539 15.0395 3.46125 14.9453 3.46125 14.8297V13.7067C3.46125 13.5911 3.55539 13.4969 3.67151 13.4969H4.16178V15.0399L3.67151 15.0395ZM3.67151 18.4083C3.55539 18.4083 3.46125 18.3142 3.46125 18.1981V17.0751C3.46125 16.959 3.55539 16.8649 3.67151 16.8649H4.16178V18.4083H3.67151ZM7.99896 21.1928C7.99896 21.3089 7.90434 21.403 7.7887 21.403H6.66622C6.5501 21.403 6.45596 21.3089 6.45596 21.1928V20.702H7.99896V21.1928ZM11.3678 21.1928C11.3678 21.3089 11.2732 21.403 11.1576 21.403H10.0346C9.9185 21.403 9.82436 21.3089 9.82436 21.1928V20.702H11.3678V21.1928ZM14.7362 21.1928C14.7362 21.3089 14.6421 21.403 14.5265 21.403H13.4035C13.2879 21.403 13.1937 21.3089 13.1937 21.1928V20.702H14.7367L14.7362 21.1928ZM18.1051 21.1928C18.1051 21.3089 18.011 21.403 17.8949 21.403H16.7719C16.6558 21.403 16.5616 21.3089 16.5616 21.1928V20.702H18.1051V21.1928ZM19.921 19.5643C19.921 19.9279 19.6252 20.2237 19.2615 20.2237H5.29956C4.93591 20.2237 4.64012 19.9279 4.64012 19.5643V18.6482C4.64012 18.6482 4.64012 18.6477 4.64012 18.6473C4.64012 18.6468 4.64012 18.6463 4.64012 18.6463V16.6264C4.64012 16.6264 4.64012 16.6259 4.64012 16.6255C4.64012 16.625 4.64012 16.6245 4.64012 16.6245V15.2789C4.64012 15.2789 4.64012 15.2784 4.64012 15.2779C4.64012 15.2774 4.64012 15.2769 4.64012 15.2769V13.258C4.64012 13.258 4.64012 13.2575 4.64012 13.2571C4.64012 13.2566 4.64012 13.2561 4.64012 13.2561V11.9105C4.64012 11.91 4.64012 11.91 4.64012 11.9095C4.64012 11.909 4.64012 11.909 4.64012 11.9086V9.88914C4.64012 9.88866 4.64012 9.88866 4.64012 9.88818C4.64012 9.8877 4.64012 9.8877 4.64012 9.88723V8.54254C4.64012 8.54206 4.64012 8.54206 4.64012 8.54159C4.64012 8.54111 4.64012 8.54111 4.64012 8.54063V6.52169C4.64012 6.52122 4.64012 6.52122 4.64012 6.52074C4.64012 6.52026 4.64012 6.52026 4.64012 6.51978V5.60373C4.64012 5.24009 4.93591 4.94429 5.29956 4.94429H19.262C19.6256 4.94429 19.9214 5.24009 19.9214 5.60373V19.5643H19.921ZM20.8896 16.8653C21.0057 16.8653 21.0998 16.9595 21.0998 17.0756V18.1981C21.0998 18.3142 21.0057 18.4083 20.8896 18.4083H20.3993V16.8653H20.8896ZM20.8896 13.4965C21.0057 13.4965 21.0998 13.5906 21.0998 13.7062V14.8297C21.0998 14.9453 21.0057 15.0395 20.8896 15.0395H20.3993V13.4965H20.8896Z" stroke="#2B3E76" stroke-width="0.286701" mask="url(#path-1-outside-1_692_5454)"/>
<path d="M18.1002 6.4542H6.46158C6.29011 6.4542 6.15098 6.59333 6.15098 6.76481V18.4034C6.15098 18.5749 6.29011 18.714 6.46158 18.714H18.1002C18.2717 18.714 18.4108 18.5749 18.4108 18.4034V6.76481C18.4108 6.59276 18.2716 6.4542 18.1002 6.4542ZM17.7896 18.0928H6.77219V7.07541H17.7896V18.0928Z" fill="#2B3E76" stroke="#2B3E76" stroke-width="0.14335"/>
</svg>
