<svg width="319" height="200" viewBox="0 0 319 292" fill="none" xmlns="http://www.w3.org/2000/svg">
<g clip-path="url(#clip0_38_7026)">
<path d="M157.37 125.625C163.236 125.625 168.403 126.442 172.909 128.036C177.416 129.631 180.99 131.692 183.67 134.143C186.351 136.593 188.526 139.432 190.274 142.66C192.022 145.888 193.227 149 193.887 152.072C194.547 155.145 194.975 158.14 195.169 161.134C195.363 164.129 195.363 166.502 195.208 168.213C195.052 169.963 194.858 171.208 194.664 172.025C194.664 172.141 194.586 172.452 194.47 172.919C193.926 175.486 193.382 177.897 192.799 180.231C192.217 182.526 190.779 186.571 188.565 192.405C186.312 198.239 183.787 203.645 180.912 208.701C178.037 213.757 173.958 219.669 168.636 226.436C163.314 233.204 157.37 239.349 150.844 244.872C144.318 250.394 136.121 255.917 126.292 261.44C116.464 266.963 105.781 271.552 94.2042 275.247C80.9183 279.448 71.1288 279.525 64.8355 275.442C59.9795 272.369 58.3091 267.507 59.8241 260.973C61.6111 253.078 67.4771 245.027 77.4609 236.821C85.4247 230.248 95.1754 224.414 106.752 219.28L129.439 154.25C129.439 154.25 129.789 154.017 130.06 153.9C130.371 153.784 130.915 153.628 131.731 153.395C132.547 153.161 133.324 153.006 133.984 152.967C134.683 152.889 135.383 152.967 136.121 153.278C136.859 153.55 137.403 153.978 137.752 154.6C138.102 155.223 138.296 156.195 138.257 157.517C138.257 158.84 137.869 160.434 137.208 162.34C136.237 165.102 130.06 182.526 118.756 214.574C125.205 212.279 131.692 210.295 138.296 208.662C140.394 208.156 142.259 207.923 143.813 207.962C145.405 208.04 146.765 208.312 147.892 208.818C149.057 209.323 149.95 209.829 150.65 210.412C151.349 210.957 151.854 211.462 152.165 211.929L152.67 212.629C140.51 216.129 127.885 220.563 114.793 226.047C111.258 236.043 108.422 244.094 106.325 250.2C104.227 256.306 103.023 259.845 102.673 260.857C101.546 264.94 98.4774 265.563 93.3884 262.723C92.8057 262.412 92.4172 261.907 92.223 261.284C92.0287 260.662 92.0676 259.806 92.3784 258.756C92.6892 257.706 92.9999 256.734 93.3496 255.8C93.6992 254.867 94.2431 253.584 94.9812 251.872C95.7193 250.161 96.302 248.722 96.7681 247.555C97.4286 245.844 99.3321 240.477 102.479 231.492C80.8018 241.877 69.0698 251.639 67.2829 260.779C65.7678 268.48 69.0698 272.213 77.1501 272.019C85.5024 271.825 96.9235 267.896 111.453 260.195C119.882 255.723 127.03 251.172 132.935 246.505C137.791 242.694 142.142 239.038 145.988 235.576C149.834 232.076 153.991 227.836 158.497 222.819C163.003 217.802 166.888 212.746 170.112 207.651C173.376 202.556 176.367 196.722 179.125 190.11C181.883 183.498 183.903 176.653 185.224 169.574C187.516 156.973 184.952 147.289 177.532 140.599C170.773 134.57 161.41 132.081 149.445 133.209C135.499 134.454 121.669 140.249 107.956 150.556C101.313 155.495 95.1365 161.251 89.426 167.785H88.8821C88.649 167.785 88.1828 167.785 87.4447 167.669C86.7066 167.591 86.0462 167.513 85.3858 167.357C84.7254 167.241 83.9873 167.046 83.2103 166.813C82.4334 166.58 81.773 166.307 81.2291 165.957C80.6853 165.646 80.2579 165.218 79.9472 164.713C79.6364 164.207 79.481 163.663 79.5587 163.079C79.6364 162.496 80.3356 161.407 81.6953 159.89C83.055 158.334 84.9973 156.428 87.5613 154.173C90.1252 151.917 93.1165 149.505 96.5351 146.938C99.9536 144.372 103.955 141.843 108.5 139.354C113.084 136.865 117.824 134.609 122.757 132.587C127.691 130.564 133.207 128.931 139.267 127.647C145.328 126.364 151.388 125.742 157.37 125.742V125.625Z" fill="white"/>
<path d="M247.069 211.851L251.692 215.974L249.128 218.541C248.079 219.591 246.059 221.419 243.068 224.064C240.077 226.709 237.241 229.003 234.522 230.948C231.841 232.931 228.927 234.604 225.781 236.004C222.673 237.404 220.07 237.91 218.05 237.521C211.951 236.199 209.465 232.27 210.669 225.697C209.038 227.914 207.367 230.014 205.735 231.998C204.104 233.982 202.2 236.004 200.103 238.065C198.005 240.127 195.946 241.721 193.887 242.81C191.867 243.899 190.041 244.288 188.448 244.055C186.545 243.744 185.03 243.044 183.981 242.032C182.893 241.021 182.233 239.816 181.961 238.493C181.689 237.132 181.689 235.615 181.961 233.904C182.233 232.193 182.621 230.559 183.204 229.042C183.748 227.486 184.486 225.931 185.341 224.375C186.001 223.053 186.894 221.536 188.06 219.786C189.225 218.035 190.585 216.13 192.217 214.029C193.809 211.929 195.519 209.984 197.306 208.195C199.093 206.406 200.918 204.889 202.861 203.567C204.803 202.245 206.668 201.467 208.494 201.195C210.319 200.922 212.029 201.311 213.66 202.284C217.39 204.734 219.565 207.806 220.148 211.54C220.731 211.735 221.391 212.046 222.129 212.474C222.867 212.901 223.372 213.29 223.722 213.602L224.305 214.185L220.575 222.158C218.477 227.331 217.934 230.248 218.982 230.831C220.498 231.142 223.605 229.742 228.306 226.592C233.006 223.442 237.28 220.175 241.164 216.83L247.069 211.812V211.851ZM212.068 215.702C213.466 211.501 213.272 209.129 211.563 208.623C210.319 208.157 207.717 209.984 203.832 214.107C199.908 218.23 196.49 222.664 193.537 227.525C190.585 232.348 189.691 235.421 190.857 236.743C191.401 237.288 192.488 236.86 194.159 235.576C195.829 234.254 197.849 232.348 200.18 229.82C202.511 227.292 204.648 224.881 206.551 222.625C208.455 220.369 210.281 218.074 212.068 215.78V215.702Z" fill="white"/>
<path d="M303.942 164.441C306.389 164.557 308.526 164.985 310.429 165.685C312.333 166.385 313.77 167.202 314.703 168.136C315.674 169.108 316.451 170.041 317.072 170.975C317.694 171.947 318.082 172.725 318.199 173.386L318.51 174.281C307.089 172.569 291.161 172.064 270.805 172.803C268.707 177.12 267.619 180.309 267.542 182.254C266.881 183.848 266.066 185.987 265.094 188.749C264.123 191.51 262.414 196.566 259.966 203.878C257.519 211.19 255.499 217.841 253.79 223.831C252.119 229.82 250.798 235.693 249.827 241.527C248.856 247.361 248.817 251.25 249.672 253.312H248.235C247.691 253.312 247.147 253.234 246.642 253.117C246.137 253 245.554 252.806 244.816 252.534C244.078 252.261 243.495 251.911 242.99 251.445C242.485 250.978 241.98 250.395 241.397 249.617C240.853 248.878 240.426 247.944 240.232 246.855C239.999 245.766 239.805 244.522 239.688 243.122C239.572 241.721 239.688 240.049 240.077 238.143C240.815 233.087 242.64 225.892 245.554 216.558C248.468 207.223 251.187 199.172 253.673 192.405L257.403 182.254H253.557L259.267 173.697C259.267 173.697 259.384 173.503 259.461 173.308C252.08 173.697 244.466 174.242 236.541 174.903C228.616 175.564 222.556 176.07 218.4 176.498C214.243 176.886 212.106 177.081 212.029 177.081C211.718 177.003 211.019 176.303 210.009 174.903C208.998 173.542 208.027 172.18 207.095 170.858L205.813 168.874C206.978 168.019 226.091 166.852 263.113 165.413C273.252 143.944 279.623 133.326 282.226 133.598C283.353 133.715 284.363 134.143 285.217 134.843C286.111 135.543 286.771 136.282 287.199 137.06C287.626 137.838 288.053 138.538 288.481 139.16C288.908 139.782 289.296 140.094 289.607 140.094C289.879 140.094 289.296 141.26 287.937 143.555C286.538 145.85 284.479 149.195 281.721 153.589C278.963 157.984 276.71 161.796 274.923 165.024C290.19 164.518 299.785 164.285 303.825 164.441H303.942Z" fill="white"/>
<path d="M280.596 210.179C280.79 210.296 281.062 210.451 281.451 210.607C281.8 210.762 282.422 211.151 283.277 211.696C284.131 212.24 284.869 212.785 285.452 213.329C286.035 213.874 286.501 214.457 286.889 215.157C287.239 215.857 287.278 216.48 286.928 217.063C285.025 220.68 282.655 225.931 279.897 232.815C277.1 239.699 275.934 244.327 276.401 246.7C276.129 246.622 275.779 246.544 275.352 246.389C274.924 246.272 274.186 245.961 273.137 245.494C272.088 245.027 271.195 244.483 270.418 243.861C269.68 243.238 269.058 242.383 268.592 241.255C268.126 240.127 268.048 238.96 268.398 237.715C268.592 236.743 268.981 235.498 269.563 233.982C270.146 232.465 270.807 230.87 271.545 229.198C272.283 227.525 273.021 225.775 273.875 223.986C274.691 222.197 275.507 220.447 276.284 218.813C277.061 217.18 277.799 215.702 278.459 214.418C279.12 213.135 279.625 212.085 280.052 211.307L280.635 210.14L280.596 210.179Z" fill="white"/>
<path d="M137.48 91.9433C140.239 91.9433 142.608 93.4213 144.551 96.3383C145.91 98.244 146.26 99.4497 145.599 99.8775C145.483 99.9553 145.328 99.9553 145.133 99.9553C144.551 99.8775 141.715 100.111 136.626 100.578C131.498 101.044 124.738 101.744 116.27 102.678C107.801 103.611 99.5263 104.623 91.4072 105.712C85.4635 120.763 80.6076 133.403 76.8394 143.632C69.1864 164.051 65.7678 177.353 66.5836 183.576C66.6613 184.003 66.5836 184.276 66.5059 184.354C66.1951 184.626 65.457 184.587 64.3693 184.276C63.2427 183.965 62.1161 183.342 60.9119 182.409C59.7464 181.475 58.9695 180.464 58.6587 179.375C58.0371 177.664 58.6587 173.308 60.6788 166.307C62.66 159.306 66.7778 146.316 73.0323 127.297C74.8193 121.93 77.2278 115.279 80.2191 107.267C72.0611 108.434 64.9132 109.484 58.8529 110.534C55.7063 111.118 52.5208 111.779 49.2576 112.557C45.2174 122.825 41.5269 132.587 38.1472 141.766C39.5457 142.855 40.2838 144.644 40.4004 147.133C40.478 149.622 40.1284 152.228 39.3126 154.989C38.4968 157.751 37.6422 160.123 36.8264 162.184C36.0106 164.246 35.2725 165.84 34.6121 166.968C33.8351 168.291 32.3201 168.446 30.0281 167.357C27.2699 166.152 25.4829 164.051 24.6671 161.134C24.1621 159.462 24.1232 157.751 24.5894 155.962C25.7548 151.761 27.0368 147.327 28.513 142.738C27.3087 142.349 25.9102 141.921 24.3563 141.415C22.8024 140.91 21.2097 140.365 19.6558 139.821C18.1019 139.276 16.5091 138.732 14.9164 138.187C13.3236 137.643 11.8474 137.137 10.5266 136.67C9.16693 136.204 8.0015 135.776 6.95262 135.426C5.90373 135.076 5.04909 134.765 4.42753 134.531L3.57288 134.259L1.74705 132.937C-1.32191 129.864 -0.0787887 126.442 5.47641 122.591C7.2634 121.385 9.40001 120.18 11.8863 119.052C20.5104 115.396 30.1058 112.012 40.6334 108.901C44.8678 98.1273 49.5295 87.0039 54.6962 75.5693C59.863 64.1347 64.6024 54.1003 68.9144 45.5049C73.2265 36.8706 77.2667 29.0531 80.996 21.9356C84.7254 14.857 87.639 9.412 89.7756 5.63936L93.0388 0.0776367C95.7193 0.0776367 97.7782 0.699928 99.2544 1.94451C100.731 3.18909 101.585 4.74482 101.779 6.65058C102.013 8.51746 101.935 10.5788 101.585 12.7957C101.236 15.0126 100.692 17.074 99.9536 19.0186C99.2155 20.9633 98.5163 22.5968 97.8947 23.9581C97.2732 25.2804 96.807 26.0583 96.5351 26.2527C96.2631 26.4472 95.9135 26.3305 95.3696 25.8638C94.8646 25.436 94.3596 24.8526 93.8546 24.1525C93.3496 23.4524 92.6891 22.7524 91.951 22.0912C91.1741 21.43 90.4748 21.0411 89.8533 21.0022C82.5111 31.97 69.8856 60.2454 52.0158 105.75C61.9219 103.183 72.4107 100.889 83.5211 98.8663C86.3181 91.71 89.4648 83.8536 92.9611 75.2582C96.4574 66.6628 99.6817 58.8063 102.673 51.6889C105.664 44.5714 108.5 37.9596 111.103 31.8534C113.706 25.7471 115.803 21.0022 117.318 17.5407L119.61 12.3679C119.61 12.3679 120.077 12.5623 120.465 12.7179C120.854 12.8735 121.514 13.1846 122.485 13.6125C123.456 14.0792 124.272 14.507 124.971 14.9348C125.671 15.4016 126.292 15.9072 126.836 16.4517C127.38 17.0351 127.574 17.5796 127.458 18.0852C124.466 23.258 113.628 49.5109 94.9812 96.8828C101.818 95.7938 108.578 94.8603 115.26 94.0436C121.941 93.2268 127.03 92.7212 130.527 92.4101C134.023 92.1378 136.354 91.9822 137.519 91.9822L137.48 91.9433ZM30.0669 137.526C32.4366 130.448 35.0005 123.175 37.8364 115.785C26.4152 119.441 17.7134 123.291 11.7697 127.375C8.89499 129.436 8.27343 130.525 9.86618 130.72C13.7509 130.837 20.5104 133.131 30.0669 137.526Z" fill="white"/>
<path d="M190.934 93.0711C191.517 93.6545 190.546 95.0935 188.021 97.4271C185.495 99.7607 181.067 103.494 174.735 108.667C171.472 111.273 167.587 113.14 163.08 114.229C158.574 115.318 154.379 115.59 150.494 115.085C146.609 114.579 143.346 113.14 140.704 110.729C138.101 108.317 136.975 105.245 137.363 101.472C137.674 98.0883 138.606 94.7046 140.199 91.3209C141.753 87.9372 143.462 85.1757 145.327 82.9977C147.192 80.8197 148.901 79.0695 150.494 77.7471C152.087 76.4248 153.174 75.7247 153.757 75.7247C157.253 73.6245 160.594 73.7411 163.78 76.0747C166.926 78.4083 168.558 82.2199 168.636 87.5093C168.713 89.4929 167.936 91.2431 166.382 92.8377C164.829 94.3934 162.77 95.638 160.206 96.5714C157.642 97.5049 155.311 98.1661 153.213 98.6328C151.115 99.0995 148.979 99.4495 146.803 99.7996C145.91 103.105 146.182 105.828 147.619 107.928C149.056 110.028 152.087 111.079 156.671 111.079C158.263 111.079 160.011 110.729 161.954 110.028C163.857 109.328 165.722 108.434 167.47 107.306C169.218 106.178 170.966 104.933 172.676 103.572C174.385 102.211 175.978 100.85 177.376 99.4884C178.775 98.1661 180.018 96.9215 181.106 95.7936C182.193 94.6657 183.009 93.7711 183.592 93.0711L184.563 92.0209C186.039 91.4375 187.282 91.3209 188.292 91.5931C189.303 91.8654 190.196 92.371 190.973 93.0711H190.934ZM156.748 83.3867C155.583 84.359 154.223 85.9147 152.63 88.0927C151.038 90.2707 149.678 92.5265 148.59 94.899C151.465 94.199 153.835 93.3822 155.738 92.4488C157.603 91.5153 158.963 90.6597 159.701 89.804C160.478 88.9873 160.944 88.1316 161.099 87.2371C161.255 86.3425 161.216 85.6036 160.944 84.9813C160.672 84.359 160.322 83.8534 159.895 83.3867C159.39 82.881 158.341 82.881 156.748 83.3867Z" fill="white"/>
<path d="M222.517 14.8572C224.771 16.5296 226.053 18.8632 226.441 21.8969C226.83 24.9306 226.519 28.1587 225.548 31.6202C224.538 35.0817 222.984 38.9321 220.847 43.2104C218.71 47.4886 216.457 51.4946 214.126 55.1895C211.796 58.8843 209.193 62.7347 206.318 66.663C203.443 70.6301 201.074 73.7804 199.248 76.1529C197.383 78.5254 195.557 80.7812 193.77 82.9592C192.372 88.2487 191.323 93.3826 190.624 98.322C189.924 103.261 189.575 107.345 189.614 110.573C189.614 113.801 189.769 116.641 190.002 119.13C190.235 121.619 190.507 123.447 190.818 124.575L191.284 126.286C188.914 126.286 187.011 125.742 185.573 124.653C184.136 123.564 183.048 121.697 182.271 119.091C181.494 116.485 181.3 112.829 181.611 108.162C181.922 103.495 182.738 97.7386 184.02 90.8156C185.807 81.6368 189.303 70.5523 194.508 57.6397C199.714 44.7272 205.075 33.8371 210.669 25.0473C216.224 16.2185 220.187 12.8348 222.556 14.8183L222.517 14.8572ZM209.115 44.3383C205.153 52.078 201.773 59.6622 198.976 67.1297C202.744 61.3735 206.279 55.4617 209.542 49.4333C212.844 43.3659 215.292 38.5043 216.923 34.8872C218.555 31.2313 219.293 29.131 219.177 28.5476C219.099 27.6531 218.555 27.9253 217.545 29.4033C216.457 31.1146 213.66 36.0929 209.115 44.3383Z" fill="white"/>
<path d="M251.227 14.8567C253.48 16.5292 254.762 18.8627 255.151 21.8964C255.539 24.9301 255.228 28.1582 254.257 31.6197C253.247 35.0812 251.693 38.9316 249.556 43.2099C247.42 47.4881 245.167 51.4941 242.836 55.189C240.505 58.8838 237.902 62.7343 235.027 66.6625C232.153 70.6296 229.783 73.7799 227.957 76.1524C226.093 78.5249 224.267 80.7807 222.48 82.9587C221.081 88.2482 220.032 93.3821 219.333 98.3215C218.634 103.261 218.284 107.345 218.323 110.573C218.323 113.801 218.478 116.64 218.712 119.129C218.945 121.619 219.217 123.447 219.527 124.574L219.993 126.286C217.624 126.286 215.72 125.741 214.283 124.652C212.846 123.563 211.758 121.696 210.981 119.09C210.204 116.485 210.01 112.829 210.32 108.161C210.631 103.494 211.447 97.7381 212.729 90.8151C214.516 81.6363 218.012 70.5518 223.218 57.6393C228.423 44.7267 233.784 33.8366 239.378 25.0468C244.934 16.218 248.896 12.8343 251.266 14.8179L251.227 14.8567ZM237.825 44.3378C233.862 52.0775 230.482 59.6617 227.685 67.1292C231.454 61.373 234.989 55.4612 238.252 49.4328C241.554 43.3655 244.001 38.5038 245.633 34.8867C247.264 31.2308 248.003 29.1305 247.886 28.5471C247.808 27.6526 247.264 27.9249 246.254 29.4028C245.167 31.1141 242.37 36.0924 237.825 44.3378Z" fill="white"/>
<path d="M247.768 78.7197C248.545 79.1087 249.477 79.8865 250.642 81.0533C251.808 82.2201 252.973 83.4647 254.216 84.7871C255.46 86.1094 256.897 87.5096 258.528 89.0653C260.16 90.6211 262.025 91.9045 264.084 92.9935C266.143 94.0825 268.396 94.9382 270.843 95.6383C273.252 96.2995 276.088 96.5328 279.312 96.2606C282.536 95.9883 285.955 95.2104 289.607 93.8492C289.529 93.9659 289.451 94.1214 289.335 94.3159C289.218 94.5104 288.907 94.8604 288.441 95.4049C287.975 95.9494 287.431 96.455 286.809 96.9217C286.188 97.3885 285.372 97.8941 284.323 98.3997C283.274 98.9053 282.109 99.2942 280.827 99.5665C279.545 99.8387 277.991 99.9165 276.126 99.9165C274.262 99.9165 272.281 99.6443 270.183 99.2164C265.91 98.3219 261.831 96.7662 257.907 94.5104C257.713 95.9105 257.363 97.4274 256.897 99.022C256.431 100.617 255.731 102.328 254.799 104.195C253.867 106.062 252.779 107.695 251.497 109.134C250.215 110.573 248.622 111.779 246.719 112.712C244.815 113.646 242.679 114.113 240.387 114.035C238.328 113.957 236.618 113.568 235.181 112.829C233.744 112.09 232.695 111.234 232.034 110.184C231.374 109.173 230.908 107.89 230.636 106.412C230.364 104.895 230.286 103.534 230.364 102.289C230.442 101.044 230.636 99.6054 230.986 97.9719C231.335 96.3384 231.607 95.1327 231.84 94.3937C232.073 93.6158 232.345 92.7602 232.656 91.8267C233.083 90.6211 233.821 89.1431 234.793 87.4707C235.764 85.7983 236.968 84.087 238.328 82.4535C239.687 80.7811 241.241 79.5754 242.989 78.7586C244.699 77.9419 246.291 77.9419 247.768 78.7197ZM240.192 106.684C241.28 107.384 242.601 106.723 244.233 104.739C245.825 102.717 247.224 100.305 248.467 97.5051C249.671 94.7048 250.604 92.099 251.264 89.7654C250.293 88.9486 249.438 88.1319 248.622 87.3151C247.807 86.4984 247.263 85.8761 246.952 85.4483L246.486 84.8649C246.486 84.8649 246.292 85.2149 246.136 85.4872C245.981 85.7594 245.67 86.3817 245.243 87.2762C244.776 88.1708 244.349 89.0653 243.883 89.921C243.417 90.7766 242.951 91.8267 242.446 93.0324C241.941 94.2381 241.474 95.366 241.047 96.4161C240.62 97.4663 240.27 98.5553 239.959 99.7221C239.649 100.889 239.415 101.9 239.299 102.795C239.182 103.689 239.182 104.506 239.338 105.206C239.493 105.906 239.804 106.412 240.231 106.723L240.192 106.684Z" fill="white"/>
<path d="M138.297 276.764C162.382 286.176 187.322 292.282 213.272 291.66C234.6 291.116 255.228 287.615 274.574 278.359C289.064 271.436 302.427 262.257 315.131 252.495C315.325 252.339 317.85 250.55 317.85 250.006C317.85 249.267 317.617 249.85 316.84 249.967C314.082 250.317 309.886 254.362 307.788 255.995C274.768 281.353 229.899 287.771 189.731 279.331C176.6 276.57 163.781 272.486 151.311 267.624C149.795 267.041 145.522 270.736 144.357 271.552C143.813 271.941 138.258 276.764 138.297 276.764Z" fill="#FCE200"/>
<path d="M291.551 185.054C291.862 184.276 292.872 184.315 294.503 185.248C296.135 186.182 297.65 187.271 299.048 188.593C300.447 189.915 300.952 190.693 300.641 190.966C300.447 191.082 300.097 191.51 299.67 192.132C299.204 192.794 298.699 193.533 298.194 194.388C297.65 195.244 297.145 196.1 296.679 196.916C296.174 197.733 295.785 198.433 295.436 199.016L294.931 199.794C291.318 198.666 289.142 197.344 288.443 195.749C288.132 195.01 288.21 193.766 288.754 192.016C289.298 190.227 289.88 188.632 290.541 187.193L291.628 185.015L291.551 185.054Z" fill="#FCE200"/>
</g>
<defs>
<clipPath id="clip0_38_7026">
<rect width="318.55" height="291.699" fill="white" transform="translate(-0.000488281)"/>
</clipPath>
</defs>
</svg>
