<svg width="35" height="38" viewBox="0 0 49 48" fill="none" xmlns="http://www.w3.org/2000/svg">
<path fill-rule="evenodd" clip-rule="evenodd" d="M10.3902 9.5998C10.3902 6.94884 12.5393 4.7998 15.1902 4.7998H34.3902C37.0412 4.7998 39.1902 6.94884 39.1902 9.5998V38.3998C40.5157 38.3998 41.5902 39.4743 41.5902 40.7998C41.5902 42.1253 40.5157 43.1998 39.1902 43.1998H30.5902C30.0379 43.1998 29.5902 42.7521 29.5902 42.1998V35.9998C29.5902 34.6743 28.5157 33.5998 27.1902 33.5998H22.3902C21.0648 33.5998 19.9902 34.6743 19.9902 35.9998V42.1998C19.9902 42.7521 19.5425 43.1998 18.9902 43.1998H10.3902C9.06475 43.1998 7.99023 42.1253 7.99023 40.7998C7.99023 39.4743 9.06475 38.3998 10.3902 38.3998V9.5998ZM17.5902 11.9998H22.3902V16.7998H17.5902V11.9998ZM22.3902 21.5998H17.5902V26.3998H22.3902V21.5998ZM27.1902 11.9998H31.9902V16.7998H27.1902V11.9998ZM31.9902 21.5998H27.1902V26.3998H31.9902V21.5998Z" fill="white"/>
</svg>
