         <svg width="100" height="82" viewBox="0 0 100 82" fill="none" xmlns="http://www.w3.org/2000/svg">
            <g clip-path="url(#clip0_209_16609)">
            <path d="M44.4698 35.7456C46.1008 35.7456 47.5374 35.9724 48.7904 36.4153C50.0433 36.8581 51.0371 37.4306 51.7824 38.1111C52.5277 38.7916 53.1325 39.5801 53.6186 40.4766C54.1047 41.3731 54.4395 42.2372 54.6231 43.0906C54.8068 43.9439 54.9256 44.7756 54.9796 45.6073C55.0336 46.439 55.0336 47.0979 54.9904 47.5731C54.9472 48.0592 54.8932 48.4048 54.8392 48.6317C54.8392 48.6641 54.8176 48.7505 54.7852 48.8801C54.6339 49.593 54.4827 50.2627 54.3207 50.9108C54.1587 51.548 53.759 52.6714 53.1433 54.2916C52.5169 55.9118 51.8148 57.4132 51.0155 58.8174C50.2162 60.2216 49.082 61.8634 47.6022 63.7428C46.1224 65.6223 44.4698 67.3289 42.6552 68.8627C40.8406 70.3965 38.5615 71.9303 35.8287 73.4641C33.096 74.9979 30.1256 76.2724 26.9068 77.2986C23.2127 78.4651 20.4907 78.4867 18.7409 77.3526C17.3907 76.4993 16.9263 75.1491 17.3475 73.3344C17.8444 71.1418 19.4754 68.9059 22.2514 66.6268C24.4656 64.8014 27.1768 63.1811 30.3956 61.7554L36.7036 43.6954C36.7036 43.6954 36.8008 43.6306 36.8764 43.5982C36.9629 43.5658 37.1141 43.5226 37.3409 43.4578C37.5677 43.393 37.7838 43.3498 37.9674 43.339C38.1618 43.3174 38.3562 43.339 38.5615 43.4254C38.7667 43.501 38.9179 43.6198 39.0151 43.7926C39.1123 43.9655 39.1663 44.2355 39.1555 44.6027C39.1555 44.97 39.0475 45.4129 38.8639 45.9421C38.5939 46.709 36.8764 51.548 33.7332 60.4484C35.5263 59.8111 37.3301 59.2602 39.1663 58.8066C39.7496 58.6662 40.2681 58.6014 40.7001 58.6122C41.143 58.6338 41.521 58.7094 41.8343 58.8498C42.1583 58.9902 42.4068 59.1306 42.6012 59.2926C42.7956 59.4439 42.936 59.5843 43.0224 59.7139L43.1629 59.9083C39.782 60.8804 36.2716 62.1118 32.6315 63.6348C31.6486 66.4108 30.8601 68.6467 30.2768 70.3425C29.6935 72.0383 29.3587 73.0212 29.2615 73.302C28.9482 74.4362 28.0949 74.609 26.6799 73.8205C26.5179 73.7341 26.4099 73.5937 26.3559 73.4209C26.3019 73.248 26.3127 73.0104 26.3991 72.7188C26.4855 72.4271 26.5719 72.1571 26.6691 71.8979C26.7663 71.6386 26.9176 71.2822 27.1228 70.8069C27.328 70.3317 27.49 69.932 27.6197 69.608C27.8033 69.1327 28.3325 67.6421 29.2075 65.147C23.1803 68.031 19.9183 70.7421 19.4214 73.2804C19.0001 75.4191 19.9183 76.4561 22.165 76.4021C24.4873 76.348 27.6629 75.2571 31.7026 73.1184C34.0465 71.8763 36.0339 70.6125 37.6758 69.3163C39.0259 68.2578 40.2357 67.2425 41.305 66.2811C42.3744 65.309 43.5301 64.1317 44.7831 62.7383C46.036 61.3449 47.1162 59.9407 48.0127 58.5257C48.92 57.1108 49.7517 55.4906 50.5186 53.6543C51.2855 51.8181 51.8472 49.917 52.2144 47.9512C52.8517 44.4515 52.1388 41.762 50.0758 39.9041C48.1963 38.2299 45.5932 37.5386 42.2663 37.8519C38.3886 38.1975 34.5433 39.8069 30.7305 42.6693C28.8834 44.0411 27.166 45.6397 25.5782 47.4543H25.427C25.3622 47.4543 25.2325 47.4543 25.0273 47.4219C24.8221 47.4003 24.6385 47.3787 24.4548 47.3355C24.2712 47.3031 24.066 47.2491 23.85 47.1843C23.6339 47.1195 23.4503 47.0439 23.2991 46.9466C23.1479 46.8602 23.0291 46.7414 22.9427 46.601C22.8562 46.4606 22.813 46.3094 22.8346 46.1473C22.8562 45.9853 23.0507 45.6829 23.4287 45.2616C23.8068 44.8296 24.3468 44.3003 25.0597 43.6738C25.7726 43.0473 26.6043 42.3777 27.5548 41.6648C28.5054 40.9519 29.6179 40.2498 30.8817 39.5585C32.1562 38.8672 33.474 38.2407 34.8458 37.6791C36.2176 37.1174 37.7514 36.6637 39.4364 36.3073C41.1214 35.9508 42.8064 35.778 44.4698 35.778V35.7456Z" fill="white"/>
            <path d="M69.4098 59.6921L70.6952 60.8371L69.9823 61.5499C69.6907 61.8416 69.129 62.3493 68.2973 63.0837C67.4656 63.8182 66.6771 64.4555 65.921 64.9956C65.1757 65.5465 64.3656 66.0109 63.4907 66.3998C62.6266 66.7886 61.9029 66.929 61.3412 66.821C59.6454 66.4538 58.9541 65.3628 59.2889 63.5374C58.8353 64.1531 58.3708 64.7364 57.9172 65.2872C57.4635 65.8381 56.9342 66.3998 56.351 66.9722C55.7677 67.5447 55.1952 67.9876 54.6227 68.29C54.0611 68.5925 53.5534 68.7005 53.1105 68.6357C52.5813 68.5493 52.16 68.3548 51.8684 68.074C51.5659 67.7932 51.3823 67.4583 51.3067 67.0911C51.2311 66.713 51.2311 66.2918 51.3067 65.8165C51.3823 65.3412 51.4903 64.8876 51.6524 64.4663C51.8036 64.0343 52.0088 63.6022 52.2464 63.1702C52.4301 62.8029 52.6785 62.3817 53.0025 61.8956C53.3266 61.4095 53.7046 60.8803 54.1583 60.297C54.6011 59.7137 55.0764 59.1736 55.5733 58.6768C56.0701 58.1799 56.5778 57.7587 57.1179 57.3914C57.6579 57.0242 58.1764 56.8081 58.6841 56.7325C59.1917 56.6569 59.667 56.7649 60.1206 57.035C61.1576 57.7155 61.7625 58.5688 61.9245 59.6057C62.0865 59.6597 62.2701 59.7461 62.4753 59.8649C62.6806 59.9837 62.821 60.0918 62.9182 60.1782L63.0802 60.3402L62.0433 62.5545C61.46 63.9911 61.3088 64.8012 61.6004 64.9632C62.0217 65.0496 62.8858 64.6607 64.1928 63.7858C65.4997 62.9109 66.6879 62.0036 67.768 61.0747L69.4098 59.6813V59.6921ZM59.6778 60.7614C60.0666 59.5949 60.0126 58.936 59.5374 58.7956C59.1917 58.666 58.468 59.1736 57.3879 60.3186C56.297 61.4635 55.3464 62.6949 54.5255 64.0451C53.7046 65.3844 53.4562 66.2378 53.7802 66.605C53.9314 66.7562 54.2339 66.6374 54.6983 66.281C55.1628 65.9137 55.7245 65.3844 56.3726 64.6824C57.0206 63.9803 57.6147 63.3106 58.144 62.6841C58.6733 62.0576 59.1809 61.4203 59.6778 60.783V60.7614Z" fill="white"/>
            <path d="M85.2238 46.5254C85.9043 46.5578 86.4983 46.6766 87.0276 46.8711C87.5569 47.0655 87.9565 47.2923 88.2158 47.5516C88.4858 47.8216 88.7018 48.0808 88.8746 48.3401C89.0475 48.6101 89.1555 48.8261 89.1879 49.0097L89.2743 49.2582C86.0987 48.7829 81.6701 48.6425 76.0102 48.8477C75.4269 50.0467 75.1245 50.9324 75.1029 51.4725C74.9192 51.9153 74.6924 52.5094 74.4224 53.2763C74.1523 54.0432 73.6771 55.4474 72.9966 57.478C72.3161 59.5087 71.7544 61.3557 71.2792 63.0191C70.8147 64.6826 70.4475 66.3136 70.1774 67.9338C69.9074 69.554 69.8966 70.6341 70.1342 71.2066H69.7346C69.5834 71.2066 69.4321 71.185 69.2917 71.1526C69.1513 71.1202 68.9893 71.0662 68.7841 70.9906C68.5788 70.915 68.4168 70.8178 68.2764 70.6881C68.136 70.5585 67.9956 70.3965 67.8335 70.1805C67.6823 69.9752 67.5635 69.716 67.5095 69.4136C67.4447 69.1111 67.3907 68.7655 67.3583 68.3766C67.3259 67.9878 67.3583 67.5233 67.4663 66.9941C67.6715 65.5899 68.1792 63.5916 68.9893 60.9993C69.7994 58.407 70.5555 56.1711 71.2468 54.2916L72.2837 51.4725H71.2144L72.8022 49.0962C72.8022 49.0962 72.8346 49.0421 72.8562 48.9881C70.8039 49.0962 68.6868 49.2474 66.4834 49.431C64.2799 49.6146 62.5949 49.755 61.4391 49.8739C60.2834 49.9819 59.6893 50.0359 59.6677 50.0359C59.5813 50.0143 59.3868 49.8198 59.106 49.431C58.8252 49.0529 58.5551 48.6749 58.2959 48.3076L57.9395 47.7568C58.2635 47.5191 63.5778 47.1951 73.8715 46.7955C76.6907 40.8331 78.4621 37.8843 79.1858 37.9599C79.499 37.9923 79.7799 38.1111 80.0175 38.3056C80.2659 38.5 80.4496 38.7052 80.5684 38.9212C80.6872 39.1373 80.806 39.3317 80.9248 39.5045C81.0436 39.6773 81.1517 39.7637 81.2381 39.7637C81.3137 39.7637 81.1517 40.0878 80.7736 40.7251C80.3848 41.3624 79.8123 42.2913 79.0454 43.5118C78.2785 44.7324 77.652 45.7909 77.1551 46.6874C81.4001 46.547 84.068 46.4822 85.1914 46.5254H85.2238Z" fill="white"/>
            <path d="M78.7323 59.2276C78.7863 59.26 78.8619 59.3032 78.97 59.3464C79.0672 59.3896 79.24 59.4976 79.4776 59.6489C79.7153 59.8001 79.9205 59.9513 80.0825 60.1025C80.2445 60.2537 80.3741 60.4158 80.4822 60.6102C80.5794 60.8046 80.5902 60.9774 80.493 61.1394C79.9637 62.144 79.3048 63.6022 78.5379 65.514C77.7602 67.4259 77.4362 68.7112 77.5658 69.3701C77.4902 69.3485 77.393 69.3269 77.2741 69.2837C77.1553 69.2513 76.9501 69.1649 76.6585 69.0353C76.3668 68.9056 76.1184 68.7544 75.9024 68.5816C75.6971 68.4088 75.5243 68.1712 75.3947 67.8579C75.2651 67.5447 75.2435 67.2206 75.3407 66.875C75.3947 66.605 75.5027 66.2593 75.6647 65.8381C75.8268 65.4168 76.0104 64.9739 76.2156 64.5095C76.4208 64.045 76.6261 63.559 76.8637 63.0621C77.0905 62.5652 77.3173 62.0792 77.5334 61.6255C77.7494 61.1718 77.9546 60.7614 78.1383 60.405C78.3219 60.0485 78.4623 59.7569 78.5811 59.5408L78.7431 59.2168L78.7323 59.2276Z" fill="white"/>
            <path d="M38.9387 26.3918C39.7056 26.3918 40.3645 26.8023 40.9046 27.6124C41.2826 28.1416 41.3798 28.4765 41.1962 28.5953C41.1638 28.6169 41.1206 28.6169 41.0666 28.6169C40.9046 28.5953 40.1161 28.6601 38.7011 28.7897C37.2753 28.9193 35.3959 29.1137 33.0412 29.373C30.6864 29.6322 28.3858 29.9131 26.1283 30.2155C24.4756 34.3956 23.1255 37.9061 22.0777 40.7469C19.9499 46.4176 18.9993 50.1117 19.2262 51.8399C19.2478 51.9587 19.2262 52.0343 19.2046 52.0559C19.1182 52.1315 18.9129 52.1207 18.6105 52.0343C18.2973 51.9479 17.984 51.7751 17.6492 51.5158C17.3251 51.2566 17.1091 50.9758 17.0227 50.6733C16.8499 50.1981 17.0227 48.9883 17.5844 47.0441C18.1352 45.0998 19.2802 41.4921 21.0192 36.2103C21.5161 34.7197 22.1858 32.8726 23.0175 30.6475C20.7492 30.9716 18.7617 31.2632 17.0767 31.5549C16.2018 31.7169 15.3161 31.9005 14.4088 32.1165C13.2854 34.9681 12.2593 37.6793 11.3196 40.2284C11.7084 40.5308 11.9136 41.0277 11.946 41.719C11.9676 42.4103 11.8704 43.134 11.6436 43.9009C11.4168 44.6678 11.1791 45.3266 10.9523 45.8991C10.7255 46.4716 10.5202 46.9144 10.3366 47.2277C10.1206 47.5949 9.69934 47.6381 9.06206 47.3357C8.29516 47.0009 7.7983 46.4176 7.57147 45.6075C7.43105 45.143 7.42025 44.6678 7.54987 44.1709C7.87391 43.0043 8.23035 41.773 8.64081 40.4984C8.30596 40.3904 7.91711 40.2716 7.48506 40.1312C7.053 39.9908 6.61015 39.8395 6.17809 39.6883C5.74603 39.5371 5.30318 39.3859 4.86032 39.2347C4.41746 39.0834 4.00701 38.943 3.63976 38.8134C3.26171 38.6838 2.93767 38.565 2.64603 38.4678C2.3544 38.3705 2.11677 38.2841 1.94394 38.2193L1.70631 38.1437L1.19865 37.7765C0.345337 36.9232 0.690982 35.9726 2.23558 34.9033C2.73244 34.5685 3.32652 34.2336 4.01781 33.9204C6.41572 32.905 9.08366 31.9653 12.0108 31.1012C13.1882 28.1092 14.4844 25.02 15.9209 21.8444C17.3575 18.6688 18.6753 15.882 19.8743 13.4949C21.0732 11.097 22.1966 8.92594 23.2335 6.94929C24.2704 4.98344 25.0805 3.47124 25.6746 2.42351L26.5819 0.878906C27.3272 0.878906 27.8997 1.05173 28.3101 1.39737C28.7206 1.74302 28.9582 2.17507 29.0122 2.70434C29.077 3.22281 29.0554 3.79528 28.9582 4.41096C28.861 5.02664 28.7098 5.59912 28.5046 6.13918C28.2993 6.67925 28.1049 7.13291 27.9321 7.51096C27.7593 7.87821 27.6297 8.09424 27.554 8.14824C27.4784 8.20225 27.3812 8.16985 27.23 8.04023C27.0896 7.92142 26.9492 7.75939 26.8088 7.56497C26.6683 7.37054 26.4847 7.17612 26.2795 6.9925C26.0635 6.80887 25.869 6.70086 25.6962 6.69006C23.6547 9.73605 20.1443 17.5887 15.1756 30.2263C17.93 29.5134 20.8464 28.8761 23.9356 28.3144C24.7133 26.327 25.5882 24.1451 26.5603 21.758C27.5324 19.3709 28.429 17.189 29.2607 15.2124C30.0924 13.2357 30.8809 11.3995 31.6046 9.70364C32.3283 8.00783 32.9115 6.69006 33.3328 5.72873L33.9701 4.29215C33.9701 4.29215 34.0997 4.34615 34.2077 4.38936C34.3157 4.43256 34.4993 4.51898 34.7694 4.63779C35.0394 4.76741 35.2662 4.88622 35.4607 5.00504C35.6551 5.13466 35.8279 5.27507 35.9791 5.42629C36.1304 5.58831 36.1844 5.73953 36.152 5.87995C35.3202 7.31654 32.3067 14.6075 27.122 27.7636C29.023 27.4611 30.9025 27.2019 32.7603 26.9751C34.6182 26.7482 36.0331 26.6078 37.0053 26.5214C37.9774 26.4458 38.6255 26.4026 38.9495 26.4026L38.9387 26.3918ZM9.07286 39.051C9.73175 37.0852 10.4446 35.0653 11.2331 33.0131C8.05753 34.0284 5.63802 35.0977 3.98541 36.2319C3.1861 36.8043 3.01328 37.1068 3.45614 37.1608C4.53628 37.1932 6.41572 37.8305 9.07286 39.051Z" fill="white"/>
            <path d="M53.8007 26.705C53.9627 26.867 53.6927 27.2667 52.9906 27.9148C52.2885 28.5628 51.0571 29.5998 49.2965 31.0364C48.3892 31.7601 47.309 32.2785 46.0561 32.581C44.8031 32.8834 43.6366 32.959 42.5564 32.8186C41.4763 32.6782 40.569 32.2785 39.8345 31.6088C39.1108 30.9391 38.7975 30.0858 38.9056 29.0381C38.992 28.0984 39.2512 27.1587 39.6941 26.2189C40.1261 25.2792 40.6014 24.5123 41.1198 23.9074C41.6383 23.3026 42.1136 22.8165 42.5564 22.4492C42.9993 22.082 43.3017 21.8876 43.4637 21.8876C44.4359 21.3043 45.3648 21.3367 46.2505 21.9848C47.1254 22.6329 47.5791 23.6914 47.6007 25.1604C47.6223 25.7113 47.4063 26.1973 46.9742 26.6402C46.5421 27.0722 45.9697 27.4179 45.2568 27.6771C44.5439 27.9364 43.8958 28.12 43.3125 28.2496C42.7293 28.3792 42.1352 28.4764 41.5303 28.5736C41.2819 29.4918 41.3575 30.2479 41.7571 30.8311C42.1568 31.4144 42.9993 31.706 44.2739 31.706C44.7167 31.706 45.2028 31.6088 45.7428 31.4144C46.2721 31.22 46.7906 30.9716 47.2766 30.6583C47.7627 30.3451 48.2488 29.9994 48.724 29.6214C49.1993 29.2433 49.6421 28.8653 50.031 28.4872C50.4198 28.12 50.7655 27.7743 51.0679 27.4611C51.3704 27.1479 51.5972 26.8994 51.7592 26.705L52.0293 26.4134C52.4397 26.2513 52.7854 26.2189 53.0662 26.2945C53.347 26.3702 53.5955 26.5106 53.8115 26.705H53.8007ZM44.2955 24.0155C43.9714 24.2855 43.5934 24.7175 43.1505 25.3224C42.7077 25.9273 42.3296 26.5538 42.0272 27.2127C42.8265 27.0182 43.4854 26.7914 44.0146 26.5322C44.5331 26.2729 44.9111 26.0353 45.1164 25.7977C45.3324 25.5709 45.462 25.3332 45.5052 25.0848C45.5484 24.8364 45.5376 24.6311 45.462 24.4583C45.3864 24.2855 45.2892 24.1451 45.1704 24.0155C45.0299 23.875 44.7383 23.875 44.2955 24.0155Z" fill="white"/>
            <path d="M62.5831 4.98318C63.2095 5.44764 63.566 6.09572 63.674 6.93823C63.782 7.78074 63.6956 8.67725 63.4256 9.63858C63.1447 10.5999 62.7127 11.6692 62.1186 12.8574C61.5245 14.0455 60.898 15.1581 60.25 16.1842C59.6019 17.2104 58.8782 18.2797 58.0789 19.3706C57.2796 20.4724 56.6207 21.3473 56.113 22.0062C55.5946 22.6651 55.0869 23.2915 54.59 23.8964C54.2012 25.3654 53.9095 26.7912 53.7151 28.163C53.5207 29.5347 53.4235 30.6689 53.4343 31.5654C53.4343 32.4619 53.4775 33.2504 53.5423 33.9417C53.6071 34.633 53.6827 35.1407 53.7691 35.4539L53.8987 35.9292C53.2399 35.9292 52.7106 35.778 52.3109 35.4755C51.9113 35.1731 51.6088 34.6546 51.3928 33.9309C51.1768 33.2072 51.1228 32.1919 51.2092 30.8957C51.2956 29.5996 51.5224 28.0009 51.8789 26.0783C52.3757 23.5292 53.3479 20.4508 54.7953 16.8647C56.2426 13.2786 57.7332 10.2543 59.2886 7.81314C60.8332 5.36123 61.935 4.4215 62.5939 4.97238L62.5831 4.98318ZM58.8566 13.1706C57.7548 15.3201 56.8151 17.4264 56.0374 19.5003C57.0852 17.9016 58.0681 16.2598 58.9754 14.5856C59.8935 12.9006 60.574 11.5504 61.0277 10.5459C61.4813 9.53056 61.6865 8.94729 61.6541 8.78527C61.6325 8.53684 61.4813 8.61245 61.2005 9.0229C60.898 9.49816 60.1203 10.8807 58.8566 13.1706Z" fill="white"/>
            <path d="M70.5645 4.98318C71.191 5.44764 71.5474 6.09572 71.6555 6.93823C71.7635 7.78074 71.6771 8.67725 71.407 9.63858C71.1262 10.5999 70.6941 11.6692 70.1 12.8574C69.506 14.0455 68.8795 15.1581 68.2314 16.1842C67.5833 17.2104 66.8596 18.2797 66.0603 19.3706C65.261 20.4724 64.6021 21.3473 64.0945 22.0062C63.576 22.6651 63.0683 23.2915 62.5715 23.8964C62.1826 25.3654 61.891 26.7912 61.6966 28.163C61.5021 29.5347 61.4049 30.6689 61.4157 31.5654C61.4157 32.4619 61.4589 33.2504 61.5237 33.9417C61.5886 34.633 61.6642 35.1407 61.7506 35.4539L61.8802 35.9292C61.2213 35.9292 60.692 35.778 60.2924 35.4755C59.8927 35.1731 59.5903 34.6546 59.3743 33.9309C59.1582 33.2072 59.1042 32.1919 59.1906 30.8957C59.2771 29.5996 59.5039 28.0009 59.8603 26.0783C60.3572 23.5292 61.3293 20.4508 62.7767 16.8647C64.2241 13.2786 65.7147 10.2543 67.2701 7.81314C68.8147 5.36123 69.9164 4.4215 70.5753 4.97238L70.5645 4.98318ZM66.838 13.1706C65.7363 15.3201 64.7966 17.4264 64.0189 19.5003C65.0666 17.9016 66.0495 16.2598 66.9568 14.5856C67.875 12.9006 68.5555 11.5504 69.0091 10.5459C69.4628 9.53056 69.668 8.94729 69.6356 8.78527C69.614 8.53684 69.4628 8.61245 69.1819 9.0229C68.8795 9.49816 68.1018 10.8807 66.838 13.1706Z" fill="white"/>
            <path d="M69.6038 22.7193C69.8198 22.8273 70.0791 23.0433 70.4031 23.3674C70.7271 23.6914 71.0512 24.0371 71.3968 24.4043C71.7425 24.7716 72.1421 25.1604 72.5958 25.5925C73.0494 26.0245 73.5679 26.381 74.1404 26.6834C74.7129 26.9858 75.3393 27.2235 76.0198 27.4179C76.6895 27.6015 77.478 27.6663 78.3745 27.5907C79.2711 27.5151 80.2216 27.2991 81.2369 26.921C81.2153 26.9534 81.1937 26.9966 81.1613 27.0506C81.1289 27.1047 81.0425 27.2019 80.9129 27.3531C80.7832 27.5043 80.632 27.6447 80.4592 27.7743C80.2864 27.904 80.0596 28.0444 79.7679 28.1848C79.4763 28.3252 79.1522 28.4332 78.7958 28.5088C78.4393 28.5844 78.0073 28.606 77.4888 28.606C76.9704 28.606 76.4195 28.5304 75.8362 28.4116C74.6481 28.1632 73.5139 27.7311 72.423 27.1047C72.369 27.4935 72.2717 27.9148 72.1421 28.3576C72.0125 28.8005 71.8181 29.2757 71.5588 29.7942C71.2996 30.3127 70.9972 30.7663 70.6407 31.166C70.2843 31.5656 69.8414 31.9005 69.3122 32.1597C68.7829 32.4189 68.1888 32.5486 67.5515 32.527C66.9791 32.5054 66.5038 32.3973 66.1042 32.1921C65.7045 31.9869 65.4129 31.7493 65.2292 31.4576C65.0456 31.1768 64.916 30.8203 64.8404 30.4099C64.7648 29.9886 64.7432 29.6106 64.7648 29.2649C64.7864 28.9193 64.8404 28.5196 64.9376 28.066C65.0348 27.6123 65.1104 27.2775 65.1752 27.0723C65.24 26.8562 65.3156 26.6186 65.4021 26.3594C65.5209 26.0245 65.7261 25.6141 65.9961 25.1496C66.2662 24.6851 66.601 24.2099 66.9791 23.7562C67.3571 23.2918 67.7892 22.9569 68.2752 22.7301C68.7505 22.5033 69.1933 22.5033 69.6038 22.7193ZM67.4975 30.4855C67.8 30.6799 68.1672 30.4963 68.6209 29.9454C69.0637 29.3837 69.4526 28.7141 69.7982 27.9364C70.1331 27.1587 70.3923 26.435 70.5759 25.7869C70.3059 25.5601 70.0683 25.3332 69.8414 25.1064C69.6146 24.8796 69.4634 24.7067 69.377 24.5879L69.2474 24.4259C69.2474 24.4259 69.1933 24.5231 69.1501 24.5987C69.1069 24.6743 69.0205 24.8472 68.9017 25.0956C68.7721 25.344 68.6533 25.5925 68.5237 25.8301C68.394 26.0677 68.2644 26.3594 68.124 26.6942C67.9836 27.029 67.854 27.3423 67.7352 27.6339C67.6163 27.9256 67.5191 28.228 67.4327 28.552C67.3463 28.8761 67.2815 29.1569 67.2491 29.4054C67.2167 29.6538 67.2167 29.8806 67.2599 30.075C67.3031 30.2695 67.3895 30.4099 67.5083 30.4963L67.4975 30.4855Z" fill="white"/>
            <path d="M39.1661 77.7198C45.8629 80.3337 52.7974 82.0295 60.0128 81.8567C65.9427 81.7055 71.6783 80.7334 77.0574 78.1626C81.0863 76.24 84.802 73.6909 88.334 70.9797C88.388 70.9365 89.0901 70.4396 89.0901 70.2884C89.0901 70.0832 89.0253 70.2452 88.8093 70.2776C88.0424 70.3748 86.8758 71.4982 86.2926 71.9518C77.1114 78.9944 64.6358 80.7766 53.4671 78.4327C49.8162 77.6658 46.2518 76.5316 42.7845 75.1815C42.3633 75.0194 41.1751 76.0456 40.8511 76.2724C40.6999 76.3804 39.1553 77.7198 39.1661 77.7198Z" fill="#FCE200"/>
            <path d="M81.777 52.2497C81.8634 52.0337 82.1442 52.0445 82.5979 52.3037C83.0515 52.5629 83.4728 52.8654 83.8616 53.2326C84.2505 53.5999 84.3909 53.8159 84.3045 53.8915C84.2505 53.9239 84.1533 54.0427 84.0344 54.2156C83.9048 54.3992 83.7644 54.6044 83.624 54.842C83.4728 55.0797 83.3324 55.3173 83.2027 55.5441C83.0623 55.771 82.9543 55.9654 82.8571 56.1274L82.7167 56.3434C81.7121 56.0302 81.1073 55.6629 80.9128 55.2201C80.8264 55.0149 80.848 54.6692 80.9993 54.1832C81.1505 53.6863 81.3125 53.2434 81.4961 52.8438L81.7986 52.2389L81.777 52.2497Z" fill="#FCE200"/>
            </g>
            <defs>
            <clipPath id="clip0_209_16609">
            <rect width="88.5714" height="81.0105" fill="white" transform="translate(0.712891 0.856934)"/>
            </clipPath>
            </defs>
            </svg>  