<svg width="24" height="28" viewBox="0 0 43 33" fill="none" xmlns="http://www.w3.org/2000/svg">
            <g clip-path="url(#clip0_4_1853)">
            <path fill-rule="evenodd" clip-rule="evenodd" d="M0.405273 0.804688H60.996V3.25875H0.405273V0.804688ZM0.405273 5.71274H60.996V8.1668H0.405273V5.71274ZM0.405273 10.6145H60.996V13.0748H0.405273V10.6145ZM0.405273 15.5226H60.996V17.9767H0.405273V15.5226ZM0.405273 20.4306H60.996V22.8847H0.405273V20.4306ZM0.405273 25.3324H60.996V27.7865H0.405273V25.3324ZM0.405273 30.2405H60.996V32.6946H0.405273V30.2405Z" fill="#BD3D44"/>
            <path fill-rule="evenodd" clip-rule="evenodd" d="M0.405273 3.25879H60.996V5.71278H0.405273V3.25879ZM0.405273 8.16677H60.996V10.6146H0.405273V8.16677ZM0.405273 13.0686H60.996V15.5226H0.405273V13.0686ZM0.405273 17.9767H60.996V20.4307H0.405273V17.9767ZM0.405273 22.8847H60.996V25.3387H0.405273V22.8847ZM0.405273 27.7866H60.996V30.2406H0.405273V27.7866Z" fill="white"/>
            <path fill-rule="evenodd" clip-rule="evenodd" d="M0.405273 0.804688H24.6403V17.9767H0.405273V0.804688Z" fill="#192F5D"/>
            <path fill-rule="evenodd" clip-rule="evenodd" d="M2.4235 1.54004L2.64772 2.21883H3.3578L2.78472 2.63619L3.00276 3.32129L2.4235 2.89775L1.85048 3.31504L2.06846 2.63619L1.48926 2.21883H2.21176L2.4235 1.54004ZM6.46581 1.54004L6.68379 2.21883H7.40005L6.82078 2.63619L7.03883 3.32129L6.46581 2.89775L5.88654 3.31504L6.10452 2.63619L5.5315 2.21883H6.24158L6.46581 1.54004ZM10.5019 1.54004L10.7261 2.21889H11.4299L10.8569 2.63625L11.0748 3.32135L10.4956 2.89782L9.9226 3.31511L10.1406 2.63625L9.56131 2.21889H10.2776L10.5019 1.54004ZM14.5442 1.54004L14.7621 2.21889H15.4784L14.8991 2.63625L15.1234 3.32135L14.5441 2.89782L13.9649 3.31511L14.1891 2.63625L13.6099 2.21889H14.3199L14.5442 1.54004ZM18.5802 1.54004L18.8045 2.21889H19.5145L18.9415 2.63625L19.1594 3.32135L18.5802 2.89782L18.0071 3.31511L18.2252 2.63625L17.6522 2.21889H18.3622L18.5802 1.54004ZM22.6225 1.54004L22.8405 2.21889H23.5568L22.9775 2.63625L23.2017 3.32135L22.6225 2.89782L22.0432 3.31511L22.2674 2.63625L21.6882 2.21889H22.4045L22.6225 1.54004ZM4.44777 3.25897L4.66575 3.93796H5.38201L4.80275 4.35518L5.01455 5.03417L4.45395 4.61681L3.87475 5.03411L4.08024 4.35525L3.51971 3.93789H4.22979L4.44777 3.25897ZM8.48384 3.25897L8.70806 3.93796H9.41808L8.83881 4.35518L9.0631 5.03417L8.48377 4.61681L7.90457 5.03411L8.1288 4.35525L7.54953 3.93789H8.26579L8.48384 3.25897ZM12.5261 3.25897L12.7441 3.93796H13.4604L12.8811 4.35518L13.0991 5.03417L12.5261 4.61681L11.9469 5.03411L12.1649 4.35532L11.5918 3.93796H12.3019L12.5261 3.25897ZM16.5622 3.25897L16.7864 3.93796H17.4964L16.9172 4.35518L17.1414 5.03417L16.5621 4.61681L15.9891 5.03411L16.2072 4.35525L15.6279 3.93789H16.3504L16.5622 3.25897ZM20.6044 3.25897L20.8224 3.93796H21.5388L20.9595 4.35518L21.1775 5.03417L20.6044 4.61681L20.0252 5.03411L20.2432 4.35525L19.6702 3.93789H20.3802L20.6044 3.25897ZM2.4235 4.97199L2.64772 5.66333H3.3578L2.78472 6.08062L3.00276 6.75955L2.4235 6.33601L1.85048 6.75955L2.06846 6.07438L1.48926 5.65715H2.21176L2.4235 4.97199ZM6.46581 4.97199L6.68379 5.65695H7.40005L6.82078 6.07425L7.03883 6.75324L6.46581 6.32963L5.88654 6.75317L6.10452 6.06807L5.5315 5.65078H6.24158L6.46581 4.97199ZM10.5019 4.97199L10.7261 5.65709H11.4299L10.8569 6.07438L11.0748 6.75337L10.4956 6.32976L9.9226 6.7533L10.1406 6.0682L9.56131 5.65091H10.2776L10.5019 4.97199ZM14.5442 4.97199L14.7621 5.65709H15.4784L14.8991 6.07438L15.1234 6.75337L14.5441 6.32976L13.9649 6.7533L14.1891 6.0682L13.6099 5.65091H14.3199L14.5442 4.97199ZM18.5802 4.97199L18.8045 5.65709H19.5145L18.9415 6.07431L19.1594 6.7533L18.5802 6.3297L18.0071 6.75324L18.2252 6.06814L17.6522 5.65084H18.3622L18.5802 4.97199ZM22.6225 4.97199L22.8405 5.65709H23.5568L22.9775 6.07438L23.2017 6.75337L22.6225 6.32976L22.0432 6.7533L22.2674 6.0682L21.6882 5.65091H22.4045L22.6225 4.97199ZM4.44777 6.69098L4.66575 7.36991H5.38201L4.80275 7.78713L5.0208 8.4723L4.44777 8.04876L3.86851 8.46605L4.08649 7.7872L3.51347 7.36991H4.22361L4.44777 6.69098ZM8.48384 6.69098L8.70806 7.36991H9.41808L8.83881 7.78713L9.0631 8.4723L8.48377 8.04876L7.90457 8.46605L8.1288 7.7872L7.54953 7.36991H8.26579L8.48384 6.69098ZM12.5261 6.69098L12.7441 7.36991H13.4604L12.8811 7.78713L13.0991 8.4723L12.5261 8.04876L11.9469 8.46605L12.1649 7.7872L11.5918 7.36991H12.3019L12.5261 6.69098ZM16.5622 6.69098L16.7864 7.36991H17.4964L16.9234 7.78713L17.1414 8.4723L16.5621 8.04876L15.9891 8.46605L16.2072 7.7872L15.6279 7.36991H16.3504L16.5622 6.69098ZM20.6044 6.69098L20.8224 7.36991H21.5388L20.9595 7.78713L21.1775 8.4723L20.6044 8.04876L20.0252 8.46605L20.2432 7.7872L19.6702 7.36991H20.3802L20.6044 6.69098ZM2.4235 8.41005L2.64772 9.08897H3.3578L2.78472 9.5062L3.00276 10.1914L2.4235 9.76783L1.85048 10.1851L2.06846 9.50626L1.48926 9.08897H2.21176L2.4235 8.41005ZM6.46581 8.41005L6.68379 9.08897H7.40005L6.82078 9.5062L7.03883 10.1852L6.46581 9.76783L5.88654 10.1851L6.10452 9.50626L5.5315 9.08897H6.24158L6.46581 8.41005ZM10.5019 8.41005L10.7261 9.08897H11.4299L10.8569 9.5062L11.0748 10.1914L10.4956 9.76783L9.9226 10.1851L10.1406 9.50626L9.56131 9.08897H10.2776L10.5019 8.41005ZM14.5442 8.41005L14.7621 9.08897H15.4784L14.8991 9.5062L15.1234 10.1914L14.5441 9.76783L13.9649 10.1851L14.1891 9.50626L13.6099 9.08897H14.3199L14.5442 8.41005ZM18.5802 8.41005L18.8045 9.08897H19.5145L18.9415 9.5062L19.1594 10.1914L18.5802 9.76783L18.0071 10.1851L18.2252 9.50626L17.6522 9.08897H18.3622L18.5802 8.41005ZM22.6225 8.41005L22.8405 9.08897H23.5568L22.9775 9.5062L23.2017 10.1914L22.6225 9.76783L22.0432 10.1851L22.2674 9.50626L21.6882 9.08897H22.4045L22.6225 8.41005ZM4.44777 10.1291L4.66575 10.808H5.38201L4.80275 11.2253L5.0208 11.9042L4.44777 11.4807L3.86851 11.9042L4.08649 11.2191L3.51347 10.8018H4.22361L4.44777 10.1291ZM8.48384 10.1291L8.70806 10.808H9.41808L8.83881 11.2253L9.0631 11.9042L8.48377 11.4807L7.90457 11.9042L8.1288 11.2191L7.54953 10.8018H8.26579L8.48384 10.1291ZM12.5261 10.1291L12.7441 10.808H13.4604L12.8811 11.2253L13.0991 11.9042L12.5261 11.4807L11.9469 11.9042L12.1649 11.2191L11.5918 10.8018H12.3019L12.5261 10.1291ZM16.5622 10.1291L16.7864 10.808H17.4964L16.9234 11.2253L17.1414 11.9042L16.5621 11.4807L15.9891 11.9042L16.2072 11.2191L15.6279 10.8018H16.3504L16.5622 10.1291ZM20.6044 10.1291L20.8224 10.808H21.5388L20.9595 11.2253L21.1775 11.9042L20.6044 11.4807L20.0252 11.9042L20.2432 11.2191L19.6702 10.8018H20.3802L20.6044 10.1291ZM2.4235 11.8419L2.64772 12.5271H3.3578L2.78472 12.9443L3.00276 13.6171L2.4235 13.1998L1.85048 13.617L2.06846 12.9381L1.48926 12.5209H2.21176L2.4235 11.8419ZM6.46581 11.8419L6.68379 12.5271H7.40005L6.82078 12.9443L7.04507 13.6171L6.46574 13.1998L5.88654 13.617L6.11076 12.9381L5.5315 12.5209H6.24158L6.46581 11.8419ZM10.5019 11.8419L10.7261 12.5271H11.4299L10.8569 12.9443L11.0748 13.6171L10.4956 13.1998L9.9226 13.617L10.1406 12.9381L9.56131 12.5209H10.2776L10.5019 11.8419ZM14.5442 11.8419L14.7621 12.5271H15.4784L14.8991 12.9443L15.1234 13.6171L14.5441 13.1998L13.9649 13.617L14.1891 12.9381L13.6099 12.5209H14.3199L14.5442 11.8419ZM18.5802 11.8419L18.8045 12.5271H19.5145L18.9415 12.9443L19.1594 13.6171L18.5802 13.1998L18.0071 13.617L18.2252 12.9381L17.6522 12.5209H18.3622L18.5802 11.8419ZM22.6225 11.8419L22.8405 12.5271H23.5568L22.9775 12.9443L23.2017 13.6171L22.6225 13.1998L22.0432 13.617L22.2674 12.9381L21.6882 12.5209H22.4045L22.6225 11.8419ZM4.44777 13.561L4.66575 14.2399H5.38201L4.80275 14.6572L5.0208 15.3424L4.44777 14.9188L3.86851 15.3361L4.08649 14.6572L3.51347 14.2399H4.22361L4.44777 13.561ZM8.48384 13.561L8.70806 14.2399H9.41808L8.83881 14.6572L9.0631 15.3424L8.48377 14.9188L7.90457 15.3361L8.1288 14.6572L7.54953 14.2399H8.26579L8.48384 13.561ZM12.5261 13.561L12.7441 14.2399H13.4604L12.8811 14.6572L13.0991 15.3424L12.5261 14.9188L11.9469 15.3361L12.1649 14.6572L11.5918 14.2399H12.3019L12.5261 13.561ZM16.5622 13.561L16.7864 14.2399H17.4964L16.9234 14.6572L17.1414 15.3424L16.5621 14.9188L15.9891 15.3361L16.2072 14.6572L15.6279 14.2399H16.3504L16.5622 13.561ZM20.6044 13.561L20.8224 14.2399H21.5388L20.9595 14.6572L21.1775 15.3424L20.6044 14.9188L20.0252 15.3361L20.2432 14.6572L19.6702 14.2399H20.3802L20.6044 13.561ZM2.4235 15.2801L2.64772 15.959H3.3578L2.78472 16.3763L3.00276 17.0552L2.4235 16.6379L1.85048 17.0551L2.06846 16.37L1.48926 15.9527H2.21176L2.4235 15.2801ZM6.46581 15.2801L6.68379 15.959H7.40005L6.82078 16.3763L7.04507 17.0552L6.46574 16.6379L5.88654 17.0551L6.11076 16.37L5.5315 15.9527H6.24158L6.46581 15.2801ZM10.5019 15.2801L10.7261 15.959H11.4299L10.8693 16.3763L11.0873 17.0552L10.508 16.6379L9.93502 17.0551L10.1531 16.37L9.5738 15.9527H10.2901L10.5019 15.2801ZM14.5442 15.2801L14.7621 15.959H15.4784L14.8991 16.3763L15.1234 17.0552L14.5441 16.6379L13.9649 17.0551L14.1891 16.37L13.6099 15.9527H14.3199L14.5442 15.2801ZM18.5802 15.2801L18.8045 15.959H19.5145L18.9415 16.3763L19.1594 17.0552L18.5802 16.6379L18.0071 17.0551L18.2252 16.37L17.6522 15.9527H18.3622L18.5802 15.2801ZM22.6225 15.2801L22.8405 15.959H23.5568L22.9775 16.3763L23.2017 17.0552L22.6225 16.6379L22.0432 17.0551L22.2674 16.37L21.6882 15.9527H22.4045L22.6225 15.2801Z" fill="white"/>
            </g>
            <defs>
            <clipPath id="clip0_4_1853">
            <rect x="0.40625" y="0.804688" width="42.5198" height="31.8899" rx="6.25292" fill="white"/>
            </clipPath>
            </defs>
            </svg>
            