          <svg width="26" height="28" viewBox="0 0 26 28" fill="none" xmlns="http://www.w3.org/2000/svg">
            <path fill-rule="evenodd" clip-rule="evenodd" d="M11.7042 3.87995C11.7042 2.95035 12.4046 2.19995 13.2724 2.19995C14.1401 2.19995 14.8406 2.95035 14.8406 3.87995V5.19035C18.1233 5.95195 20.5906 9.08795 20.5906 12.84V19.56L22.6815 21.8V22.92H3.86328V21.8L5.95419 19.56V12.84C5.95419 9.08795 8.42146 5.95195 11.7042 5.19035V3.87995ZM13.2724 7.23995C16.1578 7.23995 18.4996 9.74875 18.4996 12.84V20.68H8.0451V12.84C8.0451 9.74875 10.3869 7.23995 13.2724 7.23995ZM11.1919 24.0512C11.1919 25.2832 12.1224 26.28 13.2724 26.28C14.4224 26.28 15.3528 25.2832 15.3528 24.0512H11.1919ZM14.3178 9.47995V13.96H12.2269V9.47995H14.3178ZM14.3178 18.44V16.2H12.2269V18.44H14.3178Z" fill="white"/>
            <ellipse cx="18.4997" cy="8.64016" rx="4.18182" ry="4.48" fill="#F9A825"/>
            </svg>     