    <svg width="24" height="28" viewBox="0 0 35 35" fill="none" xmlns="http://www.w3.org/2000/svg">
            <path fill-rule="evenodd" clip-rule="evenodd" d="M15.5469 4.7417C15.5469 3.57451 16.4891 2.63232 17.6562 2.63232C18.8234 2.63232 19.7656 3.57451 19.7656 4.7417V6.38701C24.1812 7.34326 27.5 11.2808 27.5 15.9917V24.4292L30.3125 27.2417V28.6479H5V27.2417L7.8125 24.4292V15.9917C7.8125 11.2808 11.1312 7.34326 15.5469 6.38701V4.7417ZM17.6563 8.96045C21.5375 8.96045 24.6875 12.1104 24.6875 15.9917V25.8354H10.625V15.9917C10.625 12.1104 13.775 8.96045 17.6563 8.96045ZM14.8575 30.0679C14.8575 31.6148 16.109 32.8664 17.6559 32.8664C19.2028 32.8664 20.4544 31.6148 20.4544 30.0679H14.8575ZM16.25 11.7729H19.0625V17.3979H16.25V11.7729ZM19.0625 20.2104H16.25V23.0229H19.0625V20.2104Z" fill="url(#paint0_linear_4_1847)"/>
            <circle cx="24.6875" cy="10.7183" r="5.625" fill="#FFDD00"/>
            <defs>
            <linearGradient id="paint0_linear_4_1847" x1="17.6562" y1="2.63232" x2="17.6563" y2="32.8664" gradientUnits="userSpaceOnUse">
            <stop stop-color="#2B3A8A"/>
            <stop offset="0.244792" stop-color="#2B3E76"/>
            <stop offset="0.489583" stop-color="#2B416A"/>
            <stop offset="0.75" stop-color="#212E46"/>
            <stop offset="1" stop-color="#1A2231"/>
            </linearGradient>
            </defs>
    </svg>
