          <svg width="21" height="30" viewBox="0 0 29 30" fill="none" xmlns="http://www.w3.org/2000/svg">
            <g clip-path="url(#clip0_383_1762)">
            <path d="M14.4283 0.571533C12.5415 0.571533 10.9997 2.11333 10.9997 4.0001C10.9997 5.88688 12.5415 7.42868 14.4283 7.42868C16.3151 7.42868 17.8569 5.88688 17.8569 4.0001C17.8569 2.11333 16.3151 0.571533 14.4283 0.571533ZM14.4283 1.71439C15.6974 1.71439 16.714 2.73097 16.714 4.0001C16.714 5.26924 15.6974 6.28582 14.4283 6.28582C13.1592 6.28582 12.1426 5.26924 12.1426 4.0001C12.1426 2.73097 13.1592 1.71439 14.4283 1.71439ZM12.714 8.0001C10.5166 8.0001 8.71401 9.8027 8.71401 12.0001V13.7144H9.85687V12.0001C9.85687 10.4261 11.14 9.14296 12.714 9.14296H16.1426C17.7166 9.14296 18.9997 10.4261 18.9997 12.0001V13.7144H20.1426V12.0001C20.1426 9.8027 18.34 8.0001 16.1426 8.0001H12.714ZM24.1426 11.4287V12.0001H24.714H25.2854V11.4287H24.1426ZM24.714 12.0001C23.3413 12.0001 22.1785 12.9882 21.9104 14.2858H0.714012C0.696165 14.285 0.678288 14.285 0.660441 14.2858C0.518361 14.2992 0.386432 14.3653 0.2906 14.471C0.194768 14.5768 0.141968 14.7145 0.142583 14.8572V17.143C0.142599 17.2945 0.202807 17.4398 0.309968 17.547C0.417128 17.6542 0.562464 17.7144 0.714012 17.7144H1.28544V28.5715C1.28546 28.7231 1.34566 28.8684 1.45282 28.9756C1.55999 29.0827 1.70532 29.1429 1.85687 29.143H26.9997C27.1513 29.1429 27.2966 29.0827 27.4038 28.9756C27.5109 28.8684 27.5711 28.7231 27.5712 28.5715V17.7144H28.1426C28.2941 17.7144 28.4395 17.6542 28.5466 17.547C28.6538 17.4398 28.714 17.2945 28.714 17.143V14.8572C28.714 14.7057 28.6538 14.5604 28.5466 14.4532C28.4395 14.346 28.2941 14.2858 28.1426 14.2858H27.5176C27.2495 12.9882 26.0867 12.0001 24.714 12.0001ZM24.714 13.143C25.4566 13.143 26.0834 13.6242 26.3212 14.2858H23.1069C23.3446 13.6242 23.9714 13.143 24.714 13.143ZM1.28544 15.4287H27.5712V16.5715H1.96401C1.88745 16.5557 1.80844 16.5557 1.73187 16.5715H1.28544V15.4287ZM2.4283 17.7144H26.4283V28.0001H2.4283V17.7144Z" fill="white"/>
            </g>
            <defs>
            <clipPath id="clip0_383_1762">
            <rect width="28.5714" height="28.5714" fill="white" transform="translate(0.142578 0.571533)"/>
            </clipPath>
            </defs>
            </svg>