            <svg width="21" height="35" viewBox="0 0 35 35" fill="none" xmlns="http://www.w3.org/2000/svg">
              <g clip-path="url(#clip0_209_16602)">
              <path d="M0.713867 26.2859V24.3931C0.713867 23.4748 1.20791 22.7274 2.19601 22.1508C3.18411 21.5742 4.48025 21.2859 6.08444 21.2859C6.37408 21.2859 6.65259 21.2919 6.91997 21.3038C7.18733 21.3157 7.45196 21.3413 7.71387 21.3806C7.52339 21.7937 7.38053 22.2123 7.2853 22.6365C7.19006 23.0607 7.14244 23.5034 7.14244 23.9645V26.2859H0.713867ZM9.2853 26.2859V23.9645C9.2853 23.2026 9.49363 22.5062 9.9103 21.8752C10.327 21.2443 10.9162 20.6907 11.6782 20.2145C12.4401 19.7383 13.3508 19.3812 14.4103 19.1431C15.4698 18.905 16.6186 18.7859 17.8567 18.7859C19.1186 18.7859 20.2793 18.905 21.3389 19.1431C22.3984 19.3812 23.3091 19.7383 24.071 20.2145C24.8329 20.6907 25.4162 21.2443 25.821 21.8752C26.2258 22.5062 26.4282 23.2026 26.4282 23.9645V26.2859H9.2853ZM28.571 26.2859V23.9645C28.571 23.4916 28.5293 23.046 28.446 22.6277C28.3627 22.2094 28.2258 21.7946 28.0353 21.3833C28.2972 21.3422 28.5611 21.3157 28.8271 21.3038C29.0931 21.2919 29.3649 21.2859 29.6424 21.2859C31.2496 21.2859 32.5442 21.5689 33.5264 22.1348C34.5085 22.7007 34.9996 23.4534 34.9996 24.3931V26.2859H28.571ZM11.4282 24.1431H24.2853V23.9288C24.2853 23.0478 23.6841 22.3276 22.4817 21.7681C21.2793 21.2085 19.7377 20.9288 17.8567 20.9288C15.9758 20.9288 14.4341 21.2085 13.2317 21.7681C12.0293 22.3276 11.4282 23.0597 11.4282 23.9645V24.1431ZM6.05555 20.2145C5.37538 20.2145 4.79125 19.9697 4.30315 19.4801C3.81506 18.9905 3.57101 18.402 3.57101 17.7145C3.57101 17.024 3.8158 16.4347 4.30537 15.9466C4.79496 15.4585 5.38351 15.2145 6.07101 15.2145C6.76149 15.2145 7.35077 15.4585 7.83887 15.9466C8.32696 16.4347 8.57101 17.0292 8.57101 17.73C8.57101 18.4101 8.32696 18.9943 7.83887 19.4824C7.35077 19.9704 6.75633 20.2145 6.05555 20.2145ZM29.627 20.2145C28.9468 20.2145 28.3627 19.9697 27.8746 19.4801C27.3865 18.9905 27.1424 18.402 27.1424 17.7145C27.1424 17.024 27.3872 16.4347 27.8768 15.9466C28.3664 15.4585 28.9549 15.2145 29.6424 15.2145C30.3329 15.2145 30.9222 15.4585 31.4103 15.9466C31.8984 16.4347 32.1424 17.0292 32.1424 17.73C32.1424 18.4101 31.8984 18.9943 31.4103 19.4824C30.9222 19.9704 30.3278 20.2145 29.627 20.2145ZM17.8567 17.7145C16.6662 17.7145 15.6543 17.2978 14.821 16.4645C13.9877 15.6312 13.571 14.6193 13.571 13.4288C13.571 12.2145 13.9877 11.1966 14.821 10.3752C15.6543 9.55378 16.6662 9.14307 17.8567 9.14307C19.071 9.14307 20.0889 9.55378 20.9103 10.3752C21.7317 11.1966 22.1424 12.2145 22.1424 13.4288C22.1424 14.6193 21.7317 15.6312 20.9103 16.4645C20.0889 17.2978 19.071 17.7145 17.8567 17.7145ZM17.8693 15.5716C18.4799 15.5716 18.9877 15.3651 19.3924 14.952C19.7972 14.5388 19.9996 14.0269 19.9996 13.4162C19.9996 12.8056 19.7954 12.2978 19.3871 11.8931C18.9788 11.4883 18.4729 11.2859 17.8693 11.2859C17.2657 11.2859 16.7555 11.4901 16.3389 11.8984C15.9222 12.3067 15.7139 12.8126 15.7139 13.4162C15.7139 14.0198 15.9204 14.53 16.3335 14.9466C16.7467 15.3633 17.2586 15.5716 17.8693 15.5716Z" fill="white"/>
              </g>
              <defs>
              <clipPath id="clip0_209_16602">
              <rect width="34.2857" height="34.2857" fill="white" transform="translate(0.713867 0.571533)"/>
              </clipPath>
              </defs>
              </svg>   