          <svg width="21" height="30" viewBox="0 0 29 30" fill="none" xmlns="http://www.w3.org/2000/svg">
            <path d="M16.3042 19.0241C16.6334 19.0241 16.9191 18.903 17.1613 18.6609C17.4034 18.4188 17.5244 18.1331 17.5244 17.8038C17.5244 17.4746 17.4034 17.1889 17.1613 16.9467C16.9191 16.7046 16.6334 16.5836 16.3042 16.5836C15.9749 16.5836 15.6892 16.7046 15.4471 16.9467C15.205 17.1889 15.0839 17.4746 15.0839 17.8038C15.0839 18.1331 15.205 18.4188 15.4471 18.6609C15.6892 18.903 15.9749 19.0241 16.3042 19.0241ZM15.5601 15.2741H16.9589C16.9986 14.6987 17.0829 14.2721 17.2119 13.9943C17.3409 13.7165 17.6633 13.3296 18.1792 12.8336C18.7149 12.3177 19.0869 11.8674 19.2952 11.4825C19.5036 11.0977 19.6077 10.6453 19.6077 10.1253C19.6077 9.2149 19.2952 8.47144 18.6702 7.89487C18.0452 7.3183 17.2268 7.03002 16.2149 7.03002C15.4609 7.03002 14.7863 7.23339 14.1911 7.64014C13.5958 8.04688 13.1593 8.61732 12.8816 9.35145L14.2208 9.91692C14.4391 9.42089 14.7119 9.04391 15.0393 8.78597C15.3667 8.52803 15.7585 8.39907 16.2149 8.39907C16.8057 8.39907 17.2858 8.56772 17.655 8.90502C18.0243 9.24232 18.2089 9.66891 18.2089 10.1848C18.2089 10.5816 18.1197 10.9288 17.9411 11.2264C17.7625 11.5241 17.445 11.8415 16.9887 12.1788C16.3538 12.7542 15.957 13.2155 15.7982 13.5628C15.6395 13.91 15.5601 14.4804 15.5601 15.2741ZM7.88156 23.1907C7.40537 23.1907 6.9887 23.0122 6.63156 22.655C6.27441 22.2979 6.09584 21.8812 6.09584 21.405V4.73835C6.09584 4.26216 6.27441 3.84549 6.63156 3.48835C6.9887 3.13121 7.40537 2.95264 7.88156 2.95264H24.5482C25.0244 2.95264 25.4411 3.13121 25.7982 3.48835C26.1554 3.84549 26.3339 4.26216 26.3339 4.73835V21.405C26.3339 21.8812 26.1554 22.2979 25.7982 22.655C25.4411 23.0122 25.0244 23.1907 24.5482 23.1907H7.88156ZM7.88156 21.405H24.5482V4.73835H7.88156V21.405ZM4.31013 26.7622C3.83394 26.7622 3.41727 26.5836 3.06013 26.2264C2.70299 25.8693 2.52441 25.4526 2.52441 24.9764V6.52407H4.31013V24.9764H22.7625V26.7622H4.31013Z" fill="white"/>
            </svg>