<svg width="71" height="71" viewBox="0 0 71 71" fill="none" xmlns="http://www.w3.org/2000/svg">
<rect x="6.85547" y="7" width="57.1429" height="57.1429" rx="14.2857" fill="#FFDD00"/>
<g filter="url(#filter0_d_723_6649)">
<path d="M24.5949 29.1092C24.5949 28.2218 24.5955 27.6125 24.6294 27.1382C24.6625 26.6741 24.7235 26.4219 24.8035 26.2387C25.0557 25.6606 25.5171 25.1992 26.0951 24.947C26.2783 24.8671 26.5306 24.8061 26.9946 24.7729C27.469 24.7391 28.0783 24.7384 28.9656 24.7384C29.853 24.7384 30.4623 24.7391 30.9366 24.7729C31.4006 24.8061 31.6529 24.8671 31.8361 24.947C32.4142 25.1992 32.8756 25.6606 33.1278 26.2387C33.2077 26.4219 33.2687 26.6741 33.3018 27.1382C33.3357 27.6125 33.3364 28.2218 33.3364 29.1092C33.3364 29.9965 33.3357 30.6058 33.3018 31.0801C33.2687 31.5442 33.2077 31.7964 33.1278 31.9796C32.8756 32.5577 32.4142 33.0191 31.8361 33.2713C31.6529 33.3513 31.4006 33.4122 30.9366 33.4454C30.4623 33.4793 29.853 33.4799 28.9656 33.4799C28.0783 33.4799 27.469 33.4793 26.9946 33.4454C26.5306 33.4122 26.2783 33.3513 26.0951 33.2713C25.5171 33.0191 25.0557 32.5577 24.8035 31.9796C24.7235 31.7964 24.6625 31.5442 24.6294 31.0801C24.5955 30.6058 24.5949 29.9965 24.5949 29.1092Z" stroke="#D9D9D9" stroke-width="2.14286"/>
<path d="M24.5949 29.1092C24.5949 28.2218 24.5955 27.6125 24.6294 27.1382C24.6625 26.6741 24.7235 26.4219 24.8035 26.2387C25.0557 25.6606 25.5171 25.1992 26.0951 24.947C26.2783 24.8671 26.5306 24.8061 26.9946 24.7729C27.469 24.7391 28.0783 24.7384 28.9656 24.7384C29.853 24.7384 30.4623 24.7391 30.9366 24.7729C31.4006 24.8061 31.6529 24.8671 31.8361 24.947C32.4142 25.1992 32.8756 25.6606 33.1278 26.2387C33.2077 26.4219 33.2687 26.6741 33.3018 27.1382C33.3357 27.6125 33.3364 28.2218 33.3364 29.1092C33.3364 29.9965 33.3357 30.6058 33.3018 31.0801C33.2687 31.5442 33.2077 31.7964 33.1278 31.9796C32.8756 32.5577 32.4142 33.0191 31.8361 33.2713C31.6529 33.3513 31.4006 33.4122 30.9366 33.4454C30.4623 33.4793 29.853 33.4799 28.9656 33.4799C28.0783 33.4799 27.469 33.4793 26.9946 33.4454C26.5306 33.4122 26.2783 33.3513 26.0951 33.2713C25.5171 33.0191 25.0557 32.5577 24.8035 31.9796C24.7235 31.7964 24.6625 31.5442 24.6294 31.0801C24.5955 30.6058 24.5949 29.9965 24.5949 29.1092Z" stroke="black" stroke-opacity="0.2" stroke-width="2.14286"/>
<path d="M24.5949 42.034C24.5949 41.1466 24.5955 40.5373 24.6294 40.063C24.6625 39.5989 24.7235 39.3467 24.8035 39.1635C25.0557 38.5854 25.5171 38.124 26.0951 37.8718C26.2783 37.7919 26.5306 37.7309 26.9946 37.6978C27.469 37.6639 28.0783 37.6632 28.9656 37.6632C29.853 37.6632 30.4623 37.6639 30.9366 37.6978C31.4006 37.7309 31.6529 37.7919 31.8361 37.8718C32.4142 38.124 32.8756 38.5854 33.1278 39.1635C33.2077 39.3467 33.2687 39.5989 33.3018 40.063C33.3357 40.5373 33.3364 41.1466 33.3364 42.034C33.3364 42.9213 33.3357 43.5306 33.3018 44.0049C33.2687 44.469 33.2077 44.7212 33.1278 44.9045C32.8756 45.4825 32.4142 45.9439 31.8361 46.1961C31.6529 46.2761 31.4006 46.337 30.9366 46.3702C30.4623 46.4041 29.853 46.4047 28.9656 46.4047C28.0783 46.4047 27.469 46.4041 26.9946 46.3702C26.5306 46.337 26.2783 46.2761 26.0951 46.1961C25.5171 45.9439 25.0557 45.4825 24.8035 44.9045C24.7235 44.7212 24.6625 44.469 24.6294 44.0049C24.5955 43.5306 24.5949 42.9213 24.5949 42.034Z" stroke="#D9D9D9" stroke-width="2.14286"/>
<path d="M24.5949 42.034C24.5949 41.1466 24.5955 40.5373 24.6294 40.063C24.6625 39.5989 24.7235 39.3467 24.8035 39.1635C25.0557 38.5854 25.5171 38.124 26.0951 37.8718C26.2783 37.7919 26.5306 37.7309 26.9946 37.6978C27.469 37.6639 28.0783 37.6632 28.9656 37.6632C29.853 37.6632 30.4623 37.6639 30.9366 37.6978C31.4006 37.7309 31.6529 37.7919 31.8361 37.8718C32.4142 38.124 32.8756 38.5854 33.1278 39.1635C33.2077 39.3467 33.2687 39.5989 33.3018 40.063C33.3357 40.5373 33.3364 41.1466 33.3364 42.034C33.3364 42.9213 33.3357 43.5306 33.3018 44.0049C33.2687 44.469 33.2077 44.7212 33.1278 44.9045C32.8756 45.4825 32.4142 45.9439 31.8361 46.1961C31.6529 46.2761 31.4006 46.337 30.9366 46.3702C30.4623 46.4041 29.853 46.4047 28.9656 46.4047C28.0783 46.4047 27.469 46.4041 26.9946 46.3702C26.5306 46.337 26.2783 46.2761 26.0951 46.1961C25.5171 45.9439 25.0557 45.4825 24.8035 44.9045C24.7235 44.7212 24.6625 44.469 24.6294 44.0049C24.5955 43.5306 24.5949 42.9213 24.5949 42.034Z" stroke="black" stroke-opacity="0.2" stroke-width="2.14286"/>
<path d="M37.5167 29.1092C37.5167 28.2218 37.5174 27.6125 37.5513 27.1382C37.5844 26.6741 37.6454 26.4219 37.7253 26.2387C37.9775 25.6606 38.4389 25.1992 39.017 24.947C39.2002 24.8671 39.4525 24.8061 39.9165 24.7729C40.3908 24.7391 41.0001 24.7384 41.8875 24.7384C42.7748 24.7384 43.3841 24.7391 43.8585 24.7729C44.3225 24.8061 44.5748 24.8671 44.758 24.947C45.336 25.1992 45.7974 25.6606 46.0496 26.2387C46.1296 26.4219 46.1906 26.6741 46.2237 27.1382C46.2576 27.6125 46.2582 28.2218 46.2582 29.1092C46.2582 29.9965 46.2576 30.6058 46.2237 31.0801C46.1906 31.5442 46.1296 31.7964 46.0496 31.9796C45.7974 32.5577 45.336 33.0191 44.758 33.2713C44.5748 33.3513 44.3225 33.4122 43.8585 33.4454C43.3841 33.4793 42.7748 33.4799 41.8875 33.4799C41.0001 33.4799 40.3908 33.4793 39.9165 33.4454C39.4525 33.4122 39.2002 33.3513 39.017 33.2713C38.4389 33.0191 37.9775 32.5577 37.7253 31.9796C37.6454 31.7964 37.5844 31.5442 37.5513 31.0801C37.5174 30.6058 37.5167 29.9965 37.5167 29.1092Z" stroke="#D9D9D9" stroke-width="2.14286"/>
<path d="M37.5167 29.1092C37.5167 28.2218 37.5174 27.6125 37.5513 27.1382C37.5844 26.6741 37.6454 26.4219 37.7253 26.2387C37.9775 25.6606 38.4389 25.1992 39.017 24.947C39.2002 24.8671 39.4525 24.8061 39.9165 24.7729C40.3908 24.7391 41.0001 24.7384 41.8875 24.7384C42.7748 24.7384 43.3841 24.7391 43.8585 24.7729C44.3225 24.8061 44.5748 24.8671 44.758 24.947C45.336 25.1992 45.7974 25.6606 46.0496 26.2387C46.1296 26.4219 46.1906 26.6741 46.2237 27.1382C46.2576 27.6125 46.2582 28.2218 46.2582 29.1092C46.2582 29.9965 46.2576 30.6058 46.2237 31.0801C46.1906 31.5442 46.1296 31.7964 46.0496 31.9796C45.7974 32.5577 45.336 33.0191 44.758 33.2713C44.5748 33.3513 44.3225 33.4122 43.8585 33.4454C43.3841 33.4793 42.7748 33.4799 41.8875 33.4799C41.0001 33.4799 40.3908 33.4793 39.9165 33.4454C39.4525 33.4122 39.2002 33.3513 39.017 33.2713C38.4389 33.0191 37.9775 32.5577 37.7253 31.9796C37.6454 31.7964 37.5844 31.5442 37.5513 31.0801C37.5174 30.6058 37.5167 29.9965 37.5167 29.1092Z" stroke="black" stroke-opacity="0.2" stroke-width="2.14286"/>
<path d="M37.5167 42.034C37.5167 41.1466 37.5174 40.5373 37.5513 40.063C37.5844 39.5989 37.6454 39.3467 37.7253 39.1635C37.9775 38.5854 38.4389 38.124 39.017 37.8718C39.2002 37.7919 39.4525 37.7309 39.9165 37.6978C40.3908 37.6639 41.0001 37.6632 41.8875 37.6632C42.7748 37.6632 43.3841 37.6639 43.8585 37.6978C44.3225 37.7309 44.5748 37.7919 44.758 37.8718C45.336 38.124 45.7974 38.5854 46.0496 39.1635C46.1296 39.3467 46.1906 39.5989 46.2237 40.063C46.2576 40.5373 46.2582 41.1466 46.2582 42.034C46.2582 42.9213 46.2576 43.5306 46.2237 44.0049C46.1906 44.469 46.1296 44.7212 46.0496 44.9045C45.7974 45.4825 45.336 45.9439 44.758 46.1961C44.5748 46.2761 44.3225 46.337 43.8585 46.3702C43.3841 46.4041 42.7748 46.4047 41.8875 46.4047C41.0001 46.4047 40.3908 46.4041 39.9165 46.3702C39.4525 46.337 39.2002 46.2761 39.017 46.1961C38.4389 45.9439 37.9775 45.4825 37.7253 44.9045C37.6454 44.7212 37.5844 44.469 37.5513 44.0049C37.5174 43.5306 37.5167 42.9213 37.5167 42.034Z" stroke="#D9D9D9" stroke-width="2.14286"/>
<path d="M37.5167 42.034C37.5167 41.1466 37.5174 40.5373 37.5513 40.063C37.5844 39.5989 37.6454 39.3467 37.7253 39.1635C37.9775 38.5854 38.4389 38.124 39.017 37.8718C39.2002 37.7919 39.4525 37.7309 39.9165 37.6978C40.3908 37.6639 41.0001 37.6632 41.8875 37.6632C42.7748 37.6632 43.3841 37.6639 43.8585 37.6978C44.3225 37.7309 44.5748 37.7919 44.758 37.8718C45.336 38.124 45.7974 38.5854 46.0496 39.1635C46.1296 39.3467 46.1906 39.5989 46.2237 40.063C46.2576 40.5373 46.2582 41.1466 46.2582 42.034C46.2582 42.9213 46.2576 43.5306 46.2237 44.0049C46.1906 44.469 46.1296 44.7212 46.0496 44.9045C45.7974 45.4825 45.336 45.9439 44.758 46.1961C44.5748 46.2761 44.3225 46.337 43.8585 46.3702C43.3841 46.4041 42.7748 46.4047 41.8875 46.4047C41.0001 46.4047 40.3908 46.4041 39.9165 46.3702C39.4525 46.337 39.2002 46.2761 39.017 46.1961C38.4389 45.9439 37.9775 45.4825 37.7253 44.9045C37.6454 44.7212 37.5844 44.469 37.5513 44.0049C37.5174 43.5306 37.5167 42.9213 37.5167 42.034Z" stroke="black" stroke-opacity="0.2" stroke-width="2.14286"/>
</g>
<defs>
<filter id="filter0_d_723_6649" x="-1.71652" y="-1.5715" width="74.2846" height="74.2856" filterUnits="userSpaceOnUse" color-interpolation-filters="sRGB">
<feFlood flood-opacity="0" result="BackgroundImageFix"/>
<feColorMatrix in="SourceAlpha" type="matrix" values="0 0 0 0 0 0 0 0 0 0 0 0 0 0 0 0 0 0 127 0" result="hardAlpha"/>
<feOffset/>
<feGaussianBlur stdDeviation="11.4286"/>
<feComposite in2="hardAlpha" operator="out"/>
<feColorMatrix type="matrix" values="0 0 0 0 1 0 0 0 0 1 0 0 0 0 1 0 0 0 1 0"/>
<feBlend mode="overlay" in2="BackgroundImageFix" result="effect1_dropShadow_723_6649"/>
<feBlend mode="normal" in="SourceGraphic" in2="effect1_dropShadow_723_6649" result="shape"/>
</filter>
</defs>
</svg>
