        <svg width="21" height="33" viewBox="0 0 32 33" fill="none" xmlns="http://www.w3.org/2000/svg">
          <path fill-rule="evenodd" clip-rule="evenodd" d="M14.7134 0.785645H17.5706V4.99993H14.7134V0.785645ZM6.0846 4.35707L8.65603 6.91422L6.62746 8.9285L4.07031 6.37136L6.0846 4.35707ZM4.71345 14.9999H0.427734V17.857H4.71345V14.9999ZM28.2107 6.3601L26.2004 4.3501L23.6448 6.90567L25.655 8.91581L28.2107 6.3601ZM23.6281 25.9427L26.1852 28.5142L28.1995 26.4999L25.6281 23.9427L23.6281 25.9427ZM31.8563 14.9999H27.5706V17.857H31.8563V14.9999ZM16.142 7.857C11.4134 7.857 7.57059 11.6999 7.57059 16.4284C7.57059 21.157 11.4134 24.9999 16.142 24.9999C20.8706 24.9999 24.7134 21.157 24.7134 16.4284C24.7134 11.6999 20.8706 7.857 16.142 7.857ZM10.4277 16.4284C10.4277 19.5856 12.9849 22.1427 16.142 22.1427C19.2992 22.1427 21.8563 19.5856 21.8563 16.4284C21.8563 13.2713 19.2992 10.7141 16.142 10.7141C12.9849 10.7141 10.4277 13.2713 10.4277 16.4284ZM17.5706 27.857V32.0713H14.7134V27.857H17.5706ZM6.0846 28.4998L4.07031 26.4856L6.62746 23.9141L8.64174 25.9284L6.0846 28.4998Z" fill="white"/>
          </svg>