<svg width="1368" height="254" viewBox="0 0 1368 254" fill="none" xmlns="http://www.w3.org/2000/svg">
<g filter="url(#filter0_bd_319_14807)">
<g clip-path="url(#clip0_319_14807)">
<rect x="-1.09766" width="1370.11" height="245.523" rx="7.48273" fill="#D9D9D9"/>
<rect x="-1.09766" width="1370.11" height="245.523" rx="7.48273" fill="black" fill-opacity="0.2"/>
<circle cx="72.7117" cy="239.244" r="34.3446" fill="#FDE100"/>
<ellipse cx="182.36" cy="194.627" rx="182.36" ry="194.627" transform="matrix(0.915133 -0.403152 0.464247 0.885706 985.152 20.4453)" fill="#FDE100"/>
<ellipse cx="202.769" cy="174.914" rx="202.769" ry="174.914" transform="matrix(-0.631151 -0.77566 0.810038 -0.586378 1251.52 379.41)" fill="url(#paint0_linear_319_14807)"/>
<ellipse cx="5.48109" cy="148.634" rx="12.4225" ry="12.4225" fill="#FDE100"/>
<path d="M42.9298 146.451C42.1978 146.451 41.54 146.324 40.9565 146.069C40.3836 145.804 39.9327 145.443 39.6038 144.987C39.2749 144.52 39.1052 143.985 39.0946 143.38H40.6382C40.6913 143.9 40.9034 144.34 41.2748 144.701C41.6567 145.051 42.2084 145.226 42.9298 145.226C43.6194 145.226 44.1605 145.056 44.553 144.717C44.9561 144.367 45.1577 143.921 45.1577 143.38C45.1577 142.956 45.041 142.611 44.8076 142.345C44.5742 142.08 44.2825 141.879 43.9324 141.741C43.5823 141.603 43.1101 141.454 42.516 141.295C41.784 141.104 41.1952 140.913 40.7496 140.722C40.3146 140.531 39.938 140.234 39.6197 139.831C39.3121 139.417 39.1582 138.866 39.1582 138.176C39.1582 137.571 39.3121 137.036 39.6197 136.569C39.9274 136.102 40.3571 135.741 40.9087 135.487C41.471 135.232 42.1129 135.105 42.8343 135.105C43.874 135.105 44.7227 135.365 45.3805 135.885C46.0489 136.404 46.4255 137.094 46.5104 137.953H44.919C44.866 137.529 44.6432 137.158 44.2506 136.839C43.8581 136.51 43.3382 136.346 42.6911 136.346C42.0864 136.346 41.593 136.505 41.2111 136.823C40.8292 137.131 40.6382 137.566 40.6382 138.128C40.6382 138.532 40.7496 138.86 40.9724 139.115C41.2058 139.37 41.4869 139.566 41.8158 139.704C42.1553 139.831 42.6274 139.98 43.2322 140.149C43.9642 140.351 44.553 140.553 44.9986 140.754C45.4442 140.945 45.8261 141.247 46.1444 141.661C46.4626 142.064 46.6218 142.616 46.6218 143.316C46.6218 143.857 46.4786 144.367 46.1921 144.844C45.9057 145.321 45.4813 145.709 44.919 146.006C44.3567 146.303 43.6937 146.451 42.9298 146.451ZM60.3699 137.619L57.6486 146.34H56.1527L54.0521 139.417L51.9515 146.34H50.4556L47.7185 137.619H49.1984L51.2036 144.939L53.3678 137.619H54.8478L56.9643 144.955L58.9376 137.619H60.3699ZM61.266 141.948C61.266 141.056 61.4464 140.277 61.8071 139.608C62.1678 138.929 62.6611 138.404 63.2871 138.033C63.9236 137.662 64.6291 137.476 65.4036 137.476C66.1675 137.476 66.8305 137.64 67.3928 137.969C67.9551 138.298 68.3742 138.712 68.65 139.21V137.619H70.1141V146.34H68.65V144.717C68.3635 145.226 67.9339 145.65 67.361 145.99C66.7987 146.319 66.1409 146.483 65.3877 146.483C64.6132 146.483 63.913 146.292 63.2871 145.91C62.6611 145.528 62.1678 144.992 61.8071 144.303C61.4464 143.613 61.266 142.828 61.266 141.948ZM68.65 141.964C68.65 141.306 68.5174 140.733 68.2522 140.245C67.9869 139.757 67.6262 139.386 67.17 139.131C66.7244 138.866 66.2311 138.733 65.69 138.733C65.149 138.733 64.6556 138.86 64.2101 139.115C63.7645 139.37 63.4091 139.741 63.1438 140.229C62.8786 140.717 62.746 141.29 62.746 141.948C62.746 142.616 62.8786 143.2 63.1438 143.698C63.4091 144.186 63.7645 144.563 64.2101 144.828C64.6556 145.083 65.149 145.21 65.69 145.21C66.2311 145.21 66.7244 145.083 67.17 144.828C67.6262 144.563 67.9869 144.186 68.2522 143.698C68.5174 143.2 68.65 142.621 68.65 141.964ZM74.0094 139.226C74.2959 138.728 74.7203 138.314 75.2825 137.985C75.8554 137.646 76.5185 137.476 77.2718 137.476C78.0462 137.476 78.7464 137.662 79.3724 138.033C80.0089 138.404 80.5075 138.929 80.8683 139.608C81.229 140.277 81.4093 141.056 81.4093 141.948C81.4093 142.828 81.229 143.613 80.8683 144.303C80.5075 144.992 80.0089 145.528 79.3724 145.91C78.7464 146.292 78.0462 146.483 77.2718 146.483C76.5291 146.483 75.8713 146.319 75.2985 145.99C74.7362 145.65 74.3065 145.231 74.0094 144.733V150.477H72.5613V137.619H74.0094V139.226ZM79.9294 141.948C79.9294 141.29 79.7967 140.717 79.5315 140.229C79.2663 139.741 78.9056 139.37 78.4494 139.115C78.0038 138.86 77.5105 138.733 76.9694 138.733C76.4389 138.733 75.9456 138.866 75.4894 139.131C75.0438 139.386 74.6831 139.762 74.4073 140.261C74.1421 140.749 74.0094 141.316 74.0094 141.964C74.0094 142.621 74.1421 143.2 74.4073 143.698C74.6831 144.186 75.0438 144.563 75.4894 144.828C75.9456 145.083 76.4389 145.21 76.9694 145.21C77.5105 145.21 78.0038 145.083 78.4494 144.828C78.9056 144.563 79.2663 144.186 79.5315 143.698C79.7967 143.2 79.9294 142.616 79.9294 141.948ZM87.0171 141.948C87.0171 141.056 87.1974 140.277 87.5581 139.608C87.9188 138.929 88.4122 138.404 89.0381 138.033C89.6746 137.662 90.3855 137.476 91.1705 137.476C91.8495 137.476 92.4808 137.635 93.0643 137.953C93.6478 138.261 94.0934 138.669 94.401 139.179V134.564H95.8651V146.34H94.401V144.701C94.1146 145.221 93.6902 145.65 93.1279 145.99C92.5656 146.319 91.9079 146.483 91.1546 146.483C90.3802 146.483 89.6746 146.292 89.0381 145.91C88.4122 145.528 87.9188 144.992 87.5581 144.303C87.1974 143.613 87.0171 142.828 87.0171 141.948ZM94.401 141.964C94.401 141.306 94.2684 140.733 94.0032 140.245C93.738 139.757 93.3772 139.386 92.9211 139.131C92.4755 138.866 91.9821 138.733 91.4411 138.733C90.9 138.733 90.4067 138.86 89.9611 139.115C89.5155 139.37 89.1601 139.741 88.8949 140.229C88.6296 140.717 88.497 141.29 88.497 141.948C88.497 142.616 88.6296 143.2 88.8949 143.698C89.1601 144.186 89.5155 144.563 89.9611 144.828C90.4067 145.083 90.9 145.21 91.4411 145.21C91.9821 145.21 92.4755 145.083 92.9211 144.828C93.3772 144.563 93.738 144.186 94.0032 143.698C94.2684 143.2 94.401 142.621 94.401 141.964ZM106.269 141.645C106.269 141.921 106.253 142.213 106.221 142.521H99.2512C99.3043 143.38 99.596 144.054 100.126 144.542C100.668 145.019 101.32 145.258 102.084 145.258C102.71 145.258 103.23 145.114 103.643 144.828C104.068 144.531 104.365 144.138 104.535 143.65H106.094C105.861 144.489 105.394 145.173 104.694 145.703C103.994 146.223 103.124 146.483 102.084 146.483C101.256 146.483 100.514 146.297 99.856 145.926C99.2088 145.555 98.6996 145.03 98.3282 144.351C97.9569 143.661 97.7713 142.865 97.7713 141.964C97.7713 141.062 97.9516 140.271 98.3123 139.592C98.673 138.913 99.177 138.394 99.8241 138.033C100.482 137.662 101.235 137.476 102.084 137.476C102.911 137.476 103.643 137.656 104.28 138.017C104.917 138.378 105.405 138.876 105.744 139.513C106.094 140.139 106.269 140.85 106.269 141.645ZM104.773 141.343C104.773 140.791 104.651 140.319 104.407 139.927C104.163 139.523 103.829 139.221 103.405 139.02C102.991 138.807 102.529 138.701 102.02 138.701C101.288 138.701 100.662 138.935 100.142 139.401C99.6332 139.868 99.3414 140.515 99.2671 141.343H104.773ZM111.427 145.003L114.132 137.619H115.676L112.255 146.34H110.568L107.146 137.619H108.706L111.427 145.003ZM117.849 136.203C117.573 136.203 117.34 136.107 117.149 135.916C116.958 135.725 116.862 135.492 116.862 135.216C116.862 134.94 116.958 134.707 117.149 134.516C117.34 134.325 117.573 134.229 117.849 134.229C118.114 134.229 118.337 134.325 118.517 134.516C118.708 134.707 118.804 134.94 118.804 135.216C118.804 135.492 118.708 135.725 118.517 135.916C118.337 136.107 118.114 136.203 117.849 136.203ZM118.549 137.619V146.34H117.101V137.619H118.549ZM120.476 141.964C120.476 141.062 120.657 140.277 121.017 139.608C121.378 138.929 121.877 138.404 122.513 138.033C123.16 137.662 123.898 137.476 124.725 137.476C125.797 137.476 126.677 137.736 127.367 138.256C128.067 138.776 128.529 139.497 128.751 140.42H127.192C127.043 139.889 126.752 139.47 126.317 139.163C125.892 138.855 125.362 138.701 124.725 138.701C123.898 138.701 123.229 138.988 122.72 139.561C122.211 140.123 121.956 140.924 121.956 141.964C121.956 143.014 122.211 143.825 122.72 144.398C123.229 144.971 123.898 145.258 124.725 145.258C125.362 145.258 125.892 145.109 126.317 144.812C126.741 144.515 127.033 144.091 127.192 143.539H128.751C128.518 144.43 128.051 145.146 127.351 145.687C126.651 146.218 125.776 146.483 124.725 146.483C123.898 146.483 123.16 146.297 122.513 145.926C121.877 145.555 121.378 145.03 121.017 144.351C120.657 143.672 120.476 142.876 120.476 141.964ZM138.641 141.645C138.641 141.921 138.625 142.213 138.593 142.521H131.623C131.676 143.38 131.967 144.054 132.498 144.542C133.039 145.019 133.691 145.258 134.455 145.258C135.081 145.258 135.601 145.114 136.015 144.828C136.439 144.531 136.736 144.138 136.906 143.65H138.466C138.232 144.489 137.765 145.173 137.065 145.703C136.365 146.223 135.495 146.483 134.455 146.483C133.628 146.483 132.885 146.297 132.227 145.926C131.58 145.555 131.071 145.03 130.7 144.351C130.328 143.661 130.143 142.865 130.143 141.964C130.143 141.062 130.323 140.271 130.684 139.592C131.044 138.913 131.548 138.394 132.196 138.033C132.853 137.662 133.607 137.476 134.455 137.476C135.283 137.476 136.015 137.656 136.651 138.017C137.288 138.378 137.776 138.876 138.115 139.513C138.466 140.139 138.641 140.85 138.641 141.645ZM137.145 141.343C137.145 140.791 137.023 140.319 136.779 139.927C136.535 139.523 136.2 139.221 135.776 139.02C135.362 138.807 134.901 138.701 134.392 138.701C133.66 138.701 133.034 138.935 132.514 139.401C132.005 139.868 131.713 140.515 131.639 141.343H137.145ZM151.065 135.248V136.426H146.243V140.165H150.158V141.343H146.243V146.34H144.795V135.248H151.065ZM154.262 139.035C154.517 138.537 154.877 138.15 155.344 137.874C155.821 137.598 156.4 137.46 157.079 137.46V138.956H156.697C155.074 138.956 154.262 139.836 154.262 141.598V146.34H152.814V137.619H154.262V139.035ZM162.554 146.483C161.737 146.483 160.994 146.297 160.326 145.926C159.668 145.555 159.148 145.03 158.766 144.351C158.395 143.661 158.209 142.865 158.209 141.964C158.209 141.072 158.4 140.287 158.782 139.608C159.175 138.919 159.705 138.394 160.374 138.033C161.042 137.662 161.79 137.476 162.617 137.476C163.445 137.476 164.193 137.662 164.861 138.033C165.53 138.394 166.055 138.913 166.437 139.592C166.829 140.271 167.025 141.062 167.025 141.964C167.025 142.865 166.824 143.661 166.421 144.351C166.028 145.03 165.492 145.555 164.813 145.926C164.134 146.297 163.381 146.483 162.554 146.483ZM162.554 145.21C163.074 145.21 163.562 145.088 164.018 144.844C164.474 144.6 164.84 144.234 165.116 143.746C165.402 143.258 165.545 142.664 165.545 141.964C165.545 141.263 165.408 140.669 165.132 140.181C164.856 139.693 164.495 139.332 164.05 139.099C163.604 138.855 163.121 138.733 162.601 138.733C162.071 138.733 161.583 138.855 161.137 139.099C160.702 139.332 160.352 139.693 160.087 140.181C159.822 140.669 159.689 141.263 159.689 141.964C159.689 142.674 159.817 143.274 160.071 143.762C160.336 144.25 160.686 144.616 161.121 144.86C161.556 145.093 162.034 145.21 162.554 145.21ZM179.417 137.46C180.096 137.46 180.7 137.603 181.231 137.89C181.761 138.165 182.18 138.585 182.488 139.147C182.796 139.709 182.95 140.393 182.95 141.2V146.34H181.517V141.407C181.517 140.537 181.3 139.874 180.865 139.417C180.44 138.951 179.862 138.717 179.13 138.717C178.377 138.717 177.778 138.961 177.332 139.449C176.886 139.927 176.664 140.622 176.664 141.534V146.34H175.231V141.407C175.231 140.537 175.014 139.874 174.579 139.417C174.155 138.951 173.576 138.717 172.844 138.717C172.091 138.717 171.492 138.961 171.046 139.449C170.6 139.927 170.378 140.622 170.378 141.534V146.34H168.93V137.619H170.378V138.876C170.664 138.42 171.046 138.07 171.523 137.826C172.011 137.582 172.547 137.46 173.131 137.46C173.863 137.46 174.51 137.624 175.072 137.953C175.635 138.282 176.054 138.765 176.329 139.401C176.573 138.786 176.977 138.309 177.539 137.969C178.101 137.63 178.727 137.46 179.417 137.46ZM189.027 141.948C189.027 141.056 189.207 140.277 189.568 139.608C189.928 138.929 190.422 138.404 191.048 138.033C191.684 137.662 192.39 137.476 193.164 137.476C193.928 137.476 194.591 137.64 195.153 137.969C195.716 138.298 196.135 138.712 196.411 139.21V137.619H197.875V146.34H196.411V144.717C196.124 145.226 195.694 145.65 195.122 145.99C194.559 146.319 193.901 146.483 193.148 146.483C192.374 146.483 191.674 146.292 191.048 145.91C190.422 145.528 189.928 144.992 189.568 144.303C189.207 143.613 189.027 142.828 189.027 141.948ZM196.411 141.964C196.411 141.306 196.278 140.733 196.013 140.245C195.747 139.757 195.387 139.386 194.931 139.131C194.485 138.866 193.992 138.733 193.451 138.733C192.91 138.733 192.416 138.86 191.971 139.115C191.525 139.37 191.17 139.741 190.904 140.229C190.639 140.717 190.507 141.29 190.507 141.948C190.507 142.616 190.639 143.2 190.904 143.698C191.17 144.186 191.525 144.563 191.971 144.828C192.416 145.083 192.91 145.21 193.451 145.21C193.992 145.21 194.485 145.083 194.931 144.828C195.387 144.563 195.747 144.186 196.013 143.698C196.278 143.2 196.411 142.621 196.411 141.964ZM204.571 137.46C205.632 137.46 206.491 137.784 207.149 138.431C207.807 139.067 208.135 139.99 208.135 141.2V146.34H206.703V141.407C206.703 140.537 206.486 139.874 206.051 139.417C205.616 138.951 205.022 138.717 204.268 138.717C203.505 138.717 202.895 138.956 202.438 139.433C201.993 139.911 201.77 140.606 201.77 141.518V146.34H200.322V137.619H201.77V138.86C202.056 138.415 202.444 138.07 202.932 137.826C203.43 137.582 203.977 137.46 204.571 137.46ZM219.072 137.46C219.73 137.46 220.324 137.603 220.855 137.89C221.385 138.165 221.799 138.585 222.096 139.147C222.403 139.709 222.557 140.393 222.557 141.2V146.34H221.125V141.407C221.125 140.537 220.908 139.874 220.473 139.417C220.038 138.951 219.444 138.717 218.69 138.717C217.926 138.717 217.316 138.956 216.86 139.433C216.415 139.911 216.192 140.606 216.192 141.518V146.34H214.744V134.564H216.192V138.86C216.478 138.415 216.871 138.07 217.369 137.826C217.879 137.582 218.446 137.46 219.072 137.46ZM228.726 146.483C227.909 146.483 227.167 146.297 226.498 145.926C225.841 145.555 225.321 145.03 224.939 144.351C224.567 143.661 224.382 142.865 224.382 141.964C224.382 141.072 224.573 140.287 224.955 139.608C225.347 138.919 225.878 138.394 226.546 138.033C227.214 137.662 227.962 137.476 228.79 137.476C229.617 137.476 230.365 137.662 231.034 138.033C231.702 138.394 232.227 138.913 232.609 139.592C233.002 140.271 233.198 141.062 233.198 141.964C233.198 142.865 232.996 143.661 232.593 144.351C232.201 145.03 231.665 145.555 230.986 145.926C230.307 146.297 229.554 146.483 228.726 146.483ZM228.726 145.21C229.246 145.21 229.734 145.088 230.19 144.844C230.647 144.6 231.013 144.234 231.288 143.746C231.575 143.258 231.718 142.664 231.718 141.964C231.718 141.263 231.58 140.669 231.304 140.181C231.028 139.693 230.668 139.332 230.222 139.099C229.777 138.855 229.294 138.733 228.774 138.733C228.244 138.733 227.756 138.855 227.31 139.099C226.875 139.332 226.525 139.693 226.26 140.181C225.994 140.669 225.862 141.263 225.862 141.964C225.862 142.674 225.989 143.274 226.244 143.762C226.509 144.25 226.859 144.616 227.294 144.86C227.729 145.093 228.206 145.21 228.726 145.21ZM236.868 138.813V143.953C236.868 144.377 236.959 144.68 237.139 144.86C237.319 145.03 237.632 145.114 238.078 145.114H239.144V146.34H237.839C237.033 146.34 236.428 146.154 236.025 145.783C235.622 145.412 235.42 144.802 235.42 143.953V138.813H234.29V137.619H235.42V135.423H236.868V137.619H239.144V138.813H236.868ZM248.856 141.645C248.856 141.921 248.84 142.213 248.808 142.521H241.838C241.891 143.38 242.182 144.054 242.713 144.542C243.254 145.019 243.906 145.258 244.67 145.258C245.296 145.258 245.816 145.114 246.23 144.828C246.654 144.531 246.951 144.138 247.121 143.65H248.681C248.447 144.489 247.98 145.173 247.28 145.703C246.58 146.223 245.71 146.483 244.67 146.483C243.843 146.483 243.1 146.297 242.442 145.926C241.795 145.555 241.286 145.03 240.915 144.351C240.543 143.661 240.358 142.865 240.358 141.964C240.358 141.062 240.538 140.271 240.899 139.592C241.259 138.913 241.763 138.394 242.411 138.033C243.068 137.662 243.822 137.476 244.67 137.476C245.498 137.476 246.23 137.656 246.866 138.017C247.503 138.378 247.991 138.876 248.33 139.513C248.681 140.139 248.856 140.85 248.856 141.645ZM247.36 141.343C247.36 140.791 247.238 140.319 246.994 139.927C246.75 139.523 246.416 139.221 245.991 139.02C245.577 138.807 245.116 138.701 244.607 138.701C243.875 138.701 243.249 138.935 242.729 139.401C242.22 139.868 241.928 140.515 241.854 141.343H247.36ZM252.215 134.564V146.34H250.767V134.564H252.215ZM260.692 138.813V143.953C260.692 144.377 260.783 144.68 260.963 144.86C261.143 145.03 261.456 145.114 261.902 145.114H262.968V146.34H261.663C260.857 146.34 260.252 146.154 259.849 145.783C259.446 145.412 259.244 144.802 259.244 143.953V138.813H258.114V137.619H259.244V135.423H260.692V137.619H262.968V138.813H260.692ZM268.526 146.483C267.709 146.483 266.967 146.297 266.298 145.926C265.64 145.555 265.121 145.03 264.739 144.351C264.367 143.661 264.182 142.865 264.182 141.964C264.182 141.072 264.373 140.287 264.755 139.608C265.147 138.919 265.678 138.394 266.346 138.033C267.014 137.662 267.762 137.476 268.59 137.476C269.417 137.476 270.165 137.662 270.834 138.033C271.502 138.394 272.027 138.913 272.409 139.592C272.802 140.271 272.998 141.062 272.998 141.964C272.998 142.865 272.796 143.661 272.393 144.351C272.001 145.03 271.465 145.555 270.786 145.926C270.107 146.297 269.354 146.483 268.526 146.483ZM268.526 145.21C269.046 145.21 269.534 145.088 269.99 144.844C270.446 144.6 270.812 144.234 271.088 143.746C271.375 143.258 271.518 142.664 271.518 141.964C271.518 141.263 271.38 140.669 271.104 140.181C270.828 139.693 270.468 139.332 270.022 139.099C269.576 138.855 269.094 138.733 268.574 138.733C268.043 138.733 267.555 138.855 267.11 139.099C266.675 139.332 266.325 139.693 266.06 140.181C265.794 140.669 265.662 141.263 265.662 141.964C265.662 142.674 265.789 143.274 266.044 143.762C266.309 144.25 266.659 144.616 267.094 144.86C267.529 145.093 268.006 145.21 268.526 145.21ZM278.603 141.948C278.603 141.056 278.784 140.277 279.145 139.608C279.505 138.929 279.999 138.404 280.625 138.033C281.261 137.662 281.967 137.476 282.741 137.476C283.505 137.476 284.168 137.64 284.73 137.969C285.293 138.298 285.712 138.712 285.987 139.21V137.619H287.452V146.34H285.987V144.717C285.701 145.226 285.271 145.65 284.698 145.99C284.136 146.319 283.478 146.483 282.725 146.483C281.951 146.483 281.25 146.292 280.625 145.91C279.999 145.528 279.505 144.992 279.145 144.303C278.784 143.613 278.603 142.828 278.603 141.948ZM285.987 141.964C285.987 141.306 285.855 140.733 285.59 140.245C285.324 139.757 284.964 139.386 284.507 139.131C284.062 138.866 283.569 138.733 283.028 138.733C282.486 138.733 281.993 138.86 281.548 139.115C281.102 139.37 280.747 139.741 280.481 140.229C280.216 140.717 280.083 141.29 280.083 141.948C280.083 142.616 280.216 143.2 280.481 143.698C280.747 144.186 281.102 144.563 281.548 144.828C281.993 145.083 282.486 145.21 283.028 145.21C283.569 145.21 284.062 145.083 284.507 144.828C284.964 144.563 285.324 144.186 285.59 143.698C285.855 143.2 285.987 142.621 285.987 141.964ZM294.148 137.46C295.209 137.46 296.068 137.784 296.726 138.431C297.384 139.067 297.712 139.99 297.712 141.2V146.34H296.28V141.407C296.28 140.537 296.063 139.874 295.628 139.417C295.193 138.951 294.599 138.717 293.845 138.717C293.082 138.717 292.471 138.956 292.015 139.433C291.57 139.911 291.347 140.606 291.347 141.518V146.34H289.899V137.619H291.347V138.86C291.633 138.415 292.021 138.07 292.509 137.826C293.007 137.582 293.554 137.46 294.148 137.46ZM303.881 146.483C303.064 146.483 302.322 146.297 301.653 145.926C300.996 145.555 300.476 145.03 300.094 144.351C299.723 143.661 299.537 142.865 299.537 141.964C299.537 141.072 299.728 140.287 300.11 139.608C300.502 138.919 301.033 138.394 301.701 138.033C302.37 137.662 303.117 137.476 303.945 137.476C304.773 137.476 305.52 137.662 306.189 138.033C306.857 138.394 307.382 138.913 307.764 139.592C308.157 140.271 308.353 141.062 308.353 141.964C308.353 142.865 308.152 143.661 307.748 144.351C307.356 145.03 306.82 145.555 306.141 145.926C305.462 146.297 304.709 146.483 303.881 146.483ZM303.881 145.21C304.401 145.21 304.889 145.088 305.345 144.844C305.802 144.6 306.168 144.234 306.443 143.746C306.73 143.258 306.873 142.664 306.873 141.964C306.873 141.263 306.735 140.669 306.459 140.181C306.184 139.693 305.823 139.332 305.377 139.099C304.932 138.855 304.449 138.733 303.929 138.733C303.399 138.733 302.911 138.855 302.465 139.099C302.03 139.332 301.68 139.693 301.415 140.181C301.149 140.669 301.017 141.263 301.017 141.964C301.017 142.674 301.144 143.274 301.399 143.762C301.664 144.25 302.014 144.616 302.449 144.86C302.884 145.093 303.361 145.21 303.881 145.21ZM312.024 138.813V143.953C312.024 144.377 312.114 144.68 312.294 144.86C312.474 145.03 312.787 145.114 313.233 145.114H314.299V146.34H312.994C312.188 146.34 311.583 146.154 311.18 145.783C310.777 145.412 310.575 144.802 310.575 143.953V138.813H309.446V137.619H310.575V135.423H312.024V137.619H314.299V138.813H312.024ZM320.382 137.46C321.04 137.46 321.634 137.603 322.165 137.89C322.695 138.165 323.109 138.585 323.406 139.147C323.714 139.709 323.868 140.393 323.868 141.2V146.34H322.435V141.407C322.435 140.537 322.218 139.874 321.783 139.417C321.348 138.951 320.754 138.717 320 138.717C319.237 138.717 318.627 138.956 318.17 139.433C317.725 139.911 317.502 140.606 317.502 141.518V146.34H316.054V134.564H317.502V138.86C317.788 138.415 318.181 138.07 318.68 137.826C319.189 137.582 319.756 137.46 320.382 137.46ZM334.19 141.645C334.19 141.921 334.174 142.213 334.142 142.521H327.172C327.225 143.38 327.517 144.054 328.047 144.542C328.588 145.019 329.241 145.258 330.005 145.258C330.631 145.258 331.15 145.114 331.564 144.828C331.989 144.531 332.286 144.138 332.455 143.65H334.015C333.781 144.489 333.315 145.173 332.614 145.703C331.914 146.223 331.044 146.483 330.005 146.483C329.177 146.483 328.434 146.297 327.777 145.926C327.13 145.555 326.62 145.03 326.249 144.351C325.878 143.661 325.692 142.865 325.692 141.964C325.692 141.062 325.872 140.271 326.233 139.592C326.594 138.913 327.098 138.394 327.745 138.033C328.403 137.662 329.156 137.476 330.005 137.476C330.832 137.476 331.564 137.656 332.201 138.017C332.837 138.378 333.325 138.876 333.665 139.513C334.015 140.139 334.19 140.85 334.19 141.645ZM332.694 141.343C332.694 140.791 332.572 140.319 332.328 139.927C332.084 139.523 331.75 139.221 331.325 139.02C330.912 138.807 330.45 138.701 329.941 138.701C329.209 138.701 328.583 138.935 328.063 139.401C327.554 139.868 327.262 140.515 327.188 141.343H332.694ZM337.55 139.035C337.804 138.537 338.165 138.15 338.632 137.874C339.109 137.598 339.687 137.46 340.366 137.46V138.956H339.984C338.361 138.956 337.55 139.836 337.55 141.598V146.34H336.101V137.619H337.55V139.035ZM343.534 144.335L341.752 148.616H340.781L341.943 144.335H343.534ZM353.239 146.483C352.422 146.483 351.679 146.297 351.011 145.926C350.353 145.555 349.833 145.03 349.451 144.351C349.08 143.661 348.894 142.865 348.894 141.964C348.894 141.072 349.085 140.287 349.467 139.608C349.86 138.919 350.39 138.394 351.059 138.033C351.727 137.662 352.475 137.476 353.302 137.476C354.13 137.476 354.878 137.662 355.546 138.033C356.215 138.394 356.74 138.913 357.122 139.592C357.514 140.271 357.711 141.062 357.711 141.964C357.711 142.865 357.509 143.661 357.106 144.351C356.713 145.03 356.178 145.555 355.499 145.926C354.82 146.297 354.066 146.483 353.239 146.483ZM353.239 145.21C353.759 145.21 354.247 145.088 354.703 144.844C355.159 144.6 355.525 144.234 355.801 143.746C356.087 143.258 356.231 142.664 356.231 141.964C356.231 141.263 356.093 140.669 355.817 140.181C355.541 139.693 355.18 139.332 354.735 139.099C354.289 138.855 353.806 138.733 353.287 138.733C352.756 138.733 352.268 138.855 351.822 139.099C351.387 139.332 351.037 139.693 350.772 140.181C350.507 140.669 350.374 141.263 350.374 141.964C350.374 142.674 350.502 143.274 350.756 143.762C351.021 144.25 351.372 144.616 351.807 144.86C352.242 145.093 352.719 145.21 353.239 145.21ZM361.063 139.035C361.317 138.537 361.678 138.15 362.145 137.874C362.622 137.598 363.201 137.46 363.879 137.46V138.956H363.498C361.874 138.956 361.063 139.836 361.063 141.598V146.34H359.615V137.619H361.063V139.035ZM373.343 138.813H371.512V146.34H370.064V138.813H368.934V137.619H370.064V136.998C370.064 136.022 370.314 135.312 370.812 134.866C371.322 134.41 372.133 134.182 373.247 134.182V135.391C372.611 135.391 372.16 135.519 371.894 135.773C371.64 136.017 371.512 136.426 371.512 136.998V137.619H373.343V138.813ZM376.479 139.035C376.734 138.537 377.095 138.15 377.561 137.874C378.039 137.598 378.617 137.46 379.296 137.46V138.956H378.914C377.291 138.956 376.479 139.836 376.479 141.598V146.34H375.031V137.619H376.479V139.035ZM384.771 146.483C383.954 146.483 383.211 146.297 382.543 145.926C381.885 145.555 381.365 145.03 380.984 144.351C380.612 143.661 380.427 142.865 380.427 141.964C380.427 141.072 380.618 140.287 380.999 139.608C381.392 138.919 381.922 138.394 382.591 138.033C383.259 137.662 384.007 137.476 384.835 137.476C385.662 137.476 386.41 137.662 387.078 138.033C387.747 138.394 388.272 138.913 388.654 139.592C389.046 140.271 389.243 141.062 389.243 141.964C389.243 142.865 389.041 143.661 388.638 144.351C388.245 145.03 387.71 145.555 387.031 145.926C386.352 146.297 385.599 146.483 384.771 146.483ZM384.771 145.21C385.291 145.21 385.779 145.088 386.235 144.844C386.691 144.6 387.057 144.234 387.333 143.746C387.62 143.258 387.763 142.664 387.763 141.964C387.763 141.263 387.625 140.669 387.349 140.181C387.073 139.693 386.712 139.332 386.267 139.099C385.821 138.855 385.339 138.733 384.819 138.733C384.288 138.733 383.8 138.855 383.355 139.099C382.92 139.332 382.57 139.693 382.304 140.181C382.039 140.669 381.907 141.263 381.907 141.964C381.907 142.674 382.034 143.274 382.288 143.762C382.554 144.25 382.904 144.616 383.339 144.86C383.774 145.093 384.251 145.21 384.771 145.21ZM401.634 137.46C402.313 137.46 402.918 137.603 403.448 137.89C403.979 138.165 404.398 138.585 404.705 139.147C405.013 139.709 405.167 140.393 405.167 141.2V146.34H403.735V141.407C403.735 140.537 403.517 139.874 403.082 139.417C402.658 138.951 402.08 138.717 401.348 138.717C400.594 138.717 399.995 138.961 399.549 139.449C399.104 139.927 398.881 140.622 398.881 141.534V146.34H397.449V141.407C397.449 140.537 397.231 139.874 396.796 139.417C396.372 138.951 395.794 138.717 395.062 138.717C394.308 138.717 393.709 138.961 393.263 139.449C392.818 139.927 392.595 140.622 392.595 141.534V146.34H391.147V137.619H392.595V138.876C392.881 138.42 393.263 138.07 393.741 137.826C394.229 137.582 394.765 137.46 395.348 137.46C396.08 137.46 396.727 137.624 397.29 137.953C397.852 138.282 398.271 138.765 398.547 139.401C398.791 138.786 399.194 138.309 399.756 137.969C400.318 137.63 400.944 137.46 401.634 137.46ZM411.244 141.948C411.244 141.056 411.424 140.277 411.785 139.608C412.146 138.929 412.639 138.404 413.265 138.033C413.901 137.662 414.607 137.476 415.381 137.476C416.145 137.476 416.808 137.64 417.371 137.969C417.933 138.298 418.352 138.712 418.628 139.21V137.619H420.092V146.34H418.628V144.717C418.341 145.226 417.912 145.65 417.339 145.99C416.777 146.319 416.119 146.483 415.366 146.483C414.591 146.483 413.891 146.292 413.265 145.91C412.639 145.528 412.146 144.992 411.785 144.303C411.424 143.613 411.244 142.828 411.244 141.948ZM418.628 141.964C418.628 141.306 418.495 140.733 418.23 140.245C417.965 139.757 417.604 139.386 417.148 139.131C416.702 138.866 416.209 138.733 415.668 138.733C415.127 138.733 414.633 138.86 414.188 139.115C413.742 139.37 413.387 139.741 413.122 140.229C412.856 140.717 412.724 141.29 412.724 141.948C412.724 142.616 412.856 143.2 413.122 143.698C413.387 144.186 413.742 144.563 414.188 144.828C414.633 145.083 415.127 145.21 415.668 145.21C416.209 145.21 416.702 145.083 417.148 144.828C417.604 144.563 417.965 144.186 418.23 143.698C418.495 143.2 418.628 142.621 418.628 141.964ZM425.626 146.483C424.958 146.483 424.359 146.372 423.828 146.149C423.298 145.915 422.879 145.597 422.571 145.194C422.263 144.78 422.094 144.308 422.062 143.778H423.558C423.6 144.213 423.802 144.568 424.162 144.844C424.534 145.12 425.016 145.258 425.61 145.258C426.162 145.258 426.597 145.136 426.915 144.892C427.234 144.648 427.393 144.34 427.393 143.969C427.393 143.587 427.223 143.306 426.884 143.125C426.544 142.934 426.019 142.749 425.308 142.568C424.661 142.399 424.131 142.229 423.717 142.059C423.314 141.879 422.964 141.619 422.666 141.279C422.38 140.929 422.237 140.473 422.237 139.911C422.237 139.465 422.369 139.057 422.635 138.685C422.9 138.314 423.276 138.022 423.764 137.81C424.253 137.587 424.809 137.476 425.435 137.476C426.401 137.476 427.181 137.72 427.775 138.208C428.369 138.696 428.687 139.364 428.73 140.213H427.281C427.25 139.757 427.064 139.391 426.724 139.115C426.396 138.839 425.95 138.701 425.388 138.701C424.868 138.701 424.454 138.813 424.146 139.035C423.839 139.258 423.685 139.55 423.685 139.911C423.685 140.197 423.775 140.436 423.955 140.627C424.146 140.807 424.38 140.956 424.656 141.072C424.942 141.178 425.335 141.3 425.833 141.438C426.459 141.608 426.968 141.778 427.361 141.948C427.754 142.107 428.088 142.351 428.364 142.68C428.65 143.009 428.799 143.438 428.809 143.969C428.809 144.446 428.677 144.876 428.411 145.258C428.146 145.64 427.769 145.942 427.281 146.165C426.804 146.377 426.252 146.483 425.626 146.483ZM433.941 146.483C433.272 146.483 432.673 146.372 432.142 146.149C431.612 145.915 431.193 145.597 430.885 145.194C430.578 144.78 430.408 144.308 430.376 143.778H431.872C431.914 144.213 432.116 144.568 432.477 144.844C432.848 145.12 433.331 145.258 433.925 145.258C434.476 145.258 434.911 145.136 435.23 144.892C435.548 144.648 435.707 144.34 435.707 143.969C435.707 143.587 435.537 143.306 435.198 143.125C434.858 142.934 434.333 142.749 433.622 142.568C432.975 142.399 432.445 142.229 432.031 142.059C431.628 141.879 431.278 141.619 430.981 141.279C430.694 140.929 430.551 140.473 430.551 139.911C430.551 139.465 430.684 139.057 430.949 138.685C431.214 138.314 431.591 138.022 432.079 137.81C432.567 137.587 433.124 137.476 433.75 137.476C434.715 137.476 435.495 137.72 436.089 138.208C436.683 138.696 437.001 139.364 437.044 140.213H435.596C435.564 139.757 435.378 139.391 435.039 139.115C434.71 138.839 434.264 138.701 433.702 138.701C433.182 138.701 432.768 138.813 432.461 139.035C432.153 139.258 431.999 139.55 431.999 139.911C431.999 140.197 432.089 140.436 432.27 140.627C432.461 140.807 432.694 140.956 432.97 141.072C433.256 141.178 433.649 141.3 434.148 141.438C434.774 141.608 435.283 141.778 435.675 141.948C436.068 142.107 436.402 142.351 436.678 142.68C436.964 143.009 437.113 143.438 437.123 143.969C437.123 144.446 436.991 144.876 436.726 145.258C436.46 145.64 436.084 145.942 435.596 146.165C435.118 146.377 434.567 146.483 433.941 146.483ZM442.971 146.483C442.154 146.483 441.412 146.297 440.743 145.926C440.085 145.555 439.566 145.03 439.184 144.351C438.812 143.661 438.627 142.865 438.627 141.964C438.627 141.072 438.818 140.287 439.2 139.608C439.592 138.919 440.123 138.394 440.791 138.033C441.459 137.662 442.207 137.476 443.035 137.476C443.862 137.476 444.61 137.662 445.279 138.033C445.947 138.394 446.472 138.913 446.854 139.592C447.247 140.271 447.443 141.062 447.443 141.964C447.443 142.865 447.241 143.661 446.838 144.351C446.446 145.03 445.91 145.555 445.231 145.926C444.552 146.297 443.799 146.483 442.971 146.483ZM442.971 145.21C443.491 145.21 443.979 145.088 444.435 144.844C444.891 144.6 445.257 144.234 445.533 143.746C445.82 143.258 445.963 142.664 445.963 141.964C445.963 141.263 445.825 140.669 445.549 140.181C445.273 139.693 444.913 139.332 444.467 139.099C444.021 138.855 443.539 138.733 443.019 138.733C442.488 138.733 442 138.855 441.555 139.099C441.12 139.332 440.77 139.693 440.504 140.181C440.239 140.669 440.107 141.263 440.107 141.964C440.107 142.674 440.234 143.274 440.489 143.762C440.754 144.25 441.104 144.616 441.539 144.86C441.974 145.093 442.451 145.21 442.971 145.21ZM448.806 141.964C448.806 141.062 448.986 140.277 449.347 139.608C449.708 138.929 450.206 138.404 450.843 138.033C451.49 137.662 452.227 137.476 453.055 137.476C454.126 137.476 455.007 137.736 455.697 138.256C456.397 138.776 456.858 139.497 457.081 140.42H455.521C455.373 139.889 455.081 139.47 454.646 139.163C454.222 138.855 453.691 138.701 453.055 138.701C452.227 138.701 451.559 138.988 451.05 139.561C450.54 140.123 450.286 140.924 450.286 141.964C450.286 143.014 450.54 143.825 451.05 144.398C451.559 144.971 452.227 145.258 453.055 145.258C453.691 145.258 454.222 145.109 454.646 144.812C455.071 144.515 455.362 144.091 455.521 143.539H457.081C456.848 144.43 456.381 145.146 455.681 145.687C454.98 146.218 454.105 146.483 453.055 146.483C452.227 146.483 451.49 146.297 450.843 145.926C450.206 145.555 449.708 145.03 449.347 144.351C448.986 143.672 448.806 142.876 448.806 141.964ZM459.761 136.203C459.485 136.203 459.252 136.107 459.061 135.916C458.87 135.725 458.775 135.492 458.775 135.216C458.775 134.94 458.87 134.707 459.061 134.516C459.252 134.325 459.485 134.229 459.761 134.229C460.026 134.229 460.249 134.325 460.43 134.516C460.621 134.707 460.716 134.94 460.716 135.216C460.716 135.492 460.621 135.725 460.43 135.916C460.249 136.107 460.026 136.203 459.761 136.203ZM460.461 137.619V146.34H459.013V137.619H460.461ZM462.388 141.948C462.388 141.056 462.569 140.277 462.93 139.608C463.29 138.929 463.784 138.404 464.41 138.033C465.046 137.662 465.752 137.476 466.526 137.476C467.29 137.476 467.953 137.64 468.515 137.969C469.078 138.298 469.497 138.712 469.772 139.21V137.619H471.237V146.34H469.772V144.717C469.486 145.226 469.056 145.65 468.483 145.99C467.921 146.319 467.263 146.483 466.51 146.483C465.736 146.483 465.035 146.292 464.41 145.91C463.784 145.528 463.29 144.992 462.93 144.303C462.569 143.613 462.388 142.828 462.388 141.948ZM469.772 141.964C469.772 141.306 469.64 140.733 469.375 140.245C469.109 139.757 468.749 139.386 468.292 139.131C467.847 138.866 467.354 138.733 466.813 138.733C466.271 138.733 465.778 138.86 465.333 139.115C464.887 139.37 464.532 139.741 464.266 140.229C464.001 140.717 463.868 141.29 463.868 141.948C463.868 142.616 464.001 143.2 464.266 143.698C464.532 144.186 464.887 144.563 465.333 144.828C465.778 145.083 466.271 145.21 466.813 145.21C467.354 145.21 467.847 145.083 468.292 144.828C468.749 144.563 469.109 144.186 469.375 143.698C469.64 143.2 469.772 142.621 469.772 141.964ZM475.45 138.813V143.953C475.45 144.377 475.54 144.68 475.721 144.86C475.901 145.03 476.214 145.114 476.66 145.114H477.726V146.34H476.421C475.615 146.34 475.01 146.154 474.607 145.783C474.204 145.412 474.002 144.802 474.002 143.953V138.813H472.872V137.619H474.002V135.423H475.45V137.619H477.726V138.813H475.45ZM487.437 141.645C487.437 141.921 487.421 142.213 487.39 142.521H480.419C480.472 143.38 480.764 144.054 481.295 144.542C481.836 145.019 482.488 145.258 483.252 145.258C483.878 145.258 484.398 145.114 484.812 144.828C485.236 144.531 485.533 144.138 485.703 143.65H487.262C487.029 144.489 486.562 145.173 485.862 145.703C485.162 146.223 484.292 146.483 483.252 146.483C482.424 146.483 481.682 146.297 481.024 145.926C480.377 145.555 479.868 145.03 479.496 144.351C479.125 143.661 478.939 142.865 478.939 141.964C478.939 141.062 479.12 140.271 479.48 139.592C479.841 138.913 480.345 138.394 480.992 138.033C481.65 137.662 482.403 137.476 483.252 137.476C484.08 137.476 484.812 137.656 485.448 138.017C486.085 138.378 486.573 138.876 486.912 139.513C487.262 140.139 487.437 140.85 487.437 141.645ZM485.941 141.343C485.941 140.791 485.819 140.319 485.575 139.927C485.331 139.523 484.997 139.221 484.573 139.02C484.159 138.807 483.698 138.701 483.188 138.701C482.456 138.701 481.83 138.935 481.311 139.401C480.801 139.868 480.51 140.515 480.435 141.343H485.941ZM488.808 141.948C488.808 141.056 488.988 140.277 489.349 139.608C489.71 138.929 490.203 138.404 490.829 138.033C491.465 137.662 492.176 137.476 492.961 137.476C493.64 137.476 494.271 137.635 494.855 137.953C495.438 138.261 495.884 138.669 496.192 139.179V134.564H497.656V146.34H496.192V144.701C495.905 145.221 495.481 145.65 494.919 145.99C494.356 146.319 493.699 146.483 492.945 146.483C492.171 146.483 491.465 146.292 490.829 145.91C490.203 145.528 489.71 144.992 489.349 144.303C488.988 143.613 488.808 142.828 488.808 141.948ZM496.192 141.964C496.192 141.306 496.059 140.733 495.794 140.245C495.529 139.757 495.168 139.386 494.712 139.131C494.266 138.866 493.773 138.733 493.232 138.733C492.691 138.733 492.197 138.86 491.752 139.115C491.306 139.37 490.951 139.741 490.686 140.229C490.42 140.717 490.288 141.29 490.288 141.948C490.288 142.616 490.42 143.2 490.686 143.698C490.951 144.186 491.306 144.563 491.752 144.828C492.197 145.083 492.691 145.21 493.232 145.21C493.773 145.21 494.266 145.083 494.712 144.828C495.168 144.563 495.529 144.186 495.794 143.698C496.059 143.2 496.192 142.621 496.192 141.964ZM503.805 141.964C503.805 141.062 503.985 140.277 504.346 139.608C504.706 138.929 505.205 138.404 505.842 138.033C506.489 137.662 507.226 137.476 508.054 137.476C509.125 137.476 510.006 137.736 510.695 138.256C511.395 138.776 511.857 139.497 512.08 140.42H510.52C510.372 139.889 510.08 139.47 509.645 139.163C509.221 138.855 508.69 138.701 508.054 138.701C507.226 138.701 506.558 138.988 506.048 139.561C505.539 140.123 505.285 140.924 505.285 141.964C505.285 143.014 505.539 143.825 506.048 144.398C506.558 144.971 507.226 145.258 508.054 145.258C508.69 145.258 509.221 145.109 509.645 144.812C510.069 144.515 510.361 144.091 510.52 143.539H512.08C511.846 144.43 511.38 145.146 510.679 145.687C509.979 146.218 509.104 146.483 508.054 146.483C507.226 146.483 506.489 146.297 505.842 145.926C505.205 145.555 504.706 145.03 504.346 144.351C503.985 143.672 503.805 142.876 503.805 141.964ZM518.341 137.46C518.998 137.46 519.592 137.603 520.123 137.89C520.653 138.165 521.067 138.585 521.364 139.147C521.672 139.709 521.826 140.393 521.826 141.2V146.34H520.393V141.407C520.393 140.537 520.176 139.874 519.741 139.417C519.306 138.951 518.712 138.717 517.959 138.717C517.195 138.717 516.585 138.956 516.129 139.433C515.683 139.911 515.46 140.606 515.46 141.518V146.34H514.012V134.564H515.46V138.86C515.747 138.415 516.139 138.07 516.638 137.826C517.147 137.582 517.715 137.46 518.341 137.46ZM523.65 141.948C523.65 141.056 523.83 140.277 524.191 139.608C524.552 138.929 525.045 138.404 525.671 138.033C526.308 137.662 527.013 137.476 527.788 137.476C528.552 137.476 529.215 137.64 529.777 137.969C530.339 138.298 530.758 138.712 531.034 139.21V137.619H532.498V146.34H531.034V144.717C530.748 145.226 530.318 145.65 529.745 145.99C529.183 146.319 528.525 146.483 527.772 146.483C526.997 146.483 526.297 146.292 525.671 145.91C525.045 145.528 524.552 144.992 524.191 144.303C523.83 143.613 523.65 142.828 523.65 141.948ZM531.034 141.964C531.034 141.306 530.902 140.733 530.636 140.245C530.371 139.757 530.01 139.386 529.554 139.131C529.109 138.866 528.615 138.733 528.074 138.733C527.533 138.733 527.04 138.86 526.594 139.115C526.149 139.37 525.793 139.741 525.528 140.229C525.263 140.717 525.13 141.29 525.13 141.948C525.13 142.616 525.263 143.2 525.528 143.698C525.793 144.186 526.149 144.563 526.594 144.828C527.04 145.083 527.533 145.21 528.074 145.21C528.615 145.21 529.109 145.083 529.554 144.828C530.01 144.563 530.371 144.186 530.636 143.698C530.902 143.2 531.034 142.621 531.034 141.964ZM535.693 136.203C535.418 136.203 535.184 136.107 534.993 135.916C534.802 135.725 534.707 135.492 534.707 135.216C534.707 134.94 534.802 134.707 534.993 134.516C535.184 134.325 535.418 134.229 535.693 134.229C535.959 134.229 536.181 134.325 536.362 134.516C536.553 134.707 536.648 134.94 536.648 135.216C536.648 135.492 536.553 135.725 536.362 135.916C536.181 136.107 535.959 136.203 535.693 136.203ZM536.394 137.619V146.34H534.945V137.619H536.394ZM543.111 137.46C544.172 137.46 545.031 137.784 545.689 138.431C546.346 139.067 546.675 139.99 546.675 141.2V146.34H545.243V141.407C545.243 140.537 545.026 139.874 544.591 139.417C544.156 138.951 543.562 138.717 542.808 138.717C542.044 138.717 541.434 138.956 540.978 139.433C540.533 139.911 540.31 140.606 540.31 141.518V146.34H538.862V137.619H540.31V138.86C540.596 138.415 540.984 138.07 541.472 137.826C541.97 137.582 542.517 137.46 543.111 137.46ZM555.05 138.813V143.953C555.05 144.377 555.14 144.68 555.32 144.86C555.501 145.03 555.814 145.114 556.259 145.114H557.326V146.34H556.021C555.214 146.34 554.61 146.154 554.207 145.783C553.803 145.412 553.602 144.802 553.602 143.953V138.813H552.472V137.619H553.602V135.423H555.05V137.619H557.326V138.813H555.05ZM562.884 146.483C562.067 146.483 561.324 146.297 560.656 145.926C559.998 145.555 559.478 145.03 559.096 144.351C558.725 143.661 558.539 142.865 558.539 141.964C558.539 141.072 558.73 140.287 559.112 139.608C559.505 138.919 560.035 138.394 560.703 138.033C561.372 137.662 562.12 137.476 562.947 137.476C563.775 137.476 564.523 137.662 565.191 138.033C565.859 138.394 566.385 138.913 566.767 139.592C567.159 140.271 567.355 141.062 567.355 141.964C567.355 142.865 567.154 143.661 566.751 144.351C566.358 145.03 565.822 145.555 565.143 145.926C564.464 146.297 563.711 146.483 562.884 146.483ZM562.884 145.21C563.403 145.21 563.891 145.088 564.348 144.844C564.804 144.6 565.17 144.234 565.446 143.746C565.732 143.258 565.875 142.664 565.875 141.964C565.875 141.263 565.737 140.669 565.462 140.181C565.186 139.693 564.825 139.332 564.379 139.099C563.934 138.855 563.451 138.733 562.931 138.733C562.401 138.733 561.913 138.855 561.467 139.099C561.032 139.332 560.682 139.693 560.417 140.181C560.152 140.669 560.019 141.263 560.019 141.964C560.019 142.674 560.146 143.274 560.401 143.762C560.666 144.25 561.016 144.616 561.451 144.86C561.886 145.093 562.364 145.21 562.884 145.21ZM572.961 141.948C572.961 141.056 573.141 140.277 573.502 139.608C573.863 138.929 574.356 138.404 574.982 138.033C575.619 137.662 576.324 137.476 577.099 137.476C577.862 137.476 578.525 137.64 579.088 137.969C579.65 138.298 580.069 138.712 580.345 139.21V137.619H581.809V146.34H580.345V144.717C580.058 145.226 579.629 145.65 579.056 145.99C578.494 146.319 577.836 146.483 577.083 146.483C576.308 146.483 575.608 146.292 574.982 145.91C574.356 145.528 573.863 144.992 573.502 144.303C573.141 143.613 572.961 142.828 572.961 141.948ZM580.345 141.964C580.345 141.306 580.212 140.733 579.947 140.245C579.682 139.757 579.321 139.386 578.865 139.131C578.419 138.866 577.926 138.733 577.385 138.733C576.844 138.733 576.351 138.86 575.905 139.115C575.459 139.37 575.104 139.741 574.839 140.229C574.574 140.717 574.441 141.29 574.441 141.948C574.441 142.616 574.574 143.2 574.839 143.698C575.104 144.186 575.459 144.563 575.905 144.828C576.351 145.083 576.844 145.21 577.385 145.21C577.926 145.21 578.419 145.083 578.865 144.828C579.321 144.563 579.682 144.186 579.947 143.698C580.212 143.2 580.345 142.621 580.345 141.964ZM588.505 137.46C589.566 137.46 590.425 137.784 591.083 138.431C591.741 139.067 592.07 139.99 592.07 141.2V146.34H590.638V141.407C590.638 140.537 590.42 139.874 589.985 139.417C589.55 138.951 588.956 138.717 588.203 138.717C587.439 138.717 586.829 138.956 586.373 139.433C585.927 139.911 585.704 140.606 585.704 141.518V146.34H584.256V137.619H585.704V138.86C585.991 138.415 586.378 138.07 586.866 137.826C587.365 137.582 587.911 137.46 588.505 137.46ZM602.481 146.483C601.665 146.483 600.922 146.297 600.254 145.926C599.596 145.555 599.076 145.03 598.694 144.351C598.323 143.661 598.137 142.865 598.137 141.964C598.137 141.072 598.328 140.287 598.71 139.608C599.102 138.919 599.633 138.394 600.301 138.033C600.97 137.662 601.718 137.476 602.545 137.476C603.373 137.476 604.121 137.662 604.789 138.033C605.457 138.394 605.982 138.913 606.364 139.592C606.757 140.271 606.953 141.062 606.953 141.964C606.953 142.865 606.752 143.661 606.348 144.351C605.956 145.03 605.42 145.555 604.741 145.926C604.062 146.297 603.309 146.483 602.481 146.483ZM602.481 145.21C603.001 145.21 603.489 145.088 603.946 144.844C604.402 144.6 604.768 144.234 605.044 143.746C605.33 143.258 605.473 142.664 605.473 141.964C605.473 141.263 605.335 140.669 605.059 140.181C604.784 139.693 604.423 139.332 603.977 139.099C603.532 138.855 603.049 138.733 602.529 138.733C601.999 138.733 601.511 138.855 601.065 139.099C600.63 139.332 600.28 139.693 600.015 140.181C599.75 140.669 599.617 141.263 599.617 141.964C599.617 142.674 599.744 143.274 599.999 143.762C600.264 144.25 600.614 144.616 601.049 144.86C601.484 145.093 601.962 145.21 602.481 145.21ZM610.624 138.813V143.953C610.624 144.377 610.714 144.68 610.894 144.86C611.075 145.03 611.388 145.114 611.833 145.114H612.899V146.34H611.594C610.788 146.34 610.183 146.154 609.78 145.783C609.377 145.412 609.176 144.802 609.176 143.953V138.813H608.046V137.619H609.176V135.423H610.624V137.619H612.899V138.813H610.624ZM618.982 137.46C619.64 137.46 620.234 137.603 620.765 137.89C621.295 138.165 621.709 138.585 622.006 139.147C622.314 139.709 622.468 140.393 622.468 141.2V146.34H621.035V141.407C621.035 140.537 620.818 139.874 620.383 139.417C619.948 138.951 619.354 138.717 618.601 138.717C617.837 138.717 617.227 138.956 616.77 139.433C616.325 139.911 616.102 140.606 616.102 141.518V146.34H614.654V134.564H616.102V138.86C616.389 138.415 616.781 138.07 617.28 137.826C617.789 137.582 618.357 137.46 618.982 137.46ZM632.79 141.645C632.79 141.921 632.774 142.213 632.742 142.521H625.772C625.825 143.38 626.117 144.054 626.647 144.542C627.188 145.019 627.841 145.258 628.605 145.258C629.231 145.258 629.75 145.114 630.164 144.828C630.589 144.531 630.886 144.138 631.055 143.65H632.615C632.382 144.489 631.915 145.173 631.215 145.703C630.514 146.223 629.644 146.483 628.605 146.483C627.777 146.483 627.035 146.297 626.377 145.926C625.73 145.555 625.22 145.03 624.849 144.351C624.478 143.661 624.292 142.865 624.292 141.964C624.292 141.062 624.472 140.271 624.833 139.592C625.194 138.913 625.698 138.394 626.345 138.033C627.003 137.662 627.756 137.476 628.605 137.476C629.432 137.476 630.164 137.656 630.801 138.017C631.437 138.378 631.925 138.876 632.265 139.513C632.615 140.139 632.79 140.85 632.79 141.645ZM631.294 141.343C631.294 140.791 631.172 140.319 630.928 139.927C630.684 139.523 630.35 139.221 629.926 139.02C629.512 138.807 629.05 138.701 628.541 138.701C627.809 138.701 627.183 138.935 626.663 139.401C626.154 139.868 625.862 140.515 625.788 141.343H631.294ZM636.15 139.035C636.404 138.537 636.765 138.15 637.232 137.874C637.709 137.598 638.287 137.46 638.966 137.46V138.956H638.585C636.961 138.956 636.15 139.836 636.15 141.598V146.34H634.702V137.619H636.15V139.035Z" fill="white"/>
<path d="M52.8561 116.948C50.5221 116.948 48.4306 116.569 46.5816 115.811C44.7325 115.053 43.2472 113.932 42.1257 112.446C41.0345 110.961 40.4586 109.173 40.3979 107.081H48.6731C48.7943 108.263 49.2035 109.173 49.9007 109.809C50.5979 110.415 51.5072 110.719 52.6288 110.719C53.7806 110.719 54.69 110.461 55.3568 109.946C56.0237 109.4 56.3571 108.657 56.3571 107.718C56.3571 106.93 56.0843 106.278 55.5387 105.763C55.0234 105.247 54.3717 104.823 53.5836 104.489C52.8258 104.156 51.7346 103.777 50.3099 103.353C48.2487 102.716 46.5664 102.08 45.263 101.443C43.9596 100.807 42.838 99.8669 41.8984 98.6241C40.9587 97.3814 40.4889 95.7597 40.4889 93.7591C40.4889 90.7885 41.5649 88.4697 43.7171 86.8025C45.8692 85.105 48.6731 84.2563 52.1286 84.2563C55.6448 84.2563 58.479 85.105 60.6311 86.8025C62.7833 88.4697 63.9351 90.8037 64.0867 93.8045H55.6751C55.6145 92.7739 55.2356 91.9707 54.5384 91.3948C53.8412 90.7885 52.947 90.4854 51.8558 90.4854C50.9162 90.4854 50.1584 90.743 49.5824 91.2584C49.0065 91.7433 48.7185 92.4557 48.7185 93.3953C48.7185 94.4259 49.2035 95.2292 50.1735 95.8051C51.1435 96.3811 52.6591 97.0025 54.7203 97.6693C56.7815 98.3665 58.4487 99.0333 59.7218 99.6699C61.0252 100.306 62.1467 101.231 63.0864 102.443C64.026 103.656 64.4959 105.217 64.4959 107.127C64.4959 108.945 64.026 110.597 63.0864 112.083C62.177 113.568 60.8433 114.75 59.0852 115.629C57.3271 116.508 55.2508 116.948 52.8561 116.948ZM105.7 91.2584L98.8347 116.629H90.2413L86.2401 100.17L82.1026 116.629H73.5546L66.6435 91.2584H74.4185L78.0105 109.4L82.2844 91.2584H90.5141L94.8336 109.309L98.3801 91.2584H105.7ZM107.119 103.898C107.119 101.292 107.604 99.003 108.574 97.0328C109.575 95.0625 110.924 93.5469 112.621 92.486C114.319 91.4251 116.213 90.8946 118.305 90.8946C120.093 90.8946 121.654 91.2583 122.988 91.9858C124.352 92.7133 125.398 93.6681 126.125 94.8503V91.2584H133.9V116.629H126.125V113.037C125.367 114.22 124.306 115.174 122.942 115.902C121.609 116.629 120.047 116.993 118.259 116.993C116.198 116.993 114.319 116.463 112.621 115.402C110.924 114.311 109.575 112.78 108.574 110.81C107.604 108.809 107.119 106.505 107.119 103.898ZM126.125 103.944C126.125 102.004 125.579 100.473 124.488 99.3516C123.427 98.2301 122.124 97.6693 120.578 97.6693C119.032 97.6693 117.713 98.2301 116.622 99.3516C115.561 100.443 115.031 101.958 115.031 103.898C115.031 105.838 115.561 107.384 116.622 108.536C117.713 109.658 119.032 110.218 120.578 110.218C122.124 110.218 123.427 109.658 124.488 108.536C125.579 107.415 126.125 105.884 126.125 103.944ZM147.3 94.8503C148.058 93.6681 149.103 92.7133 150.437 91.9858C151.771 91.2583 153.332 90.8946 155.12 90.8946C157.212 90.8946 159.106 91.4251 160.804 92.486C162.501 93.5469 163.835 95.0625 164.805 97.0328C165.805 99.003 166.305 101.292 166.305 103.898C166.305 106.505 165.805 108.809 164.805 110.81C163.835 112.78 162.501 114.311 160.804 115.402C159.106 116.463 157.212 116.993 155.12 116.993C153.362 116.993 151.801 116.629 150.437 115.902C149.103 115.174 148.058 114.235 147.3 113.083V128.724H139.525V91.2584H147.3V94.8503ZM158.394 103.898C158.394 101.958 157.848 100.443 156.757 99.3516C155.696 98.2301 154.378 97.6693 152.801 97.6693C151.256 97.6693 149.937 98.2301 148.846 99.3516C147.785 100.473 147.254 102.004 147.254 103.944C147.254 105.884 147.785 107.415 148.846 108.536C149.937 109.658 151.256 110.218 152.801 110.218C154.347 110.218 155.666 109.658 156.757 108.536C157.848 107.384 158.394 105.838 158.394 103.898ZM191.978 84.711C195.342 84.711 198.283 85.3778 200.798 86.7116C203.314 88.0453 205.254 89.9246 206.618 92.3496C208.013 94.7442 208.71 97.5178 208.71 100.67C208.71 103.792 208.013 106.566 206.618 108.991C205.254 111.416 203.299 113.295 200.753 114.629C198.237 115.963 195.312 116.629 191.978 116.629H180.02V84.711H191.978ZM191.478 109.9C194.418 109.9 196.706 109.097 198.343 107.49C199.98 105.884 200.798 103.61 200.798 100.67C200.798 97.7299 199.98 95.4414 198.343 93.8045C196.706 92.1677 194.418 91.3493 191.478 91.3493H187.795V109.9H191.478ZM236.971 103.535C236.971 104.262 236.925 105.02 236.835 105.808H219.238C219.36 107.384 219.86 108.597 220.739 109.445C221.648 110.264 222.755 110.673 224.058 110.673C225.998 110.673 227.347 109.855 228.105 108.218H236.38C235.956 109.885 235.183 111.385 234.061 112.719C232.97 114.053 231.591 115.099 229.923 115.856C228.256 116.614 226.392 116.993 224.331 116.993C221.845 116.993 219.633 116.463 217.693 115.402C215.753 114.341 214.237 112.825 213.146 110.855C212.055 108.885 211.509 106.581 211.509 103.944C211.509 101.307 212.039 99.003 213.1 97.0328C214.192 95.0625 215.707 93.5469 217.647 92.486C219.587 91.4251 221.815 90.8946 224.331 90.8946C226.786 90.8946 228.969 91.4099 230.878 92.4405C232.788 93.4711 234.273 94.9412 235.334 96.8509C236.425 98.7605 236.971 100.988 236.971 103.535ZM229.014 101.489C229.014 100.155 228.559 99.094 227.65 98.3059C226.741 97.5178 225.604 97.1237 224.24 97.1237C222.937 97.1237 221.83 97.5026 220.921 98.2604C220.042 99.0182 219.496 100.094 219.284 101.489H229.014ZM252.485 109.355L257.987 91.2584H266.262L257.259 116.629H247.665L238.663 91.2584H246.983L252.485 109.355ZM273.445 88.6212C272.081 88.6212 270.959 88.2272 270.08 87.4391C269.231 86.6206 268.807 85.6203 268.807 84.4382C268.807 83.2257 269.231 82.2254 270.08 81.4373C270.959 80.6189 272.081 80.2097 273.445 80.2097C274.778 80.2097 275.87 80.6189 276.718 81.4373C277.597 82.2254 278.037 83.2257 278.037 84.4382C278.037 85.6203 277.597 86.6206 276.718 87.4391C275.87 88.2272 274.778 88.6212 273.445 88.6212ZM277.309 91.2584V116.629H269.534V91.2584H277.309ZM281.398 103.944C281.398 101.307 281.928 99.003 282.989 97.0328C284.081 95.0625 285.581 93.5469 287.491 92.486C289.431 91.4251 291.643 90.8946 294.129 90.8946C297.312 90.8946 299.964 91.7282 302.086 93.3953C304.238 95.0625 305.647 97.4117 306.314 100.443H298.039C297.342 98.5029 295.993 97.5329 293.993 97.5329C292.568 97.5329 291.431 98.0937 290.582 99.2152C289.734 100.306 289.309 101.883 289.309 103.944C289.309 106.005 289.734 107.596 290.582 108.718C291.431 109.809 292.568 110.355 293.993 110.355C295.993 110.355 297.342 109.385 298.039 107.445H306.314C305.647 110.415 304.238 112.749 302.086 114.447C299.934 116.144 297.281 116.993 294.129 116.993C291.643 116.993 289.431 116.463 287.491 115.402C285.581 114.341 284.081 112.825 282.989 110.855C281.928 108.885 281.398 106.581 281.398 103.944ZM334.389 103.535C334.389 104.262 334.344 105.02 334.253 105.808H316.657C316.778 107.384 317.278 108.597 318.157 109.445C319.067 110.264 320.173 110.673 321.476 110.673C323.416 110.673 324.765 109.855 325.523 108.218H333.798C333.374 109.885 332.601 111.385 331.479 112.719C330.388 114.053 329.009 115.099 327.342 115.856C325.675 116.614 323.81 116.993 321.749 116.993C319.264 116.993 317.051 116.463 315.111 115.402C313.171 114.341 311.655 112.825 310.564 110.855C309.473 108.885 308.927 106.581 308.927 103.944C308.927 101.307 309.458 99.003 310.519 97.0328C311.61 95.0625 313.126 93.5469 315.065 92.486C317.005 91.4251 319.233 90.8946 321.749 90.8946C324.205 90.8946 326.387 91.4099 328.297 92.4405C330.206 93.4711 331.692 94.9412 332.752 96.8509C333.844 98.7605 334.389 100.988 334.389 103.535ZM326.432 101.489C326.432 100.155 325.978 99.094 325.068 98.3059C324.159 97.5178 323.022 97.1237 321.658 97.1237C320.355 97.1237 319.249 97.5026 318.339 98.2604C317.46 99.0182 316.915 100.094 316.702 101.489H326.432ZM346.535 90.6673V83.4379H359.129V116.629H351.036V90.6673H346.535ZM382.544 73.435L370.359 125.132H362.857L375.042 73.435H382.544ZM384.778 110.4C385.809 109.582 386.278 109.203 386.187 109.264C389.158 106.808 391.492 104.793 393.189 103.216C394.917 101.64 396.372 99.9882 397.554 98.2604C398.737 96.5326 399.328 94.8503 399.328 93.2135C399.328 91.9707 399.04 91.0007 398.464 90.3035C397.888 89.6064 397.024 89.2578 395.872 89.2578C394.72 89.2578 393.811 89.6973 393.144 90.5763C392.507 91.4251 392.189 92.6375 392.189 94.2138H384.687C384.748 91.6372 385.293 89.4851 386.324 87.7573C387.385 86.0296 388.764 84.7565 390.461 83.938C392.189 83.1196 394.099 82.7104 396.19 82.7104C399.797 82.7104 402.51 83.6349 404.329 85.4839C406.178 87.333 407.103 89.7428 407.103 92.7133C407.103 95.9567 405.996 98.9727 403.783 101.761C401.571 104.52 398.752 107.218 395.326 109.855H407.603V116.175H384.778V110.4Z" fill="white"/>
</g>
</g>
<defs>
<filter id="filter0_bd_319_14807" x="-91.7088" y="-90.6111" width="1551.33" height="426.745" filterUnits="userSpaceOnUse" color-interpolation-filters="sRGB">
<feFlood flood-opacity="0" result="BackgroundImageFix"/>
<feGaussianBlur in="BackgroundImageFix" stdDeviation="45.3056"/>
<feComposite in2="SourceAlpha" operator="in" result="effect1_backgroundBlur_319_14807"/>
<feColorMatrix in="SourceAlpha" type="matrix" values="0 0 0 0 0 0 0 0 0 0 0 0 0 0 0 0 0 0 127 0" result="hardAlpha"/>
<feOffset dy="2.19217"/>
<feGaussianBlur stdDeviation="2.92294"/>
<feComposite in2="hardAlpha" operator="out"/>
<feColorMatrix type="matrix" values="0 0 0 0 0 0 0 0 0 0 0 0 0 0 0 0 0 0 0.25 0"/>
<feBlend mode="normal" in2="effect1_backgroundBlur_319_14807" result="effect2_dropShadow_319_14807"/>
<feBlend mode="normal" in="SourceGraphic" in2="effect2_dropShadow_319_14807" result="shape"/>
</filter>
<linearGradient id="paint0_linear_319_14807" x1="202.769" y1="0" x2="202.769" y2="349.828" gradientUnits="userSpaceOnUse">
<stop stop-color="#2B3A8A"/>
<stop offset="0.244792" stop-color="#2B3E76"/>
<stop offset="0.489583" stop-color="#2B416A"/>
<stop offset="0.75" stop-color="#212E46"/>
<stop offset="1" stop-color="#1A2231"/>
</linearGradient>
<clipPath id="clip0_319_14807">
<rect x="-1.09766" width="1370.11" height="245.523" rx="7.48273" fill="white"/>
</clipPath>
</defs>
</svg>
