          <svg width="27" height="28" viewBox="0 0 27 28" fill="none" xmlns="http://www.w3.org/2000/svg">
          <g clip-path="url(#clip0_209_16649)">
          <path d="M0.227051 20.96V19.476C0.227051 18.7561 0.588604 18.1701 1.31171 17.7181C2.03482 17.266 2.98336 17.04 4.15733 17.04C4.3693 17.04 4.57312 17.0447 4.76879 17.054C4.96445 17.0634 5.15811 17.0834 5.34978 17.1143C5.21038 17.4381 5.10584 17.7663 5.03614 18.0989C4.96644 18.4315 4.9316 18.7785 4.9316 19.14V20.96H0.227051ZM6.49978 20.96V19.14C6.49978 18.5427 6.65224 17.9967 6.95716 17.502C7.26209 17.0074 7.69334 16.5734 8.25091 16.2C8.80849 15.8267 9.47497 15.5467 10.2503 15.36C11.0257 15.1734 11.8664 15.08 12.7725 15.08C13.696 15.08 14.5454 15.1734 15.3208 15.36C16.0962 15.5467 16.7627 15.8267 17.3202 16.2C17.8778 16.5734 18.3047 17.0074 18.6009 17.502C18.8971 17.9967 19.0452 18.5427 19.0452 19.14V20.96H6.49978ZM20.6134 20.96V19.14C20.6134 18.7693 20.5829 18.4199 20.5219 18.092C20.461 17.764 20.3608 17.4388 20.2214 17.1164C20.413 17.0841 20.6062 17.0634 20.8008 17.054C20.9955 17.0447 21.1944 17.04 21.3975 17.04C22.5736 17.04 23.5211 17.2619 24.2398 17.7055C24.9586 18.1492 25.318 18.7394 25.318 19.476V20.96H20.6134ZM8.06796 19.28H17.4771V19.112C17.4771 18.4214 17.0371 17.8567 16.1572 17.418C15.2772 16.9794 14.149 16.76 12.7725 16.76C11.396 16.76 10.2678 16.9794 9.38785 17.418C8.50792 17.8567 8.06796 18.4307 8.06796 19.14V19.28ZM4.13619 16.2C3.63843 16.2 3.21095 16.0081 2.85376 15.6243C2.49656 15.2404 2.31796 14.779 2.31796 14.24C2.31796 13.6987 2.4971 13.2367 2.85538 12.854C3.21367 12.4714 3.64438 12.28 4.14751 12.28C4.65281 12.28 5.08406 12.4714 5.44126 12.854C5.79845 13.2367 5.97705 13.7027 5.97705 14.2521C5.97705 14.7854 5.79845 15.2434 5.44126 15.626C5.08406 16.0087 4.64904 16.2 4.13619 16.2ZM21.3862 16.2C20.8884 16.2 20.461 16.0081 20.1038 15.6243C19.7466 15.2404 19.568 14.779 19.568 14.24C19.568 13.6987 19.7471 13.2367 20.1054 12.854C20.4637 12.4714 20.8944 12.28 21.3975 12.28C21.9028 12.28 22.3341 12.4714 22.6913 12.854C23.0485 13.2367 23.2271 13.7027 23.2271 14.2521C23.2271 14.7854 23.0485 15.2434 22.6913 15.626C22.3341 16.0087 21.899 16.2 21.3862 16.2ZM12.7725 14.24C11.9013 14.24 11.1608 13.9134 10.5509 13.26C9.94107 12.6067 9.63614 11.8134 9.63614 10.88C9.63614 9.92802 9.94107 9.13002 10.5509 8.48602C11.1608 7.84202 11.9013 7.52002 12.7725 7.52002C13.6611 7.52002 14.406 7.84202 15.0072 8.48602C15.6083 9.13002 15.9089 9.92802 15.9089 10.88C15.9089 11.8134 15.6083 12.6067 15.0072 13.26C14.406 13.9134 13.6611 14.24 12.7725 14.24ZM12.7817 12.56C13.2286 12.56 13.6002 12.3981 13.8964 12.0742C14.1926 11.7503 14.3407 11.349 14.3407 10.8702C14.3407 10.3914 14.1913 9.99335 13.8925 9.67602C13.5937 9.35869 13.2234 9.20002 12.7817 9.20002C12.34 9.20002 11.9666 9.36008 11.6617 9.68019C11.3568 10.0003 11.2043 10.397 11.2043 10.8702C11.2043 11.3434 11.3555 11.7434 11.6578 12.07C11.9601 12.3967 12.3348 12.56 12.7817 12.56Z" fill="white"/>
          </g>
          <ellipse cx="22.1818" cy="5.28005" rx="4.18182" ry="4.48" fill="#F9A825"/>
          <defs>
          <clipPath id="clip0_209_16649">
          <rect width="25.0909" height="26.88" fill="white" transform="translate(0.227051 0.800049)"/>
          </clipPath>
          </defs>
          </svg>