<svg width="34" height="40" viewBox="0 0 34 40" fill="none" xmlns="http://www.w3.org/2000/svg">
<path fill-rule="evenodd" clip-rule="evenodd" d="M23.2866 1.11983L33.0683 11.4076C33.327 11.6806 33.4719 12.0433 33.4719 12.4216V30.3395C33.4719 35.2416 29.5117 39.3813 24.8216 39.3813H9.39792C4.43369 39.3813 0.546875 35.4093 0.546875 30.3395V25.4529C0.546875 24.6457 1.19564 23.9905 1.99502 23.9905C2.79439 23.9905 3.44316 24.6457 3.44316 25.4529V30.3395C3.44316 33.8259 6.00155 36.4564 9.39792 36.4564H24.8216C27.9419 36.4564 30.5756 33.6543 30.5756 30.3395V13.0085L23.1823 5.23222V7.78272C23.1823 9.74045 24.7598 11.3374 26.6984 11.3413C27.4978 11.3433 28.1446 11.9985 28.1427 12.8077C28.1408 13.613 27.4939 14.2662 26.6945 14.2662H26.6926C23.1611 14.2584 20.286 11.3511 20.286 7.78272V3.59428H9.39792C6.16953 3.59428 3.44316 6.25398 3.44316 9.40311V17.5031C3.44316 18.3104 2.79439 18.9655 1.99502 18.9655C1.19564 18.9655 0.546875 18.3104 0.546875 17.5031V9.40311C0.546875 4.66869 4.59974 0.669395 9.39792 0.669395H21.6222C21.6407 0.667611 21.6577 0.662561 21.6743 0.657608C21.694 0.651734 21.7132 0.645996 21.7342 0.645996C21.7568 0.645996 21.777 0.65205 21.7971 0.658086C21.8131 0.662883 21.8291 0.667668 21.8462 0.669395H22.242C22.6359 0.669395 23.0124 0.831239 23.2866 1.11983ZM17.714 27.9726C17.714 28.7798 17.0652 29.435 16.2658 29.435C15.4664 29.435 14.8177 28.7798 14.8177 27.9726V18.6948L11.8113 21.7464C11.2475 22.3197 10.3304 22.3197 9.76269 21.7503C9.19695 21.181 9.19501 20.2548 9.75882 19.6815L15.2405 14.1222V14.1203C15.5031 13.8571 15.8661 13.6933 16.2658 13.6933C16.6674 13.6933 17.0285 13.8571 17.2911 14.1203V14.1222L22.7728 19.6815C23.3366 20.2548 23.3347 21.181 22.7689 21.7503C22.4851 22.0331 22.1163 22.1754 21.7456 22.1754C21.3749 22.1754 21.0041 22.0331 20.7203 21.7464L17.714 18.6948V27.9726Z" fill="#6E47D5"/>
</svg>
