<svg width="27" height="24" viewBox="0 0 27 24" fill="none" xmlns="http://www.w3.org/2000/svg">
<path d="M4.1333 17.2352C5.06733 18.8538 6.41121 20.1979 8.02972 21.1322C9.64823 22.0664 11.4843 22.5579 13.3531 22.5571C15.2219 22.5579 17.0579 22.0664 18.6764 21.1322C20.2949 20.1979 21.6388 18.8538 22.5728 17.2352M4.1333 6.59128C5.06733 4.97263 6.41121 3.62856 8.02972 2.6943C9.64823 1.76004 11.4843 1.26856 13.3531 1.26932C15.2219 1.26856 17.0579 1.76004 18.6764 2.6943C20.2949 3.62856 21.6388 4.97263 22.5728 6.59128" stroke="black" stroke-width="1.67262" stroke-linecap="round" stroke-linejoin="round"/>
<path d="M14.5945 22.9733C14.5945 22.9733 16.0931 21.001 17.0373 17.7046M14.5945 1.79193C14.5945 1.79193 16.0931 3.76318 17.0373 7.06067M12.4657 22.9733C12.4657 22.9733 10.967 21.0021 10.0229 17.7046M12.4657 1.79193C12.4657 1.79193 10.967 3.76318 10.0229 7.06067M10.3369 10.2538L11.9335 15.5758L13.5301 10.2538L15.1267 15.5758L16.7233 10.2538M1.82178 10.2538L3.41836 15.5758L5.01495 10.2538L6.61154 15.5758L8.20813 10.2538M18.852 10.2538L20.4486 15.5758L22.0452 10.2538L23.6418 15.5758L25.2384 10.2538" stroke="black" stroke-width="1.67262" stroke-linecap="round" stroke-linejoin="round"/>
</svg>
