<svg width="25" height="24" viewBox="0 0 25 24" fill="none" xmlns="http://www.w3.org/2000/svg">
<path d="M14.3635 11.9177L11.6243 10.6395C11.3852 10.5285 11.1889 10.6529 11.1889 10.9176V13.3251C11.1889 13.5897 11.3852 13.7141 11.6243 13.6032L14.3623 12.325C14.6026 12.2128 14.6026 12.0299 14.3635 11.9177ZM12.4085 0.413025C5.9421 0.413025 0.700195 5.65493 0.700195 12.1213C0.700195 18.5877 5.9421 23.8296 12.4085 23.8296C18.8749 23.8296 24.1168 18.5877 24.1168 12.1213C24.1168 5.65493 18.8749 0.413025 12.4085 0.413025ZM12.4085 16.8778C6.41531 16.8778 6.31042 16.3375 6.31042 12.1213C6.31042 7.90512 6.41531 7.36483 12.4085 7.36483C18.4017 7.36483 18.5066 7.90512 18.5066 12.1213C18.5066 16.3375 18.4017 16.8778 12.4085 16.8778Z" fill="#D4101D"/>
</svg>
